<?xml version="1.0" encoding="UTF-8" standalone="no"?>
<!-- Created with Inkscape (http://www.inkscape.org/) -->
<svg
   xmlns:dc="http://purl.org/dc/elements/1.1/"
   xmlns:cc="http://creativecommons.org/ns#"
   xmlns:rdf="http://www.w3.org/1999/02/22-rdf-syntax-ns#"
   xmlns:svg="http://www.w3.org/2000/svg"
   xmlns="http://www.w3.org/2000/svg"
   xmlns:sodipodi="http://sodipodi.sourceforge.net/DTD/sodipodi-0.dtd"
   xmlns:inkscape="http://www.inkscape.org/namespaces/inkscape"
   width="127.14405mm"
   height="143.86081mm"
   viewBox="0 0 450.51042 509.74302"
   id="svg4170"
   version="1.1"
   inkscape:version="0.91 r13725"
   sodipodi:docname="apple_grey.svg">
  <defs
     id="defs4172" />
  <sodipodi:namedview
     id="base"
     pagecolor="#ffffff"
     bordercolor="#666666"
     borderopacity="1.0"
     inkscape:pageopacity="0.0"
     inkscape:pageshadow="2"
     inkscape:zoom="0.35"
     inkscape:cx="-124.03051"
     inkscape:cy="37.728657"
     inkscape:document-units="px"
     inkscape:current-layer="layer1"
     showgrid="false"
     fit-margin-top="0"
     fit-margin-left="0"
     fit-margin-right="0"
     fit-margin-bottom="0"
     inkscape:window-width="1920"
     inkscape:window-height="1017"
     inkscape:window-x="-8"
     inkscape:window-y="-8"
     inkscape:window-maximized="1" />
  <metadata
     id="metadata4175">
    <rdf:RDF>
      <cc:Work
         rdf:about="">
        <dc:format>image/svg+xml</dc:format>
        <dc:type
           rdf:resource="http://purl.org/dc/dcmitype/StillImage" />
        <dc:title></dc:title>
      </cc:Work>
    </rdf:RDF>
  </metadata>
  <g
     inkscape:label="Layer 1"
     inkscape:groupmode="layer"
     id="layer1"
     transform="translate(-77.601936,-60.347832)">
    <g
       transform="translate(46.181505,59.045755)"
       id="g4138"
       style="fill:#cccccc;fill-opacity:1">
      <path
         style="fill:#cccccc;fill-opacity:1"
         d="M 149.99889,510.14675 C 141.92172,508.41417 125.47013,496.90921 109.62091,481.90954 70.581926,444.96314 45.74711,395.10819 35.138225,332.38838 24.522278,269.62683 36.806384,216.34794 69.872537,181.73799 95.877992,154.51838 132.26777,140.35381 164.5,144.90462 c 7.66256,1.08186 30.36093,8.3982 51.81575,16.70171 11.37703,4.40317 11.64464,4.29089 11.66894,-4.89574 0.0237,-8.96753 1.94066,-24.41495 4.08121,-32.88787 C 237.49488,102.33324 250.22993,81.462428 273.75537,55.5 295.18373,31.851877 327.96032,2 332.49698,2 336.2299,2 346,7.1270603 346,9.0859911 c 0,0.9619759 -4.89106,5.3431249 -11.54247,10.3391369 -28.4013,21.332773 -49.74734,41.896224 -65.87036,63.455401 -9.8886,13.222716 -16.85019,28.867851 -20.08944,45.148031 -1.70493,8.56886 -3.11055,32.39362 -2.13945,36.26282 0.61264,2.44093 0.85211,2.53421 3.89723,1.51803 1.78447,-0.59549 8.64449,-3.44495 15.24449,-6.33214 21.61417,-9.45516 39.62366,-14.13859 58.29898,-15.16083 6.21444,-0.34016 10.93944,-0.92938 10.5,-1.30937 -0.43944,-0.37999 -3.74847,-1.46318 -7.35339,-2.40709 -15.56446,-4.07536 -36.44723,-15.96737 -50.19972,-28.58698 -3.71478,-3.40877 -7.02384,-7.27233 -7.35347,-8.5857 -1.1634,-4.635346 8.19898,-21.308194 18.89,-33.639972 C 301.68232,54.330932 327.84662,37.379131 346,32.392214 c 9.26272,-2.544563 28.15237,-2.367911 37,0.346017 34.02448,10.43669 42.31146,12.846209 54.44939,15.831681 9.59888,2.360961 18.33148,3.758497 28,4.481024 7.72784,0.577501 14.61311,1.238167 15.30061,1.468148 2.94765,0.986039 0.60092,4.928509 -9.58267,16.098727 -21.43,23.506221 -40.26457,40.240249 -60.6822,53.914559 -18.35721,12.29438 -32.33722,17.88943 -48.48513,19.4046 -4.125,0.38705 -6.825,0.95613 -6,1.26462 0.825,0.30848 6.07569,2.00312 11.6682,3.76586 13.58892,4.28319 23.68733,10.38036 34.57345,20.87462 23.2492,22.41229 35.80976,52.27318 41.73604,99.2213 4.97129,39.38275 3.40053,71.85804 -5.07111,104.84478 -8.66845,33.75308 -21.86421,62.92877 -38.95805,86.13591 -9.3284,12.66452 -27.59593,30.32917 -39.94853,38.63011 -18.02976,12.11598 -17.02362,11.78407 -35.5,11.7109 l -16,-0.0634 -14.5,-5.2738 C 264.2745,494.23639 252.60843,492.00259 236.36364,494.01172 224.08763,495.53 220.93086,496.4031 201,503.79268 l -17.5,6.48831 -15,0.30836 c -8.25,0.1696 -16.5755,-0.0296 -18.50111,-0.44263 z M 206,131.35846 C 179.42803,124.31426 155.16655,111.94111 141.27717,98.350347 130.53441,87.838565 121.94339,72.289869 117.46201,55.247863 115.21989,46.721423 113.24848,33.284167 111.87496,17.1661 110.48921,0.90463862 110.57753,0.66047718 117.5,1.6148882 c 10.08203,1.3900237 37.72262,13.3996278 50.79372,22.0694418 9.60619,6.371604 22.38263,18.757289 28.49028,27.618925 12.45114,18.065444 18.56491,35.766666 22.24122,64.395055 1.07343,8.35906 1.68374,15.89656 1.35624,16.75 -0.79448,2.07038 -3.12736,1.8936 -14.38146,-1.08985 z"
         id="path4152"
         inkscape:connector-curvature="0" />
      <path
         style="fill:#cccccc;fill-opacity:1"
         d="m 149.98014,509.70046 c -2.48592,-0.70093 -8.37089,-3.78464 -13.07772,-6.85271 C 106.94095,483.31788 78.792071,450.37798 61.404599,414.5 39.969684,370.27037 28.474557,311.35791 33.055412,269.21059 36.896818,233.86674 49.293918,204.6726 69.649542,183.03444 85.655243,166.02028 105.4937,153.95335 127.5,147.84635 c 9.09108,-2.52288 29.68321,-3.54218 38.95191,-1.92811 7.83051,1.36363 24.85033,6.94116 44.89626,14.71288 7.6165,2.95289 14.4386,5.36888 15.16023,5.36888 0.93394,0 1.49679,-2.52163 1.95306,-8.75 2.03913,-27.83559 4.58406,-38.69579 13.06418,-55.75 9.38845,-18.880916 27.11483,-41.121017 52.61698,-66.014973 15.08324,-14.723525 32.77614,-30.3654442 36.64011,-32.3927486 1.94211,-1.0189673 3.13582,-0.7753925 8,1.632394 3.44881,1.7071763 5.71727,3.4746521 5.71727,4.4546326 0,0.899946 -5.12944,5.512365 -11.5,10.340866 -29.08727,22.046393 -50.85716,43.299213 -66.39393,64.816987 -7.5988,10.524018 -13.84522,23.681572 -16.98268,35.772542 -2.97075,11.44854 -5.04944,31.92254 -4.12614,40.6403 0.83539,7.88769 1.09863,7.90542 16.41512,1.10567 45.28071,-20.10236 84.3015,-22.9061 115.86064,-8.32488 10.07682,4.65578 18.29778,10.7197 27.24101,20.09346 27.26781,28.58049 40.4342,73.28724 40.45791,137.37575 0.0103,27.84618 -0.95025,36.59375 -6.55174,59.66545 -13.51531,55.66752 -40.02263,99.15991 -76.31586,125.2167 -16.62758,11.93779 -21.54924,14.15553 -32.91975,14.83391 -12.71994,0.75888 -19.28609,-0.59538 -41.84896,-8.63128 -22.91717,-8.16209 -30.3608,-9.55475 -47.07466,-8.8074 -14.17513,0.63383 -19.32953,1.93847 -42.90786,10.8605 l -16.3531,6.188 -13.5,0.32449 c -8.85607,0.21287 -15.05481,-0.11389 -18.01986,-0.94991 z m 187.97121,-367.1773 c -8.75139,-1.66627 -23.01087,-6.52084 -31.02194,-10.56127 C 291.43417,124.1468 270,106.87641 270,102.20636 c 0,-1.24096 1.62658,-5.507554 3.61463,-9.481324 C 282.24822,75.46795 295.36055,61.381625 315,48.265514 c 16.22853,-10.838147 29.94139,-16.061053 44.56066,-16.972116 11.71951,-0.730351 18.66031,0.537755 39.76835,7.265801 24.47982,7.802777 50.48893,14.129313 61.17099,14.879417 18.74514,1.3163 20.5,1.61915 20.5,3.537837 0,0.979044 -3.00442,5.09736 -6.6765,9.151813 -38.08224,42.047814 -72.60607,67.949184 -99.8235,74.892174 -10.5702,2.69639 -26.77922,3.36283 -36.54865,1.50272 z M 206,130.52453 C 170.11045,120.51024 144.49928,105.01828 131.52901,85.477742 120.66461,69.109834 115.64269,51.077305 112.63356,17.628605 111.16884,1.3472671 111.42146,0.63323486 118.11428,2.1370131 c 6.69908,1.5051833 22.56711,7.6501627 33.571,13.0005459 24.03356,11.685762 41.86793,28.785047 53.04898,50.862441 7.17669,14.170657 13.73143,41.10361 14.48065,59.5 0.27822,6.83126 0.22483,7.00478 -2.21491,7.19815 -1.375,0.10898 -6.325,-0.86915 -11,-2.17362 z"
         id="path4150"
         inkscape:connector-curvature="0" />
      <path
         style="fill:#cccccc;fill-opacity:1"
         d="M 149.24273,509.0856 C 128.53817,501.43876 92.457298,466.46838 73.144142,435.32916 41.255336,383.91381 25.304761,305.48243 36.031981,252.84307 42.356257,221.80931 53.322338,200.39616 72.872796,180.90506 89.466241,164.362 107.75517,153.47535 127.22265,148.55281 c 25.93035,-6.55673 40.69208,-4.18245 88.762,14.27648 C 228.1492,167.5005 229,167.28622 229,159.55123 c 0,-9.57152 2.17173,-26.95769 4.52891,-36.25704 C 239.89596,98.17543 257.9928,72.073402 293.13706,37.318202 311.35062,19.306276 328.44435,4.2069731 331.51424,3.4187216 333.78443,2.8358077 345,7.4414312 345,8.9565894 c 0,0.5399951 -5.46264,5.1068286 -12.13919,10.1485186 -16.63388,12.560798 -30.31156,24.536846 -43.42169,38.019616 -25.32256,26.042323 -36.00143,43.464726 -41.56434,67.811506 -2.06568,9.04071 -3.69024,35.67857 -2.47196,40.53258 0.86716,3.45506 1.63019,3.28258 19.58889,-4.42813 15.6846,-6.73431 25.39751,-9.93309 40.00829,-13.17607 8.85604,-1.96567 13.31822,-2.3305 28.5,-2.33016 15.38478,3.5e-4 19.30761,0.32946 27,2.26522 17.72188,4.45964 35.1668,15.11258 46.70922,28.52349 20.41607,23.72104 31.23396,53.23926 36.3465,99.17684 1.94184,17.4479 2.2153,51.47072 0.52244,65 -4.9632,39.66588 -19.94303,81.35126 -39.91177,111.06519 -14.51112,21.59284 -27.26046,34.37769 -48.5728,48.70808 -13.60182,9.14584 -16.76615,10.17601 -31.09359,10.12267 l -12,-0.0447 -16,-5.78259 c -32.34528,-11.68996 -43.1173,-13.80254 -60.17392,-11.80112 -11.46555,1.34537 -20.04034,3.79232 -41.32608,11.79306 -15.4671,5.81367 -15.52653,5.82671 -28,6.14635 -10.44477,0.26765 -13.36439,0.001 -17.75727,-1.62136 z M 333.5,141.01215 c -15.22472,-3.46218 -29.9526,-10.18549 -43.32465,-19.77781 -10.58767,-7.59497 -17.09072,-13.32304 -18.81222,-16.57037 -1.42226,-2.68285 -1.3148,-3.2333 1.98943,-10.191088 5.24653,-11.047685 11.02681,-18.998731 21.07696,-28.99232 13.18801,-13.113795 32.08821,-25.264964 47.23368,-30.367102 8.98919,-3.028239 20.93242,-4.233438 30.30553,-3.05815 4.3828,0.549557 15.9703,3.499129 25.75,6.554604 31.67937,9.897598 50.95853,14.369297 67.69831,15.702263 9.76851,0.777853 15.05471,1.601226 15.31592,2.385593 0.52586,1.579033 -13.92243,17.369571 -31.88553,34.847723 -28.4645,27.696037 -56.24693,45.452507 -78.05527,49.887147 -10.27723,2.08983 -27.08663,1.9003 -37.29216,-0.42049 z M 205.95913,130.02004 C 187.22455,124.99129 169.19494,117.1935 155.73738,108.29917 128.40907,90.237407 117.21863,66.222893 113.01162,16.610369 112.08197,5.6471788 112.09358,2.5601953 113.06673,1.9587602 114.62508,0.99564651 121.39198,2.9836748 136,8.6962546 187.75131,28.934014 212.09606,61.497791 218.15795,118.59155 c 1.11799,10.52981 0.87507,14.50194 -0.87657,14.33316 -0.42976,-0.0414 -5.52477,-1.34851 -11.32225,-2.90467 z"
         id="path4148"
         inkscape:connector-curvature="0" />
      <path
         style="fill:#cccccc;fill-opacity:1"
         d="M 150,508.96086 C 139.09008,505.05909 115.22129,486.68401 101.64376,471.73442 68.718312,435.48174 49.863576,397.06493 39.038513,344.17529 26.810826,284.43263 33.288478,235.79775 58.505291,198.01668 c 6.010699,-9.00552 20.541636,-23.89721 29.519044,-30.2519 21.299545,-15.07695 41.097455,-21.77239 64.336135,-21.75777 15.44951,0.01 30.40862,4.01709 60.91637,16.31881 9.87763,3.98298 14.30815,5.15706 15.02924,3.98273 0.27306,-0.4447 1.02099,-7.55855 1.66207,-15.80855 2.13923,-27.52958 6.87733,-42.10216 20.48369,-63 C 262.6911,68.701862 293.51757,35.353309 318.5,13.884435 332.04833,2.2415604 331.84858,2.326247 338.53839,5.3889457 341.54228,6.7641695 344,8.3647176 344,8.9457193 c 0,0.5810018 -2.79199,3.1933977 -6.20442,5.8053237 -20.03484,15.334973 -32.8272,26.241763 -44.84048,38.23108 -27.37646,27.321854 -38.03123,43.758613 -44.69147,68.944107 -2.22843,8.42672 -2.54565,11.73038 -2.6477,27.57377 -0.11233,17.44129 -0.0521,18.00912 1.93875,18.29396 1.13007,0.16167 8.88633,-2.64474 17.23612,-6.23648 27.28336,-11.73616 45.10171,-15.86457 68.7092,-15.91952 15.32364,-0.0357 21.8948,0.85999 33.5,4.56605 35.02568,11.18528 60.45744,44.26423 70.97665,92.31893 5.75649,26.29725 8.53714,68.6684 6.10171,92.97706 -4.50874,45.00294 -21.83894,91.72731 -46.21644,124.60524 -16.56532,22.34165 -45.14629,45.20163 -61.86192,49.47915 -12.50615,3.20032 -19.08859,1.87724 -57,-11.45714 -13.42505,-4.72192 -21.05132,-6.10929 -33.63953,-6.1197 -12.50701,-0.0103 -23.36788,2.24739 -39.33676,8.17719 -28.29039,10.50521 -29.46675,10.8186 -40.4613,10.77918 -7.40284,-0.0265 -11.5161,-0.55596 -15.56241,-2.00306 z M 337.65527,141.47374 c -21.33201,-4.04593 -44.70599,-16.1408 -60.81297,-31.46768 -7.00233,-6.66319 -7.16242,-7.91245 -2.24327,-17.50606 10.53542,-20.54681 32.6914,-41.082913 56.71103,-52.564744 19.84559,-9.486566 38.86853,-10.4123 60.18994,-2.929091 10.06747,3.533395 42.42291,12.681438 52.58628,14.868022 5.27245,1.134335 14.04745,2.325131 19.5,2.646214 13.28896,0.782542 16.41372,1.3289 16.41372,2.869904 0,2.004542 -25.64907,29.29373 -37.71964,40.131606 -19.17137,17.213519 -40.55573,32.201469 -54.04412,37.878659 -15.98869,6.72954 -35.05206,9.01845 -50.58097,6.07317 z M 203.39374,128.98603 C 165.77711,118.21978 139.93304,100.57929 127.8453,77.418622 119.80329,62.009778 116.3035,47.523812 113.61062,18.5 112.25867,3.9286592 112.36214,2 114.49583,2 c 3.06622,0 25.94153,8.585695 36.05048,13.530675 42.8021,20.937446 62.7776,53.02858 67.98481,109.219325 l 0.67186,7.25 -2.85149,-0.0607 c -1.56832,-0.0334 -7.3993,-1.36236 -12.95775,-2.95324 z"
         id="path4146"
         inkscape:connector-curvature="0" />
      <path
         style="fill:#cccccc;fill-opacity:1"
         d="M 149.77162,508.54551 C 130.25511,500.49422 100.00623,472.81844 80.864564,445.5 62.424081,419.18226 48.901053,386.91855 40.627074,349.5 35.221796,325.05497 33.663032,312.02778 33.627278,291 c -0.0602,-35.40523 7.145104,-63.79386 22.521919,-88.7355 6.59963,-10.7048 25.065319,-29.65614 35.800459,-36.74202 C 116.39958,149.38395 142.66401,143.0475 167,147.41612 c 7.97122,1.43094 25.8845,7.33878 45.33522,14.95166 6.50937,2.54772 12.90148,4.63222 14.20469,4.63222 2.80559,0 3.06459,-1.13591 3.99016,-17.5 2.15937,-38.17756 15.5234,-62.896495 56.96993,-105.375052 17.9772,-18.424836 40.77929,-38.9059568 44.29813,-39.7891293 2.4056,-0.6037674 9.42258,2.0202622 11.23172,4.200154 0.75363,0.9080616 -1.39109,3.0125353 -8.25033,8.0955313 -24.59638,18.226966 -53.1339,45.424996 -67.0385,63.891829 -10.653,14.148366 -17.58431,29.471237 -21.2499,46.976667 -2.20874,10.54804 -3.21911,36.27122 -1.54738,39.39488 1.55159,2.89916 2.83967,2.5978 18.55626,-4.34143 13.63378,-6.01962 30.03275,-11.50025 42.5,-14.20375 12.93961,-2.80592 44.41731,-2.54445 55.5,0.46102 53.67075,14.55475 82.89081,71.74138 82.87218,162.18928 -0.005,25.74752 -1.43678,38.0962 -6.96693,60.10039 -11.29944,44.95992 -29.69313,80.5254 -55.0446,106.43256 -12.39621,12.66793 -32.22452,26.80466 -42.87365,30.56708 -13.24219,4.67855 -20.70866,3.72166 -47.987,-6.14995 -20.30566,-7.34831 -24.95847,-8.63997 -35.89554,-9.96489 -16.97567,-2.05644 -30.04352,0.43015 -58.73004,11.17533 -19.31571,7.23513 -19.40775,7.25787 -30.37442,7.50264 -9.62295,0.21478 -11.71711,-0.0503 -16.72838,-2.11765 z M 334.5,140.47452 c -18.37331,-4.0564 -37.00067,-13.59232 -53.5,-27.38828 -10.00325,-8.36425 -10.76559,-9.88566 -8.13054,-16.226284 6.39419,-15.386151 23.34921,-34.590758 40.69212,-46.091148 17.31354,-11.480913 27.65397,-15.884503 42.01831,-17.893974 11.65406,-1.630321 21.64821,-0.06589 42.68677,6.681981 32.48689,10.419784 51.23999,14.639442 70.98194,15.971736 5.36172,0.361838 10.00035,1.065247 10.30806,1.563131 0.6414,1.037801 -4.74333,7.074386 -22.50912,25.234003 -32.75922,33.485405 -61.6898,53.050505 -86.00954,58.166325 -8.74916,1.84044 -28.16467,1.83115 -36.538,-0.0175 z M 210,130.36735 C 176.9203,121.64083 151.01451,107.66304 137.45587,91.22527 127.2032,78.795473 120.44989,62.754474 117.06745,42.797022 114.46909,27.465906 112.50906,4.0909359 113.72032,2.879678 c 0.59936,-0.5993611 5.34351,0.5863998 12.8646,3.215403 52.03458,18.188723 78.05319,45.81419 87.85843,93.28439 1.88701,9.135569 4.52208,30.779819 3.88007,31.870529 -0.57683,0.97999 -1.72378,0.85836 -8.32342,-0.88265 z"
         id="path4144"
         inkscape:connector-curvature="0" />
      <path
         style="fill:#cccccc;fill-opacity:1"
         d="M 149.84297,508.02138 C 133.57665,501.12933 108.73033,480.13937 91.437364,458.68082 65.867444,426.95154 49.545108,390.67073 40.076441,344.51729 35.186373,320.68146 34.498082,313.91548 34.530492,290 c 0.03985,-29.40614 2.865086,-45.42345 11.95744,-67.79123 13.856648,-34.08824 43.23946,-61.13953 78.044018,-71.85122 8.34221,-2.56746 10.22419,-2.76347 26.96805,-2.80881 l 18,-0.0487 17.5,6.15248 c 9.625,3.38386 22.37626,8.0219 28.33613,10.30674 5.95988,2.28484 11.58488,4.0109 12.5,3.83569 1.39819,-0.2677 1.85377,-2.71033 2.85315,-15.29754 1.91284,-24.09219 4.53388,-35.02316 11.93186,-49.7614 C 255.20278,77.670883 283.18249,45.618743 321.13266,12.797147 331.79877,3.5724543 331.97368,3.5028933 337.99235,6.0920547 340.74656,7.2768831 343,8.5763624 343,8.9797865 c 0,0.4034242 -4.38152,4.0605095 -9.73671,8.1268555 -40.43702,30.704952 -70.03277,62.973197 -80.23511,87.480318 -6.01312,14.44416 -8.19284,25.15731 -8.76635,43.08594 -0.28454,8.89509 -0.22628,17.33259 0.12946,18.75 0.83226,3.31597 3.2654,3.31214 11.10871,-0.0175 31.71663,-13.4642 45.36118,-17.51518 65.83563,-19.54616 21.98461,-2.18079 40.60537,0.8729 58.1658,9.53883 28.88564,14.25484 49.57551,46.29266 58.45004,90.50866 4.30361,21.44209 5.53052,35.52644 5.5397,63.59323 0.007,21.48472 -0.36398,29.24696 -1.81628,38 -9.16611,55.2445 -32.97912,104.44823 -64.81422,133.92265 -7.3426,6.79813 -28.47852,21.68408 -34.15717,24.05677 -1.7924,0.74891 -6.48044,2.13922 -10.41785,3.08956 -7.11891,1.71825 -7.21658,1.71375 -17.47229,-0.80468 -5.67235,-1.39292 -17.83229,-5.26673 -27.02209,-8.60847 -21.27229,-7.73535 -30.61296,-9.54947 -45.79127,-8.89344 -12.69109,0.54853 -22.6353,2.75583 -36.84493,8.17843 -26.63594,10.16466 -31.54593,11.5631 -40.30749,11.48016 -6.80161,-0.0644 -9.58046,-0.60139 -15.00461,-2.8996 z M 337.5,140.53338 c -19.90729,-3.65758 -40.42493,-14.04556 -58.54505,-29.64107 -8.34252,-7.18018 -8.60046,-8.61111 -3.34548,-18.559257 12.77208,-24.178718 40.66752,-47.367054 67.99769,-56.523692 5.95581,-1.99542 8.79604,-2.299049 20.89284,-2.233504 l 14,0.07586 20.5,6.540576 C 433.50178,51.200168 455.56561,56 471.66475,56 c 3.41947,0 6.50701,0.468901 6.86121,1.042003 1.43619,2.323808 -32.61253,37.253128 -49.7859,51.073507 -12.20183,9.81949 -28.49289,20.71506 -37.05499,24.78261 -17.42573,8.27834 -36.24878,10.93071 -54.18507,7.63526 z m -134,-12.53083 C 150.25781,112.6901 125.09826,87.864412 117.49183,43.135688 115.7472,32.876579 113.02227,4.8202783 113.66655,3.75 c 0.8135,-1.3513818 3.19516,-0.8039768 14.58827,3.3530004 56.33511,20.5548516 80.67486,50.4109616 88.20698,108.1982196 0.84601,6.49067 1.5382,12.67817 1.5382,13.75 0,2.63041 -2.2813,2.46542 -14.5,-1.04867 z"
         id="path4142"
         inkscape:connector-curvature="0" />
      <path
         style="fill:#cccccc;fill-opacity:1"
         d="m 160.78352,510.2616 c 2.90594,-0.20265 7.40594,-0.20052 10,0.005 2.59406,0.20525 0.21648,0.37104 -5.28352,0.36844 -5.5,-0.003 -7.62242,-0.17053 -4.71648,-0.37317 z M 323.25,510.3107 c 0.9625,-0.25152 2.5375,-0.25152 3.5,0 0.9625,0.25153 0.175,0.45733 -1.75,0.45733 -1.925,0 -2.7125,-0.2058 -1.75,-0.45733 z M 149,506.72683 C 134.16022,500.5053 111.07252,481.04844 93.554871,460.00118 66.757167,427.80402 49.597144,389.53746 40.129898,340.86437 35.976849,319.51268 34.793109,308.04796 34.826489,289.5 c 0.100164,-55.65608 20.289078,-98.01074 58.860988,-123.48545 16.126093,-10.65043 30.405163,-15.98124 48.415813,-18.07509 18.30706,-2.12831 32.59509,1.01867 68.56485,15.10159 15.64081,6.1237 17.91158,6.6309 19.13131,4.27313 0.51619,-0.9978 1.2543,-7.43918 1.64024,-14.31418 1.95788,-34.87644 10.37243,-54.570989 37.03746,-86.687524 C 284.42373,47.105717 328.57258,5 332.76475,5 334.11374,5 342,8.7555808 342,9.397997 c 0,0.1965422 -5.07903,4.172309 -11.28673,8.835038 -27.86633,20.93095 -54.57206,47.424434 -68.61518,68.069853 -8.51333,12.515824 -15.14597,30.058902 -17.65355,46.692952 -1.66628,11.05328 -1.9138,32.25882 -0.40936,35.0699 1.47394,2.75408 4.35625,2.40225 13.46482,-1.64359 31.14773,-13.83517 52.84662,-19.40235 75.67764,-19.41625 45.71406,-0.0279 76.91437,22.80964 95.62512,69.9941 10.04406,25.32893 16.39189,74.348 14.16925,109.41732 -3.37064,53.18256 -22.81621,104.72195 -53.32149,141.32557 -9.20583,11.04617 -16.3486,17.56129 -29.62885,27.02531 -14.98313,10.67755 -21.39,13.50469 -31.84836,14.05361 -10.69671,0.56144 -15.24761,-0.47697 -38.67331,-8.8243 -23.84303,-8.49604 -28.07205,-9.41315 -43.5,-9.43346 -15.90325,-0.021 -22.96067,1.57791 -47.5,10.76113 l -19,7.11027 -12.5,0.29862 c -11.19404,0.26742 -13.07462,0.0577 -18,-2.00724 z M 336,139.50369 c -19.09053,-3.84271 -39.40348,-14.39994 -57.25,-29.75448 -4.75408,-4.09024 -5.75,-5.49707 -5.75,-8.12237 0,-3.586084 6.62336,-15.861525 13.05959,-24.204083 12.11484,-15.703076 35.23994,-32.657275 53.76556,-39.418289 16.86242,-6.154022 31.81642,-5.752675 54.04741,1.450569 33.46042,10.841781 52.10854,15.295642 70.37744,16.808737 7.5625,0.626353 13.74541,1.38574 13.7398,1.687525 -0.0246,1.324318 -26.45695,29.003197 -35.9898,37.687077 -27.22536,24.800754 -51.42597,39.533744 -72.07286,43.876954 -8.50748,1.7896 -25.00672,1.78394 -33.92714,-0.0116 z M 207.71476,128.37492 C 187.54911,122.99767 172.14518,116.47982 158.34823,107.48651 132.60115,90.703717 120.86718,69.141712 116.62326,30.81388 113.73024,4.6864586 113.69697,4 115.32363,4 c 2.84792,0 22.25824,7.18532 32.34985,11.975281 41.99135,19.931108 61.99993,49.518215 68.3461,101.064839 0.64599,5.24706 1.01836,10.471 0.82748,11.60876 l -0.34706,2.06866 -8.78524,-2.34262 z"
         id="path4140"
         inkscape:connector-curvature="0" />
    </g>
  </g>
</svg>
