<?xml version="1.0" encoding="UTF-8" standalone="no"?>
<svg
   xmlns:dc="http://purl.org/dc/elements/1.1/"
   xmlns:cc="http://creativecommons.org/ns#"
   xmlns:rdf="http://www.w3.org/1999/02/22-rdf-syntax-ns#"
   xmlns:svg="http://www.w3.org/2000/svg"
   xmlns="http://www.w3.org/2000/svg"
   xmlns:sodipodi="http://sodipodi.sourceforge.net/DTD/sodipodi-0.dtd"
   xmlns:inkscape="http://www.inkscape.org/namespaces/inkscape"
   id="svg1618"
   viewBox="0 0 297.686 423.2"
   version="1.1"
   inkscape:version="0.91 r13725"
   sodipodi:docname="baby_grey.svg">
  <metadata
     id="metadata17">
    <rdf:RDF>
      <cc:Work
         rdf:about="">
        <dc:format>image/svg+xml</dc:format>
        <dc:type
           rdf:resource="http://purl.org/dc/dcmitype/StillImage" />
        <dc:title></dc:title>
      </cc:Work>
    </rdf:RDF>
  </metadata>
  <sodipodi:namedview
     pagecolor="#ffffff"
     bordercolor="#666666"
     borderopacity="1"
     objecttolerance="10"
     gridtolerance="10"
     guidetolerance="10"
     inkscape:pageopacity="0"
     inkscape:pageshadow="2"
     inkscape:window-width="686"
     inkscape:window-height="480"
     id="namedview15"
     showgrid="false"
     inkscape:zoom="0.55764938"
     inkscape:cx="148.843"
     inkscape:cy="211.60249"
     inkscape:window-x="0"
     inkscape:window-y="0"
     inkscape:window-maximized="0"
     inkscape:current-layer="svg1618" />
  <defs
     id="defs1620">
    <marker
       id="ArrowEnd"
       markerHeight="3"
       markerUnits="strokeWidth"
       markerWidth="4"
       orient="auto"
       refX="0"
       refY="5"
       viewBox="0 0 10 10">
      <path
         d="M 0 0 L 10 5 L 0 10 z"
         id="path1623" />
    </marker>
    <marker
       id="ArrowStart"
       markerHeight="3"
       markerUnits="strokeWidth"
       markerWidth="4"
       orient="auto"
       refX="10"
       refY="5"
       viewBox="0 0 10 10">
      <path
         d="M 10 0 L 0 5 L 10 10 z"
         id="path1626" />
    </marker>
  </defs>
  <g
     id="g1628"
     style="fill:#cccccc;fill-opacity:1">
    <g
       id="g1630"
       style="fill:#cccccc;fill-opacity:1">
      <path
         d="M 148.846 119.556C 181.859 119.556 208.622 92.792 208.622 59.778C 208.622 26.764 181.859 0 148.846 0C 115.832 0 89.0711 26.764 89.0711 59.778C 89.0711 92.792 115.832 119.556 148.846 119.556z"
         id="path1632"
         style="stroke:none;fill:#cccccc;fill-opacity:1" />
      <path
         d="M 148.846 59.778"
         id="path1634"
         style="stroke:none;fill:#cccccc;fill-opacity:1" />
    </g>
    <path
       d="M 148.748 244.516L 85.5591 244.516L 85.5591 198.889L 37.2341 247.535C 15.4021 269.367 -14.1899 241.373 7.67809 219.502L 87.6941 139.333C 94.1841 132.889 101.287 128.789 112.559 128.789L 148.748 128.789L 148.808 128.789L 184.309 128.789C 195.581 128.789 203.184 132.764 209.863 139.333L 290.692 220.288C 311.511 241.107 281.12 269.367 261.151 248.334L 211.559 198.639L 211.559 244.516L 148.808 244.516L 148.748 244.516z"
       id="path1636"
       style="stroke:none;fill:#cccccc;fill-opacity:1" />
    <path
       d="M 211.298 268.179L 163.809 315.672L 198.675 350.472L 162.949 386.198C 141.864 407.285 170.952 437.443 192.757 415.638L 249.258 356.889C 261.384 344.515 264.737 321.659 251.737 308.659C 251.693 308.615 211.298 268.179 211.298 268.179z"
       id="path1638"
       style="stroke:none;fill:#cccccc;fill-opacity:1" />
    <path
       d="M 85.5701 268.179L 133.059 315.672L 98.1931 350.472L 133.919 386.198C 155.004 407.285 125.916 437.443 104.111 415.638L 47.6101 356.889C 35.4841 344.515 32.1311 321.659 45.1311 308.659C 45.1751 308.615 85.5701 268.179 85.5701 268.179z"
       id="path1640"
       style="stroke:none;fill:#cccccc;fill-opacity:1" />
  </g>
</svg>
