<?xml version="1.0" encoding="UTF-8" standalone="no"?>
<!-- Created with Inkscape (http://www.inkscape.org/) -->

<svg
   xmlns:dc="http://purl.org/dc/elements/1.1/"
   xmlns:cc="http://creativecommons.org/ns#"
   xmlns:rdf="http://www.w3.org/1999/02/22-rdf-syntax-ns#"
   xmlns:svg="http://www.w3.org/2000/svg"
   xmlns="http://www.w3.org/2000/svg"
   xmlns:sodipodi="http://sodipodi.sourceforge.net/DTD/sodipodi-0.dtd"
   xmlns:inkscape="http://www.inkscape.org/namespaces/inkscape"
   width="143.8813mm"
   height="127.97497mm"
   viewBox="0 0 509.81564 453.45461"
   id="svg4170"
   version="1.1"
   inkscape:version="0.91 r13725"
   sodipodi:docname="banana_grey.svg">
  <defs
     id="defs4172" />
  <sodipodi:namedview
     id="base"
     pagecolor="#ffffff"
     bordercolor="#666666"
     borderopacity="1.0"
     inkscape:pageopacity="0.0"
     inkscape:pageshadow="2"
     inkscape:zoom="0.35"
     inkscape:cx="-222.94934"
     inkscape:cy="-70.415547"
     inkscape:document-units="px"
     inkscape:current-layer="layer1"
     showgrid="false"
     fit-margin-top="0"
     fit-margin-left="0"
     fit-margin-right="0"
     fit-margin-bottom="0"
     inkscape:window-width="1920"
     inkscape:window-height="1017"
     inkscape:window-x="-8"
     inkscape:window-y="-8"
     inkscape:window-maximized="1" />
  <metadata
     id="metadata4175">
    <rdf:RDF>
      <cc:Work
         rdf:about="">
        <dc:format>image/svg+xml</dc:format>
        <dc:type
           rdf:resource="http://purl.org/dc/dcmitype/StillImage" />
        <dc:title></dc:title>
      </cc:Work>
    </rdf:RDF>
  </metadata>
  <g
     inkscape:label="Layer 1"
     inkscape:groupmode="layer"
     id="layer1"
     transform="translate(-176.52077,-8.4920367)">
    <g
       transform="translate(175.24179,-21.880395)"
       id="g4138"
       style="fill:#cccccc;fill-opacity:1">
      <path
         style="fill:#cccccc;fill-opacity:1"
         d="M 107.33691,482.93071 C 85.534186,481.53961 64.493209,477.68562 39.114024,470.43463 32.301738,468.48832 24.479483,465.75645 21.731237,464.36381 14.973057,460.93918 7.3547352,453.61458 4.2117765,447.5198 1.8398921,442.92028 1.6204468,441.45344 1.5907556,430 1.5589958,417.74864 1.6218183,417.38922 4.749015,411.93099 8.4132921,405.53533 17.436643,396.55081 24,392.76285 c 2.475,-1.42841 8.325,-3.73672 13,-5.12957 8.415531,-2.50729 16.540249,-4.49085 86.5,-21.11803 84.94919,-20.18969 116.08398,-30.17072 154,-49.36853 30.01817,-15.19894 54.60742,-33.16474 77.00731,-56.26434 29.62702,-30.55248 48.3523,-58.44074 57.42786,-85.52949 5.29558,-15.80624 7.37371,-30.26708 7.45164,-51.85289 0.0654,-18.11678 -0.0577,-19.37553 -2.64841,-27.078411 C 413.3549,86.361493 407.57474,77.30832 399.79261,69.880223 394.65536,64.976688 393.8,63.650444 393.8,60.588616 c 0,-7.315031 7.26747,-15.844758 20.21529,-23.726402 C 424.56844,30.438265 438,28.187388 438,32.842827 438,33.835425 436.875,38.406152 435.5,43 c -1.375,4.593848 -2.5,9.456466 -2.5,10.80582 0,3.782478 4.81029,24.406444 8.66158,37.136274 6.24886,20.654626 9.1079,26.963646 14.74767,32.543596 4.48417,4.43661 5.95863,5.23704 12.37446,6.71766 10.90526,2.51667 17.57586,5.9891 24.03607,12.51216 6.88088,6.94782 11.28767,15.52541 14.90577,29.01328 2.60531,9.71229 2.62142,10.00034 2.67295,47.77121 l 0.0518,38 -3.16622,12.13627 c -4.14246,15.87826 -9.07431,29.10061 -16.36089,43.86373 -48.53063,98.32645 -154.43225,160.04309 -290.75278,169.44296 -17.1792,1.18458 -74.19369,1.17706 -92.83354,-0.0123 z"
         id="path4152"
         inkscape:connector-curvature="0" />
      <path
         style="fill:#cccccc;fill-opacity:1"
         d="M 103.91717,481.94905 C 98.096617,481.53023 89.771617,480.66475 85.417172,480.02576 67.037705,477.32867 31.090685,468.14844 22.263168,463.89735 15.570092,460.67414 7.8620703,453.05664 4.4247256,446.26839 1.7754881,441.03655 1.503622,439.5679 1.5018994,430.47897 1.5001378,421.18484 1.7365809,419.97738 4.7615247,413.83285 8.8476818,405.53268 18.377168,396.33928 27.21321,392.17299 34.538514,388.71902 45.046604,385.96727 108,371.01741 c 96.4441,-22.90307 125.31086,-31.65536 161.62178,-49.00307 34.92172,-16.68402 60.3327,-34.78086 85.87822,-61.15957 41.28344,-42.62993 58.97308,-75.28028 63.94709,-118.0292 4.19289,-36.03562 -0.76193,-55.358016 -18.76255,-73.168594 -6.40095,-6.333379 -6.8752,-7.094664 -6.36773,-10.221793 1.79479,-11.059994 24.12214,-27.814076 37.18319,-27.901656 4.91718,-0.03297 4.99842,0.01617 4.90453,2.966473 -0.0525,1.65 -1.1281,6.677321 -2.39021,11.171825 l -2.29475,8.171826 2.711,12.210551 c 5.82561,26.239099 12.90673,47.227008 18.34518,54.373748 5.14239,6.7577 7.64834,8.36651 16.46307,10.56928 19.17633,4.79208 29.37645,14.63709 35.65749,34.41612 C 509.9462,181.31547 510.5,186.80896 510.5,221 c 0,29.21305 -0.16673,32.24425 -2.29649,41.75114 C 500.49303,297.16946 483.3368,331.68638 458.37598,363 449.69268,373.8933 427.95123,395.64234 417,404.39042 c -22.47171,17.9509 -58.20172,38.40478 -86.5,49.5175 -39.29571,15.43141 -79.57992,24.34419 -126.89522,28.07523 -14.57371,1.14921 -83.57061,1.12561 -99.68761,-0.0341 z"
         id="path4150"
         inkscape:connector-curvature="0" />
      <path
         style="fill:#cccccc;fill-opacity:1"
         d="M 95.5,480.86422 C 75.567272,478.77881 33.034317,468.63036 22.199232,463.37451 15.751736,460.24697 8.0070135,452.71166 5.1284131,446.76527 -2.2017714,431.62313 1.21839,414.66409 14.17506,401.90702 24.975011,391.27345 25.7389,391.03844 131,365.96615 207.53062,347.73722 237.46099,338.19191 273.5,320.52047 315.19871,300.07384 344.24457,277.007 375.52132,239.5 407.64148,200.98158 421.11771,166.24678 421.10835,122 421.10346,98.86493 416.26668,85.531905 402.75,71.393555 c -8.42766,-8.81527 -9.11384,-10.717225 -6.13288,-16.999125 3.71059,-7.819495 19.0594,-18.654276 31.17226,-22.004625 5.53232,-1.530207 6.46626,-1.562734 7.75877,-0.270224 1.29251,1.292511 1.1674,2.478309 -1.03938,9.851126 C 433.12895,46.580666 432,52.29027 432,54.658716 c 0,5.562458 7.68072,35.623838 12.78425,50.035964 6.36799,17.9829 12.51373,24.50285 25.71575,27.28156 20.48504,4.31162 31.72418,18.66917 37.69746,48.15701 2.09104,10.32268 2.30162,14.0305 2.29255,40.36675 -0.0114,33.158 -0.89325,39.40375 -9.10655,64.5 -8.35994,25.54429 -26.87374,58.04821 -46.13652,81 -11.36312,13.53926 -32.03988,33.22601 -45.57187,43.38986 -43.33019,32.54522 -99.10808,55.89259 -157.89786,66.09249 -31.68984,5.49812 -36.67587,5.82141 -93.77721,6.08062 -29.425,0.13356 -57.55,-0.18087 -62.5,-0.69875 z"
         id="path4148"
         inkscape:connector-curvature="0" />
      <path
         style="fill:#cccccc;fill-opacity:1"
         d="M 107,481.37553 C 74.229947,478.68425 30.964779,468.65481 19.13117,461.00638 5.8881512,452.44701 -1.1268465,437.17992 2.0286892,423.78541 5.8343993,407.63105 18.621287,394.92497 36.587571,389.44492 41.091388,388.07117 66.314155,381.82074 92.638164,375.55507 179.59576,354.85734 206.50807,347.72951 231.5,338.777 295.88067,315.7148 339.15853,285.41763 379.60396,235.09508 399.05618,210.89245 412.76697,184.26033 417.45214,161.578 419.60675,151.14685 422,129.99696 422,121.38712 c 0,-20.59564 -6.64947,-37.90942 -19.67072,-51.218312 -6.88569,-7.037799 -7.45939,-7.93962 -6.97235,-10.960055 1.62432,-10.073272 22.33265,-25.703812 35.76386,-26.994382 l 5.14734,-0.494593 -0.49178,2.890111 c -0.27047,1.589561 -1.49964,6.655702 -2.73147,11.258092 l -2.23971,8.36798 3.20719,14.127314 c 3.66069,16.124994 11.00602,39.754445 14.65267,47.136725 2.52358,5.10871 8.28279,11.81219 11.79162,13.72494 1.07616,0.58664 5.21273,1.8803 9.19239,2.8748 20.51613,5.12689 31.17759,17.39271 36.81909,42.35971 3.98343,17.62902 4.79349,27.45742 4.25991,51.68505 -0.56002,25.42825 -2.49514,37.1155 -9.80303,59.20604 -7.87928,23.81775 -25.2753,54.82901 -43.5581,77.64946 -26.18742,32.68695 -66.54151,63.12644 -109.37833,82.50517 -32.21709,14.57452 -68.86665,25.5167 -103.51585,30.90594 -28.2279,4.3905 -35.94108,4.85308 -84.97273,5.09609 -26.4,0.13085 -50.025,0.0716 -52.5,-0.13167 z"
         id="path4146"
         inkscape:connector-curvature="0" />
      <path
         style="fill:#cccccc;fill-opacity:1"
         d="M 107.22707,480.96376 C 99.926954,480.49044 88.226954,479.14257 81.227067,477.96849 67.49429,475.66511 38.222505,468.51771 28.5,465.09392 0.2509652,455.146 -6.8009039,423.59268 14.532599,402.59732 25.07266,392.22432 27.855767,391.30373 101,373.99584 206.1016,349.12597 235.18959,340.2722 273.5,321.49048 307.18975,304.97404 332.63342,286.66899 356.70346,261.63105 403.25768,213.20482 422,173.28003 422,122.53675 c 0,-22.940813 -5.23271,-37.522113 -18.41799,-51.32299 -8.93587,-9.353072 -9.60594,-12.119733 -4.60675,-19.020915 6.0707,-8.380354 21.93033,-18.261399 31.7581,-19.786287 5.44431,-0.844746 5.92993,0.352441 3.27414,8.071642 -3.36577,9.782781 -3.48023,14.729942 -0.63064,27.256858 5.94065,26.11532 12.85297,46.044182 18.69506,53.899572 4.76917,6.4127 8.56416,8.78021 17.32505,10.80822 16.98086,3.9308 27.65894,13.89214 33.77619,31.50905 7.57635,21.81896 10.17087,60.56635 5.79525,86.5481 -6.46316,38.37718 -20.75217,70.64912 -46.6308,105.31638 -10.63668,14.24899 -36.85494,40.71967 -50.84558,51.33511 C 358.54127,447.32804 295.54106,470.78821 217,479.57691 c -16.90181,1.8913 -88.11616,2.79101 -109.77293,1.38685 z"
         id="path4144"
         inkscape:connector-curvature="0" />
      <path
         style="fill:#cccccc;fill-opacity:1"
         d="M 101.40835,480.01061 C 85.767763,478.6493 71.17382,476.00985 51.5,470.98421 28.864499,465.20202 25.11313,463.92278 18.67266,459.78995 3.8943822,450.30675 -1.5949992,431.41645 5.8218217,415.56706 9.8473297,406.96475 18.288837,398.44052 27,394.18136 c 7.501114,-3.66754 18.243785,-6.52541 74,-19.68618 96.56168,-22.79256 128.64537,-32.23293 163.41706,-48.08416 45.24575,-20.626 78.5969,-46.15285 110.9373,-84.91102 30.51057,-36.56521 43.04136,-65.00318 46.70743,-106 2.66277,-29.77709 -2.80873,-48.883542 -18.78851,-65.609382 -7.23955,-7.577559 -7.47851,-7.983111 -6.80842,-11.555016 1.61986,-8.634557 22.07312,-23.740199 33.9585,-25.079854 5.44683,-0.613936 5.49382,-0.43448 2.45824,9.388917 C 431.71647,46.415099 430.75464,51.525 430.74418,54 c -0.0399,9.445404 10.95975,49.42802 16.91934,61.5 2.69149,5.452 9.37454,12.92639 13.33648,14.91564 1.375,0.69038 5.2,1.83348 8.5,2.54023 18.21759,3.90162 30.02178,16.74129 35.43566,38.54413 4.13396,16.64838 5.56443,29.25022 5.56211,49 -0.002,20.26185 -1.30301,30.9793 -6.01575,49.57091 -7.79526,30.75214 -24.84362,63.7094 -47.54448,91.91126 -46.11007,57.2837 -120.0865,97.55009 -206.43754,112.36678 -31.97241,5.48605 -38.63322,5.94023 -91,6.20512 -26.95,0.13632 -53.09124,-0.10824 -58.09165,-0.54346 z"
         id="path4142"
         inkscape:connector-curvature="0" />
      <path
         style="fill:#cccccc;fill-opacity:1"
         d="M 102,479.39298 C 80.730083,477.15442 65.268675,474.17588 42.472576,467.92542 25.188909,463.18641 19.482023,460.53465 13.33268,454.38531 -4.7005228,436.35211 2.2607474,407.46752 27.73609,394.62085 33.890454,391.51734 50.190105,387.2 100,375.48007 c 77.59685,-18.25801 110.23637,-27.08808 137.5,-37.19829 55.93549,-20.74263 96.48775,-47.94581 131.44721,-88.17713 37.19114,-42.79955 50.6663,-71.92846 53.87998,-116.47104 2.13388,-29.57627 -2.96669,-47.111898 -18.50903,-63.6335 C 399.88678,65.289526 397,61.368774 397,60.06077 c 0,-8.700334 18.68777,-23.207752 34.10154,-26.473208 1.43085,-0.30313 2.839,-0.31369 3.12922,-0.02347 0.29022,0.290222 -0.54297,3.899172 -1.85154,8.019887 -1.30857,4.120715 -2.37389,9.612566 -2.36736,12.204113 0.031,12.327892 13.34919,57.143908 19.78542,66.578428 5.61861,8.23604 9.09963,10.61436 19.48294,13.31124 10.48155,2.7224 15.50328,5.38496 21.39583,11.34422 8.00186,8.09246 12.89768,20.19506 16.31349,40.32739 2.58366,15.22777 2.8467,51.88845 0.47821,66.65063 -9.63576,60.05712 -48.94009,119.8629 -105.67122,160.79015 -39.17643,28.26287 -93.47203,50.42787 -147.64628,60.27341 -31.65178,5.75235 -38.05122,6.18617 -95.15025,6.4503 -29.425,0.13611 -55.075,0.0817 -57,-0.12088 z M 510.41508,220 c 0,-10.175 0.1485,-14.3375 0.32999,-9.25 0.18149,5.0875 0.18149,13.4125 0,18.5 -0.18149,5.0875 -0.32999,0.925 -0.32999,-9.25 z"
         id="path4140"
         inkscape:connector-curvature="0" />
    </g>
  </g>
</svg>
