<?xml version="1.0" encoding="UTF-8" standalone="no"?>
<!-- Created with Inkscape (http://www.inkscape.org/) -->

<svg
   xmlns:dc="http://purl.org/dc/elements/1.1/"
   xmlns:cc="http://creativecommons.org/ns#"
   xmlns:rdf="http://www.w3.org/1999/02/22-rdf-syntax-ns#"
   xmlns:svg="http://www.w3.org/2000/svg"
   xmlns="http://www.w3.org/2000/svg"
   xmlns:sodipodi="http://sodipodi.sourceforge.net/DTD/sodipodi-0.dtd"
   xmlns:inkscape="http://www.inkscape.org/namespaces/inkscape"
   width="143.94006mm"
   height="143.94933mm"
   viewBox="0 0 510.02385 510.05666"
   id="svg4185"
   version="1.1"
   inkscape:version="0.91 r13725"
   sodipodi:docname="bread_grey.svg">
  <defs
     id="defs4187" />
  <sodipodi:namedview
     id="base"
     pagecolor="#ffffff"
     bordercolor="#666666"
     borderopacity="1.0"
     inkscape:pageopacity="0.0"
     inkscape:pageshadow="2"
     inkscape:zoom="0.35"
     inkscape:cx="-154.27379"
     inkscape:cy="160.74263"
     inkscape:document-units="px"
     inkscape:current-layer="layer1"
     showgrid="false"
     fit-margin-top="0"
     fit-margin-left="0"
     fit-margin-right="0"
     fit-margin-bottom="0"
     inkscape:window-width="1920"
     inkscape:window-height="1017"
     inkscape:window-x="-8"
     inkscape:window-y="-8"
     inkscape:window-maximized="1" />
  <metadata
     id="metadata4190">
    <rdf:RDF>
      <cc:Work
         rdf:about="">
        <dc:format>image/svg+xml</dc:format>
        <dc:type
           rdf:resource="http://purl.org/dc/dcmitype/StillImage" />
        <dc:title></dc:title>
      </cc:Work>
    </rdf:RDF>
  </metadata>
  <g
     inkscape:label="Layer 1"
     inkscape:groupmode="layer"
     id="layer1"
     transform="translate(-107.84521,-183.04815)">
    <g
       transform="translate(106.86784,182.04815)"
       id="g4138"
       style="fill:#cccccc;fill-opacity:1">
      <path
         style="fill:#cccccc;fill-opacity:1"
         d="M 46.5,510.13536 C 40.318837,508.96443 36.044957,506.27455 29.293553,499.30603 18.033274,487.68364 9.7405427,473.07108 4.3767791,455.40039 1.678314,446.51041 1.6751267,446.46141 1.6511556,413.5 1.6248071,377.26939 1.6871099,376.70485 8.6589906,350 14.534711,327.49384 25.515001,299.61034 33.425106,287.10858 l 2.778538,-4.39143 8.648178,0.60506 C 49.60832,283.655 64.525,285.72126 78,287.91391 c 42.94435,6.98789 47.27169,7.47064 67.5,7.53017 17.40984,0.0512 19.29292,-0.1157 22.5,-1.99472 5.65857,-3.31533 5.22526,-5.7398 -2.31512,-12.95366 -9.8405,-9.41439 -27.04324,-17.6984 -50.18488,-24.16662 -7.29703,-2.03956 -12.08658,-2.61741 -25.312242,-3.05389 -18.552467,-0.61227 -24.175143,0.36287 -37.018026,6.41999 -4.031647,1.90146 -7.969147,3.21203 -8.75,2.91239 -4.112238,-1.57801 1.822968,-27.31981 9.933181,-43.08156 7.42343,-14.42702 20.583164,-25.1756 47.825627,-39.06291 C 113.329,174.77896 115.53561,174 120.48698,174 c 12.32403,0 25.52174,2.94301 74.01302,16.50444 47.50478,13.28554 61.00946,16.07037 74.22199,15.30551 8.53338,-0.49399 12.80555,-2.4371 14.36264,-6.53255 4.54917,-11.96522 -32.20057,-33.65815 -75.68128,-44.67374 C 191.05559,150.46204 180.46061,149 166.79533,149 c -11.15291,0 -13.97256,0.34571 -20.39007,2.5 -4.09605,1.375 -8.11289,2.5 -8.92631,2.5 -3.49732,0 -0.12123,-19.06561 5.26595,-29.73815 3.50437,-6.94251 11.72493,-16.06063 18.49485,-20.51422 7.62346,-5.015081 15.9518,-8.026857 36.36447,-13.150477 9.95732,-2.499307 20.98232,-5.905756 24.5,-7.569885 4.48916,-2.123712 7.90197,-3.025925 11.44829,-3.026479 6.35589,-9.93e-4 25.60814,4.727872 58.94749,14.479072 35.62526,10.419789 47.61101,12.763139 63.14821,12.346159 C 369.50523,106.45414 372,105.32691 372,99.437682 372,89.828265 338.99191,73.257014 304.39509,65.49758 c -14.99946,-3.364107 -34.27448,-4.984146 -43.04845,-3.618165 -3.56175,0.554514 -7.12183,0.760347 -7.91128,0.457407 -3.99509,-1.53306 1.1932,-10.007274 14.03281,-22.920283 13.83544,-13.914532 22.86904,-17.404412 49.03183,-18.942093 11.12499,-0.653856 13.38544,-1.165847 31,-7.021486 35.77438,-11.8925378 35.25607,-11.8057794 71,-11.8846003 29.82361,-0.065766 31.28461,0.020642 38.5,2.2769884 17.75778,5.5530901 38.67329,19.4048799 48.15877,31.8942719 4.32838,5.699129 4.71083,6.688204 5.39308,13.947257 0.40387,4.297218 0.47022,14.600234 0.14744,22.895592 -0.53706,13.802247 -0.85272,15.75452 -3.71889,23 C 487.93299,143.73307 438.21045,206.19943 340,305.35975 229.50292,416.92553 163.64968,472.74179 111.5,499.03304 90.405337,509.66791 88.856788,510.07686 68,510.5207 c -9.625,0.20482 -19.3,0.0314 -21.5,-0.38534 z"
         id="path4162"
         inkscape:connector-curvature="0" />
      <path
         style="fill:#cccccc;fill-opacity:1"
         d="M 47,510.13008 C 41.07891,508.82314 36.772619,506.00442 29.89477,498.93369 13.543989,482.12437 3.9366892,460.5732 1.8395527,436 0.17718811,416.52125 1.4600172,384.92636 4.5241219,369.88156 7.8332045,353.63392 13.948429,332.53643 19.361702,318.69199 c 5.167849,-13.21676 14.778255,-32.73333 17.045008,-34.61457 1.768516,-1.46773 11.39263,-0.3159 53.09329,6.35435 55.9933,8.95643 81.85159,8.57293 83.31346,-1.2356 0.7166,-4.80812 -13.2302,-16.28394 -28.18944,-23.19507 -18.90016,-8.73181 -35.25764,-12.78515 -55.12402,-13.65958 -12.406272,-0.54606 -14.955831,-0.3678 -22.396434,1.56596 -4.618038,1.20019 -11.076719,3.512 -14.352623,5.13735 -8.837109,4.38454 -9.154818,4.24176 -8.443968,-3.79483 0.786051,-8.88678 4.233309,-22.19853 7.793854,-30.09633 8.090745,-17.94645 18.932995,-27.44744 50.317691,-44.09306 l 11.91852,-6.32127 11.58148,0.52031 c 12.59071,0.56564 24.64407,3.35532 68.08148,15.75705 54.67109,15.60904 76.11324,18.84961 85.7891,12.96536 6.39951,-3.89178 5.48205,-10.15455 -2.63427,-17.98206 -13.67416,-13.18758 -43.66935,-26.25594 -78.27142,-34.10145 -12.97287,-2.94141 -16.00152,-3.26766 -30.88341,-3.32682 -15.64032,-0.0622 -16.8483,0.0739 -23.18504,2.61208 -8.5474,3.42362 -9.41149,2.72181 -7.82594,-6.35624 2.49749,-14.29929 6.86552,-23.48143 15.62535,-32.84638 9.30385,-9.94658 18.02721,-13.932053 46.09407,-21.059199 10.63319,-2.700134 21.48608,-6.000348 24.11754,-7.33381 2.63146,-1.333462 6.35729,-2.719538 8.27962,-3.080168 4.74075,-0.889371 21.32895,2.927511 52.63961,12.112176 43.91005,12.880561 59.29661,15.995821 74.9476,15.174361 9.93795,-0.52161 13.6148,-2.54048 14.12909,-7.75796 0.27511,-2.790983 -0.3868,-3.94876 -4.55382,-7.965228 C 361.63047,85.673554 344.79226,77.241665 326.4163,71.113702 302.90832,63.274323 293.77214,61.651648 272,61.44883 255.64081,61.296436 253.46208,61.084273 253.17228,59.615404 252.71019,57.27326 261.78153,45.389536 269.78225,37.855875 282.16836,26.192809 291.3859,22.820251 315.5,21.128442 c 13.37667,-0.938487 14.87793,-1.275476 33.71821,-7.568769 10.84501,-3.6226022 24.57001,-7.7949253 30.5,-9.2718289 C 390.16452,1.6861194 391.40236,1.6020951 419.5,1.5874653 l 29,-0.0151 9.23709,3.1904309 c 16.8179,5.8087898 28.9321,13.1329698 40.68834,24.5999368 C 509.3516,40.020055 510.32616,42.433049 510.79922,60 511.31829,79.275544 510.2098,86.369451 504.6059,99.634876 484.7282,146.68893 435.19828,208.25554 339.52265,304.83643 227.26246,418.1588 160.44165,474.6177 108.5,500.03436 89.377378,509.39165 86.196956,510.19965 67,510.5777 57.925,510.75641 48.925,510.555 47,510.13008 Z"
         id="path4160"
         inkscape:connector-curvature="0" />
      <path
         style="fill:#cccccc;fill-opacity:1"
         d="M 48,510.12359 C 41.879157,508.77256 36.685829,505.39347 29.883671,498.33602 17.534371,485.52325 9.5075071,470.7395 4.2225333,451.07377 1.7490973,441.86996 1.6493761,440.41801 1.6419318,413.5 1.6333481,382.46161 1.9846604,379.53801 8.9719431,352.5 14.897426,329.57073 23.910286,305.92623 32.751032,290.1175 l 3.574849,-6.39243 8.587059,0.6011 c 4.722883,0.33061 19.61206,2.39509 33.08706,4.58774 42.31985,6.88627 47.25398,7.43547 67.5,7.51317 17.41407,0.0668 19.33388,-0.10159 23,-2.0178 3.21511,-1.68048 4.06183,-2.71517 4.31508,-5.27308 0.2694,-2.72094 -0.47273,-3.95151 -5.11828,-8.48702 -9.98309,-9.74662 -28.11674,-18.69773 -50.19347,-24.77645 -9.47928,-2.61007 -13.28871,-3.10613 -27.50333,-3.58141 -14.905096,-0.49837 -17.269893,-0.34039 -24.464888,1.63438 -4.380688,1.20235 -10.536791,3.5569 -13.680229,5.23233 -3.143437,1.67544 -6.251589,2.71483 -6.907003,2.30976 -2.917884,-1.80335 2.359736,-25.09243 8.662959,-38.22789 7.894369,-16.45129 19.271281,-26.27869 47.749261,-41.24589 l 13.8601,-7.28447 10.1399,0.62621 c 11.81676,0.72977 24.00907,3.59848 72.1399,16.97368 42.7225,11.87226 58.3595,15.08536 70.57323,14.50141 9.76407,-0.46682 13.22922,-2.04812 15.74857,-7.18673 1.16297,-2.37207 1.05785,-3.24127 -0.87485,-7.23369 C 279.74397,185.77395 270.85059,179.17289 253.5,170.53359 224.97745,156.33149 192.91958,148 166.79533,148 c -11.15291,0 -13.97256,0.34571 -20.39007,2.5 -4.09605,1.375 -7.88789,2.5 -8.42631,2.5 -3.06757,0 1.06071,-19.54206 6.14238,-29.07625 1.74374,-3.27159 5.9676,-8.8152 9.38636,-12.31914 9.03794,-9.2631 18.03702,-13.391628 42.97509,-19.715771 10.99053,-2.787132 22.78426,-6.377311 26.2083,-7.978176 C 227.10727,81.845931 230.45657,81 234.21531,81 240.49104,81 257.01505,85.10566 292.5,95.481786 325.9126,105.25194 339.37181,108 353.81054,108 368.59082,108 373,106.13734 373,99.893388 373,95.654203 370.52144,92.428629 363.70939,87.802647 339.09154,71.084989 288.093,57.646803 261.83507,60.958622 250.3762,62.403888 250.3352,60.950571 261.44704,47.204666 271.6707,34.557489 282.62993,26.777887 294.11178,24.017018 296.5253,23.436675 305.7,22.338489 314.5,21.576606 c 15.04659,-1.302698 16.98015,-1.719321 32.44872,-6.991728 9.0468,-3.083568 22.9968,-7.28743 31,-9.3419158 L 392.5,1.5075332 l 27,0.069338 c 26.34435,0.067654 27.21341,0.1345048 35.78832,2.7529592 C 472.22454,9.5015128 488.20933,19.22434 499.75045,31.374139 510.24677,42.424029 510.5,43.204397 510.5,64.5 c 0,21.222064 -0.87568,24.806379 -11.09764,45.42451 C 483.18709,142.63138 453.53391,182.3607 406.04847,235 377.23963,266.93562 304.86236,340.01674 259.09548,383.38207 197.74659,441.51176 144.32032,482.55747 106.52645,500.59603 88.376345,509.25885 84.787674,510.16302 67,510.55477 c -8.525,0.18775 -17.075,-0.006 -19,-0.43118 z"
         id="path4158"
         inkscape:connector-curvature="0" />
      <path
         style="fill:#cccccc;fill-opacity:1"
         d="M 46.792332,509.66289 C 31.234385,505.26018 13.097746,481.0389 5.4869472,454.5 -0.18708117,434.71463 -0.42163671,397.70277 4.9581475,371.05767 8.3260262,354.37717 13.298031,336.5267 18.531455,322.32684 c 4.54163,-12.32281 15.57598,-35.36967 17.816903,-37.21322 2.169516,-1.78479 7.767166,-1.23488 39.769628,3.90694 66.797474,10.73232 91.923064,11.24533 96.882724,1.97812 3.93473,-7.35211 -19.33724,-23.84732 -45.58649,-32.31179 -16.66816,-5.3749 -25.22498,-6.84417 -40.91422,-7.02528 -15.681961,-0.18103 -21.805017,1.06093 -33.725777,6.8407 -8.892325,4.31144 -9.480224,3.65028 -7.283829,-8.19143 2.291918,-12.35672 4.22665,-18.73198 8.14004,-26.82279 8.392575,-17.35137 20.50896,-27.46815 51.729146,-43.19215 l 11.14042,-5.61086 11,1.11493 c 12.78961,1.29632 24.99952,4.19938 64.37036,15.30489 44.0805,12.43397 55.50146,14.97258 70.21159,15.60634 10.73384,0.46246 13.13175,0.28119 16.32489,-1.23406 C 298.6323,195.87957 267.99771,170.87937 218,156.1805 c -20.16863,-5.92939 -35.12434,-8.45711 -50.5,-8.53518 -12.75412,-0.0648 -14.65986,0.16652 -21.41486,2.59892 -4.07818,1.46851 -7.83573,2.4099 -8.35012,2.09199 -1.2774,-0.78947 0.007,-10.28641 2.47526,-18.30056 2.59214,-8.41681 5.83517,-13.89064 12.48521,-21.07348 9.91748,-10.71206 17.48385,-14.224586 46.14646,-21.422501 9.82657,-2.467702 20.74459,-5.848292 24.26227,-7.512421 3.98465,-1.885043 7.99398,-3.025988 10.63517,-3.026479 4.91314,-9.14e-4 33.84568,7.315466 63.08531,15.952831 29.02105,8.5728 42.06912,11.19074 56.6753,11.37124 9.81689,0.12131 12.59915,-0.17639 15.29335,-1.63638 13.66757,-7.406488 -2.1773,-22.040802 -37.49273,-34.62826 C 307.82274,63.692011 292.73487,60.83005 270.5,60.527181 256.5422,60.337058 253.55611,60.045477 253.81357,58.897809 255.04266,53.418946 274.4876,33.039817 282.57486,28.754753 290.0797,24.778287 297.82559,23.096249 314,21.93071 c 13.80312,-0.994663 15.43878,-1.352893 34.033,-7.45365 10.74314,-3.524823 25.36814,-7.8806972 32.5,-9.6797207 l 12.967,-3.2709519 26,0.05454 c 25.30496,0.053082 26.23523,0.1265087 34.79938,2.7467362 C 464.8093,7.5432073 475.13585,12.362462 484,18.188526 492.36263,23.68496 505.06404,36.224177 508.11948,42 c 2.25531,4.26331 2.37942,5.446761 2.35967,22.5 -0.0197,16.978707 -0.17459,18.437614 -2.73045,25.712826 C 494.68172,127.40768 459.16215,176.7356 395.57098,246 361.97317,282.59521 267.03024,376.69608 232.5,407.62471 171.56457,462.20436 122.87061,496.2248 89.413346,507.59338 82.51284,509.93813 79.58013,510.3279 66.5,510.63869 c -10.451302,0.24833 -16.427584,-0.0476 -19.707668,-0.9758 z"
         id="path4156"
         inkscape:connector-curvature="0" />
      <path
         style="fill:#cccccc;fill-opacity:1"
         d="M 48.5,510.12438 C 34.437007,506.42207 18.068193,487.68869 9.5082036,465.5 2.530056,447.41167 1.6047035,441.37757 1.6104725,414 1.6161618,387.00049 2.3570448,380.86832 8.6505544,355.73036 14.726917,331.45974 23.197759,308.97858 33.040783,291 l 3.558661,-6.5 6.450278,0.25817 c 3.547653,0.14199 19.139961,2.27087 34.649575,4.73084 63.311673,10.04182 85.374383,10.88446 93.557073,3.57324 3.90298,-3.48732 3.33521,-6.23534 -2.49238,-12.06306 C 152.94133,265.1762 119.93154,252.75119 90,251.35214 c -11.812825,-0.55215 -14.549267,-0.36504 -21.895756,1.49714 -4.617665,1.17048 -11.51501,3.5659 -15.327432,5.32316 -5.185322,2.39007 -7.123947,2.88392 -7.694843,1.96019 -1.773771,-2.87002 3.448661,-25.1256 8.361334,-35.63213 8.143963,-17.41714 18.089889,-26.0461 48.928747,-42.44998 l 11.87205,-6.315 11.62795,0.55043 c 13.2794,0.62861 20.27195,2.22865 66.77089,15.27848 59.16197,16.60369 78.13184,19.43143 87.59122,13.05675 6.372,-4.29409 6.20141,-10.00553 -0.51805,-17.34375 -11.48929,-12.5473 -40.41241,-26.16787 -72.981,-34.36847 -24.58526,-6.19043 -44.24774,-7.49675 -57.23511,-3.80255 -11.09537,3.15604 -12.5,3.33528 -12.5,1.59506 0,-0.83904 0.64076,-4.87449 1.42391,-8.96765 3.78898,-19.80319 17.10195,-35.88445 35.43027,-42.79759 3.1052,-1.171231 14.05347,-4.30665 24.32949,-6.967598 10.27602,-2.660947 21.82644,-6.217459 25.66761,-7.903359 3.84117,-1.6859 8.48352,-3.050328 10.31633,-3.032061 4.10355,0.0409 32.79199,7.455835 62.89933,16.257227 25.4628,7.443641 38.65989,10.369431 51.07783,11.323951 12.50384,0.96112 19.54361,-0.14892 23.02537,-3.63068 4.3567,-4.3567 3.80436,-7.426636 -2.42106,-13.456428 C 359.35144,82.424946 335.61099,71.804734 310.5,65.469749 293.30125,61.130859 280.48834,59.622981 265.91742,60.223082 255.64743,60.64605 254,60.5013 254,59.17597 c 0,-2.341981 10.53106,-15.583792 17.17577,-21.59691 11.7837,-10.663645 21.22914,-14.025348 43.64151,-15.532347 13.73001,-0.9232 15.08877,-1.22151 34.02491,-7.470012 C 359.69028,10.997076 374.40114,6.6003021 381.533,4.8060931 394.4277,1.5620852 394.63661,1.5439676 419,1.5569075 c 26.21501,0.013923 29.16029,0.4151553 44.03033,5.9982054 13.60311,5.1073741 32.08995,17.7892591 39.65534,27.2033671 7.35385,9.150887 7.81724,10.950773 7.78587,30.24152 l -0.0285,17.5 -3.83282,10 C 491.51745,131.87778 456.404,179.88405 391.06287,250.47357 369.84136,273.39965 288.88811,354.66172 262.46499,379.56202 185.43639,452.15129 128.6401,493.95289 88.5,507.59881 c -6.993648,2.37754 -9.824012,2.75713 -22.5,3.01752 -7.975,0.16382 -15.85,-0.0576 -17.5,-0.49195 z"
         id="path4154"
         inkscape:connector-curvature="0" />
      <path
         style="fill:#cccccc;fill-opacity:1"
         d="M 46.26786,509.10013 C 39.514352,506.59796 36.606349,504.4721 29.402612,496.77103 -2.5154864,462.64938 -7.7516708,405.22445 14.697415,335.5 c 6.777852,-21.05128 19.49808,-49.62408 22.599643,-50.76442 1.898334,-0.69796 15.213163,0.97619 41.702942,5.24354 40.36644,6.5028 48.19928,7.36691 67.5,7.44658 17.43259,0.072 18.14185,-0.005 22.5,-2.43869 3.21147,-1.79341 4.57748,-3.22511 4.7706,-5 1.14018,-10.47928 -26.5084,-27.15726 -59.2706,-35.75276 -8.89786,-2.33445 -11.92875,-2.62971 -27.5,-2.67893 -15.843403,-0.0501 -18.162639,0.16847 -24.5,2.30876 -3.85,1.30024 -8.969179,3.43774 -11.375953,4.75 C 48.717273,259.92633 46.29263,261 45.735952,261 c -1.524136,0 -0.120872,-11.03502 2.78159,-21.87394 6.865253,-25.6375 19.173074,-38.71428 52.942098,-56.24979 l 13.79328,-7.16255 10.62354,0.59767 c 12.1482,0.68345 22.05405,2.97088 63.9939,14.77731 66.26951,18.65542 82.94754,20.83779 92.37964,12.08814 3.81279,-3.53691 3.73283,-8.52 -0.22436,-13.98275 -9.61441,-13.27231 -47.74736,-30.7906 -84.52564,-38.83112 -11.4358,-2.50011 -15.04549,-2.84252 -30,-2.84571 -15.38112,-0.003 -17.50347,0.20998 -22.28702,2.23955 -2.90786,1.23376 -5.72036,2.24319 -6.25,2.24319 -1.40929,0 -1.14973,-6.58255 0.54259,-13.76027 4.26856,-18.10447 17.44879,-32.74734 35.31326,-39.232028 4.57535,-1.660826 15.60035,-4.83958 24.5,-7.063898 8.89964,-2.224318 19.10617,-5.423977 22.68117,-7.110355 4.85137,-2.288459 7.89499,-3.057902 12,-3.033658 6.05322,0.03575 28.79089,5.698955 60.64165,15.103839 34.98023,10.32895 55.59151,13.78809 69.62078,11.68427 8.7539,-1.31273 12.31794,-8.15536 7.65709,-14.700919 C 365.04519,84.232865 334.49571,70.614409 303.5,63.386675 292.97576,60.932581 289.22752,60.560225 273.02156,60.358899 262.85841,60.232643 254.40523,59.715691 254.23671,59.210117 253.74854,57.745609 262.85281,46.051371 269.58156,39.5 281.82879,27.575606 291.87678,23.854062 316.5,22.122473 c 13.14836,-0.924638 14.9788,-1.32257 30.09048,-6.54159 C 365.8074,8.9440653 386.23705,3.5769415 398.53724,1.933823 411.44181,0.20996857 440.09775,1.2772936 450.5,3.8692383 c 19.30128,4.8093307 36.66577,15.0010777 50.18899,29.4574507 9.30484,9.946898 10.62572,14.307003 10.04976,33.173311 -0.42009,13.76029 -0.72516,15.743826 -3.6913,24 -12.98501,36.14345 -43.89204,79.78951 -102.91059,145.32749 C 383.665,258.56076 304.41971,338.8953 269,372.82185 190.67302,447.84686 129.99977,493.09407 88.849598,507.1694 80.408155,510.05678 78.140137,510.40001 65.5,510.70302 c -11.936801,0.28616 -14.771067,0.0499 -19.23214,-1.60289 z"
         id="path4152"
         inkscape:connector-curvature="0" />
      <path
         style="fill:#cccccc;fill-opacity:1"
         d="M 48.5,509.60118 C 41.684238,507.44563 38.04457,505.08161 31.563766,498.6008 17.40212,484.43916 7.5987189,464.6771 3.3389177,441.70413 1.2029006,430.18465 0.93888146,400.45637 2.8575268,387.5 7.48427,356.25618 17.420721,323.67691 30,298.50625 L 36.5,285.5 l 7,0.15433 c 3.85,0.0849 21.4,2.42617 39,5.20287 38.93161,6.14211 49.35221,7.32079 65.5,7.40875 14.29684,0.0779 20.06482,-1.17692 24.13933,-5.25143 2.54112,-2.54113 2.71539,-3.13284 1.74362,-5.92045 -0.59382,-1.70343 -4.00487,-5.77756 -7.58011,-9.05362 -10.21818,-9.3631 -29.85839,-18.5652 -51.3186,-24.04447 -11.20355,-2.86052 -32.010959,-4.45642 -40.637516,-3.11683 -8.058803,1.25142 -18.497482,4.49792 -23.153884,7.20101 C 47.167271,260.41704 45,260.53146 45,258.40708 c 0,-4.237 4.461236,-22.71789 7.038917,-29.15906 7.942619,-19.8472 20.145984,-31.04109 50.874843,-46.66646 14.14922,-7.19475 15.10784,-7.37848 28.76388,-5.51297 9.97044,1.36204 24.37715,4.96154 61.88712,15.46245 47.97803,13.43143 54.54574,14.81933 70.50951,14.9002 13.30134,0.0674 13.64654,0.0137 17.16799,-2.66957 6.76053,-5.1514 5.75933,-11.80201 -3.00548,-19.96427 -14.71763,-13.70585 -44.36743,-26.62067 -78.52106,-34.2021 -23.68679,-5.25799 -40.88398,-5.60559 -54.02734,-1.09204 -8.14429,2.79683 -8.50619,2.43275 -6.75239,-6.79308 2.19904,-11.56797 5.57057,-18.80638 12.755,-27.38399 9.45801,-11.29208 17.89474,-15.376359 47.12862,-22.815299 10.07579,-2.563914 21.10079,-5.977384 24.5,-7.585488 3.64689,-1.725275 7.82009,-2.920435 10.18039,-2.915555 5.24469,0.01084 21.13711,3.692363 41,9.497754 53.06436,15.509288 62.91904,17.709588 80.0055,17.863168 12.25208,0.11013 16.77259,-1.44353 19.27708,-6.62536 4.36525,-9.031744 -14.53044,-22.393333 -46.88098,-33.150658 -21.82779,-7.258259 -36.34121,-9.863304 -55.6514,-9.988987 -11.79418,-0.07676 -16.24985,-0.430546 -16.25,-1.290253 -2.9e-4,-1.714906 10.87388,-15.08425 16.34109,-20.090687 11.60127,-10.623518 20.17829,-13.754066 42.04966,-15.347799 14.72476,-1.07297 15.682,-1.286742 37.63583,-8.40486 12.38973,-4.017137 28.13973,-8.5618044 35,-10.0992595 11.4961,-2.5763915 14.1183,-2.7951997 33.47322,-2.7931603 23.42703,0.00247 30.86571,1.2673039 46.68122,7.937443 17.10719,7.2148988 35.75606,22.5430498 41.39175,34.0212938 2.8423,5.788952 2.92683,6.395715 2.92009,20.961517 -0.007,14.446376 -0.13212,15.362332 -3.39854,24.8171 -12.77075,36.96542 -46.85669,84.55749 -110.42435,154.17862 C 374.98855,267.24204 287.27613,355.46881 258.5,382.47611 179.71616,456.41723 119.86553,499.18775 81.421662,509.02004 72.417378,511.32294 54.920769,511.6318 48.5,509.60118 Z"
         id="path4150"
         inkscape:connector-curvature="0" />
      <path
         style="fill:#cccccc;fill-opacity:1"
         d="M 46.186195,508.29453 C 31.388826,502.3927 15.040404,480.80105 7.726403,457.5 4.5471336,447.37144 2.1320415,433.32959 1.36268,420.5 c -1.3963372,-23.28481 6.5042311,-65.52068 18.185289,-97.21725 4.36569,-11.8463 15.53338,-35.30461 17.626061,-37.02445 1.837981,-1.51051 7.872164,-0.83964 42.82597,4.76135 39.60695,6.34661 48.31485,7.31571 66.5,7.4008 15.39901,0.0721 17.43928,-0.12349 21.66448,-2.07639 8.03833,-3.71535 8.64898,-8.22413 2.09616,-15.47732 -6.46239,-7.1531 -20.73422,-15.65355 -35.97936,-21.4297 -22.95039,-8.69555 -50.469801,-11.81972 -67.06895,-7.61408 -4.558218,1.15489 -11.075208,3.43769 -14.482199,5.07289 -3.406991,1.6352 -6.40455,2.76306 -6.661242,2.50637 -1.031385,-1.03138 2.038354,-16.9283 4.950189,-25.63499 7.51345,-22.466 18.448877,-33.27838 50.478812,-49.91083 C 114.43646,177.13768 114.8545,177 122.31535,177 c 12.65239,0 21.32411,1.99921 80.18465,18.48605 33.13883,9.28219 53.06392,13.50094 63.80718,13.50993 16.64768,0.0139 24.38976,-9.21196 16.67151,-19.86669 -11.79645,-16.28454 -61.13219,-37.01282 -100.41508,-42.18914 -12.56484,-1.65567 -29.52891,-0.79066 -36.95255,1.88423 -3.23892,1.16705 -6.21052,1.92317 -6.60355,1.68026 -0.94204,-0.58221 0.63252,-10.6967 2.64719,-17.00464 2.39856,-7.50992 7.5715,-15.46212 14.04759,-21.59493 10.26819,-9.72389 15.22431,-11.909302 43.06846,-18.991128 10.59892,-2.695707 21.39892,-5.973688 24,-7.284402 2.60109,-1.310715 6.17729,-2.696142 7.94712,-3.078728 5.34573,-1.155589 19.85183,2.329168 66.28213,15.922757 26.16355,7.660011 39.25952,10.416391 53,11.155201 12.97826,0.69783 18.84087,-0.37873 22.61495,-4.15281 9.48573,-9.485726 -9.29578,-24.265986 -46.26153,-36.405898 -23.47062,-7.707978 -33.6995,-9.512322 -54.10302,-9.54361 -9.48728,-0.01455 -17.24978,-0.329484 -17.25,-0.699856 -4.4e-4,-0.741606 5.63662,-8.346073 10.24942,-13.826596 4.43036,-5.263767 13.65336,-12.830853 18.99125,-15.581519 6.82152,-3.5152 15.69308,-5.303792 31.6186,-6.374618 12.72322,-0.855504 15.17448,-1.3527 27.3091,-5.53917 20.46585,-7.060763 35.95071,-11.3389496 51.3174,-14.1780626 12.5996,-2.32787248 15.52758,-2.52633791 29.01383,-1.9666231 16.6293,0.6901597 27.73997,2.77945 40.07249,7.5353722 18.11889,6.9873835 37.55394,22.5286915 43.65605,34.9097195 3.03743,6.162856 3.29527,7.477477 3.6043,18.376666 0.2912,10.2703 0.008,12.868313 -2.2641,20.765788 C 497.75304,120.54229 463.75554,169.26227 397.9286,241.5 c -19.35218,21.23686 -91.48673,94.19713 -124.94904,126.37934 -86.76974,83.45034 -148.55668,128.88697 -191.138833,140.5589 -12.922086,3.542 -26.551271,3.48706 -35.654532,-0.14371 z"
         id="path4148"
         inkscape:connector-curvature="0" />
      <path
         style="fill:#cccccc;fill-opacity:1"
         d="M 46.846494,508.11296 C 39.048226,504.82151 34.374159,501.18821 27.484248,493.06208 14.176726,477.36686 6.2303693,457.89517 2.9730402,433 0.36795873,413.08984 0.38092842,412.7013 4.6420705,383 8.3187821,357.37234 18.890216,322.89055 30.120285,299.89545 l 6.929004,-14.18808 7.725356,0.63082 C 49.02359,286.68514 65.1,288.99666 80.5,291.4749 c 39.34146,6.331 53.11939,7.76831 70.40028,7.34415 12.66929,-0.31097 15.14536,-0.64763 18.72639,-2.54611 6.15669,-3.26397 7.04459,-7.34919 2.91738,-13.42293 -5.69631,-8.38287 -24.08134,-19.09381 -44.43893,-25.88969 C 112.52663,251.75982 101.60802,250 84.920632,250 c -12.088372,0 -14.856198,0.32554 -22.11901,2.60156 -4.565892,1.43085 -9.984088,3.53589 -12.040435,4.67785 -2.056347,1.14196 -4.039938,1.77517 -4.407979,1.40713 -0.946301,-0.9463 2.297543,-16.77007 5.265694,-25.68654 7.07672,-21.25881 19.616171,-33.31009 51.561138,-49.55384 l 13.20959,-6.71696 8.58028,0.55589 c 11.24335,0.72843 25.39017,3.96792 60.04858,13.75059 C 236.22559,205.48937 252.08305,209 266.16311,209 c 8.39269,0 13.6747,-1.55955 17.52137,-5.17331 C 296.61523,191.67888 266.8815,169.08183 219,154.66778 186.77174,144.96591 159.45087,142.90984 143.94986,149.01976 L 139,150.97082 l 0.0174,-2.23541 c 0.0358,-4.61402 2.9358,-15.76025 5.5236,-21.2304 1.47498,-3.11786 4.84884,-8.27282 7.49748,-11.45548 C 161.39008,104.8124 171.52159,100.03446 202,92.488058 209.975,90.513462 219.36302,87.57086 222.86227,85.948942 227.0348,84.014959 230.82938,83 233.88736,83 c 5.91123,0 23.17789,4.21252 51.39694,12.539232 40.50291,11.951358 52.44396,14.457298 68.9006,14.459398 11.30465,10e-4 14.91883,-0.82389 18.5651,-4.23956 2.77541,-2.59988 2.99234,-8.113487 0.46972,-11.938501 C 365.59737,82.262945 328.28336,66.395462 294.59136,60.384492 289.24281,59.430261 279.42759,58.715555 270.75,58.648456 262.6375,58.585728 256,58.218644 256,57.832714 256,56.525393 267.63341,42.523439 271.92121,38.669973 283.22269,28.513273 291.6914,25.512362 314.43092,23.606544 329.79123,22.319184 331.29393,21.992117 348.5,16.191313 376.91361,6.6120279 402.31071,1 417.24793,1 c 9.36854,0 27.03824,2.4386421 36.6471,5.0577655 22.81642,6.2191545 46.35534,23.5449925 53.75907,39.5693985 3.40852,7.377288 3.45883,7.681073 3.09478,18.686021 C 510.52629,71.041807 509.64761,78.090394 508.54404,82 497.33726,121.70189 459.58351,174.71213 387.12252,252.48861 364.47577,276.79665 291.07497,350.43945 263.18817,376.83157 194.19966,442.12242 139.05474,484.38935 101,501.14396 c -15.039379,6.62149 -25.229925,9.24526 -37,9.52644 -9.571415,0.22866 -11.088414,0.002 -17.153506,-2.55744 z"
         id="path4146"
         inkscape:connector-curvature="0" />
      <path
         style="fill:#cccccc;fill-opacity:1"
         d="m 53,510 c 0,-0.55 -0.7875,-1.0044 -1.75,-1.00977 -3.690064,-0.0206 -12.594859,-5.17755 -18.242825,-10.5648 C 10.054685,476.53247 -1.6915462,437.19048 2.8741369,397.5 5.5525115,374.2163 10.564322,352.22516 18.485375,329 23.724562,313.63829 36.105951,287.28031 38.517459,286.35493 40.194713,285.7113 53.08918,287.46094 91,293.47622 c 53.51615,8.49137 77.57518,8.20654 83.60082,-0.98974 2.16184,-3.29938 1.22575,-6.5658 -3.32522,-11.60318 -8.25537,-9.13771 -25.22638,-18.5958 -44.29954,-24.6885 -15.82369,-5.05469 -25.01919,-6.54061 -40.97606,-6.62139 -15.559866,-0.0788 -23.236382,1.48289 -34.224426,6.96239 -2.598435,1.29579 -4.895636,2.04283 -5.104893,1.66009 -0.723977,-1.32418 2.353752,-16.41617 4.902635,-24.04062 7.30815,-21.8608 17.670001,-32.29946 48.298546,-48.65657 L 113.91312,178 l 9.17303,0 c 10.39114,0 22.08843,2.35868 49.83979,10.04984 9.66573,2.67881 26.54134,7.35862 37.50136,10.39957 39.56428,10.97745 58.63177,13.42081 68.80922,8.81738 5.72986,-2.59171 8.38942,-7.11668 7.37162,-12.54204 C 284.49561,183.46402 259.80459,167.81402 227,156.94311 c -34.57415,-11.45731 -63.87165,-14.71365 -80.86672,-8.98812 -3.5017,1.1797 -6.54488,1.96674 -6.76264,1.74898 -0.21775,-0.21775 0.26396,-3.84479 1.07048,-8.06009 2.06426,-10.78894 6.54219,-19.52864 14.12344,-27.56517 9.74901,-10.33447 16.84673,-13.5322 46.49082,-20.945511 8.55546,-2.139524 18.75589,-5.294754 22.66762,-7.011622 C 227.63472,84.40471 232.00515,83 233.43506,83 c 4.83331,0 21.94872,4.181278 47.06494,11.49792 34.6959,10.10731 38.70994,11.19288 49.5,13.38694 26.62235,5.41341 42.76219,3.41352 45.35288,-5.61968 C 377.51634,94.721626 370.51732,87.728737 351.5,78.433208 336.26211,70.985036 318.50964,64.958946 301.01626,61.29646 290.67785,59.131969 285.68864,58.660691 272.34295,58.588002 l -16.15704,-0.088 1.54497,-2.618493 c 2.50652,-4.248179 11.39425,-14.292648 16.61889,-18.781839 10.15566,-8.726095 19.40886,-11.762623 40.09484,-13.157509 14.38798,-0.970202 15.59849,-1.228658 32.5,-6.939068 C 366.2421,10.483167 383.44982,5.846602 395,4.0547193 399.125,3.4147711 404.79843,2.4091597 407.60763,1.8200275 412.68289,0.75566703 416.33845,0.89572006 435.5,2.8886491 459.38162,5.3724971 482.26531,16.19247 497.75672,32.325165 503.47266,38.277719 509,47.196363 509,50.466756 509,51.31004 509.45,52 510,52 c 1.33499,0 1.33499,22.674933 0,23.5 -0.55,0.339919 -1,1.44028 -1,2.445248 C 509,83.670151 499.01817,107.3912 490.25134,122.5 464.23902,167.32975 419.80646,219.82847 338.00783,302.38135 223.68993,417.75336 160.66252,471.14412 107.15132,497.94081 98.388224,502.32908 79.707711,509 76.182368,509 c -1.135384,0 -2.342449,0.45 -2.682368,1 -0.34496,0.55816 -5.010384,1 -10.559017,1 C 56.980328,511 53,510.5996 53,510 Z"
         id="path4144"
         inkscape:connector-curvature="0" />
      <path
         style="fill:#cccccc;fill-opacity:1"
         d="m 53.324765,510.3419 c 0.361954,-0.36195 -1.923327,-1.52958 -5.078403,-2.59473 -7.989105,-2.6971 -14.486851,-7.79296 -21.914834,-17.18669 C 15.836035,477.28744 8.5374038,460.93039 4.8866017,442.5 2.7635102,431.78197 3.057742,393.3807 5.3616477,380.5 10.733213,350.46861 22.571,314.29707 33.67033,294 c 1.954967,-3.575 3.954217,-6.75175 4.442777,-7.05945 1.355873,-0.85393 13.920197,0.69439 40.886893,5.03857 13.475,2.17074 30.125,4.72115 37,5.66757 15.51628,2.13598 45.77279,2.46587 51.15318,0.55771 5.12903,-1.81901 8.84682,-5.53935 8.84682,-8.8529 0,-11.74416 -30.32003,-29.69162 -64,-37.8838 -3.63297,-0.88366 -13.336764,-1.83306 -22,-2.15242 -18.712691,-0.68982 -22.882215,0.14666 -41.900694,8.40605 -3.141869,1.36446 1.942222,-21.02042 7.381943,-32.50216 7.547826,-15.93135 18.014484,-25.22675 44.104656,-39.16918 l 15.605565,-8.33951 10.65426,0.59929 c 12.18628,0.68547 22.47174,3.05916 63.65427,14.69023 67.31541,19.01171 84.58112,21.11888 94.20308,11.49692 15.61465,-15.61465 -25.65028,-42.49355 -86.20308,-56.15041 -10.44971,-2.35679 -14.26084,-2.71548 -29.5,-2.77647 -15.72119,-0.0629 -18.03364,0.1489 -22.75,2.08389 l -5.25,2.15392 0,-2.3547 c 0,-10.29907 6.67998,-25.07227 15.31573,-33.87169 9.40117,-9.57935 15.09294,-12.11741 44.04808,-19.64185 10.3751,-2.696128 21.4001,-6.1385 24.5,-7.649716 4.06712,-1.982737 7.02815,-2.712585 10.63619,-2.621653 6.06794,0.152929 25.10655,4.934601 56.50631,14.19193 12.92847,3.811589 28.90347,8.147869 35.5,9.636159 13.91953,3.1405 33.5446,4.41342 40.17069,2.60555 5.44456,-1.4855 9.323,-6.01146 9.323,-10.879542 0,-10.65049 -28.89183,-26.648162 -64.5,-35.714238 -17.02979,-4.335898 -28.38339,-5.755154 -42.75196,-5.344209 -6.46359,0.18486 -11.75109,0.02809 -11.75,-0.348379 0.004,-1.520959 12.02852,-15.684937 17.08929,-20.130514 10.37182,-9.111002 19.52649,-12.079278 42.09971,-13.650254 13.20985,-0.919335 15.82487,-1.428106 26,-5.058497 16.46343,-5.873996 33.24981,-10.745398 46.59904,-13.5230253 9.90474,-2.0609176 14.519,-2.4385866 29.87595,-2.4452918 11.47867,-0.00501 20.8623,0.508924 25.5,1.3966189 20.38284,3.901446 39.34024,13.8871872 53.45542,28.1574422 C 503.65526,38.666132 509,47.791994 509,51.997092 c 0,1.166518 0.45,1.842827 1,1.502908 0.64398,-0.398003 1,3.378505 1,10.60765 0,6.174126 -0.29886,10.926825 -0.66413,10.561554 -0.36527,-0.365271 -1.65015,3.047229 -2.85529,7.583333 C 498.836,114.79049 470.35483,157.74743 417.14625,218.5 379.67955,261.27878 291.39063,350.50429 240.25816,397.26456 187.50642,445.50564 144.55002,478.1563 111.35829,495.23986 98.211056,502.00665 79.511169,509 74.564334,509 c -1.533601,0 -2.417685,0.42827 -2.064334,1 0.396632,0.64176 -3.045171,1 -9.60765,1 -5.624126,0 -9.929539,-0.29614 -9.567585,-0.6581 z"
         id="path4142"
         inkscape:connector-curvature="0" />
      <path
         style="fill:#cccccc;fill-opacity:1"
         d="m 58.783522,510.2616 c 2.905937,-0.20265 7.405937,-0.20052 10,0.005 2.594063,0.20525 0.216478,0.37104 -5.283522,0.36844 -5.5,-0.003 -7.622415,-0.17053 -4.716478,-0.37317 z m -9.939339,-2.59803 C 42.197777,505.18534 36.333239,501.14503 31.149084,495.47274 2.7083682,464.35407 -3.9619479,418.15055 11.158034,357 c 5.426231,-21.9456 10.52569,-36.35446 19.376632,-54.75 6.888898,-14.31768 7.509512,-15.24989 10.151407,-15.24813 1.54766,10e-4 12.938927,1.59656 25.313927,3.54563 59.31883,9.34274 79.75383,11.4277 93.40081,9.52958 12.90745,-1.79526 19.14978,-6.86851 16.62435,-13.5109 -3.8633,-10.16126 -22.93767,-22.6222 -46.70532,-30.51172 -17.91158,-5.94563 -25.63089,-7.26331 -43.31984,-7.39461 -15.347226,-0.11393 -15.598564,-0.08 -25.5,3.43732 -5.5,1.95381 -10.739015,3.88577 -11.642256,4.29325 -1.513477,0.68277 -1.527908,0.13527 -0.184032,-6.98198 3.501566,-18.54451 9.567298,-31.51864 19.347186,-41.38214 6.785851,-6.84386 15.698191,-12.83477 33.113822,-22.25923 l 13.36528,-7.23262 8.8369,0.23883 c 11.25602,0.3042 22.55405,2.66659 51.73407,10.81746 65.73484,18.36175 70.96004,19.57978 86.56022,20.17777 13.28848,0.50938 17.49534,-0.32121 22.36021,-4.41473 6.31593,-5.3145 4.89758,-13.29372 -3.8454,-21.63311 -10.78041,-10.28277 -28.12568,-19.45146 -51.70149,-27.32936 -34.76041,-11.61525 -65.41536,-15.13872 -82.25352,-9.45419 -3.11974,1.05322 -5.7969,1.79031 -5.94923,1.63797 -0.15233,-0.15233 0.41619,-3.57211 1.26338,-7.5995 3.94876,-18.77175 16.49523,-33.33232 34.32268,-39.83254 3.33723,-1.216814 14.58454,-4.410495 24.99402,-7.09707 10.40949,-2.686575 21.21804,-6.045974 24.01901,-7.465331 C 227.66469,85.149701 231.63016,84 233.74184,84 c 5.1905,0 24.1295,4.712112 52.25816,13.00207 45.90418,13.52868 65.03946,16.89851 78.97997,13.9088 9.35281,-2.00581 14.13827,-8.95963 10.69385,-15.539388 C 370.30355,85.11282 347.83026,73.204227 317.5,64.54518 c -18.87507,-5.388681 -28.30606,-6.854529 -44.74739,-6.955032 -8.11106,-0.04958 -14.74856,-0.251341 -14.75,-0.448355 -0.008,-1.155819 10.93293,-13.796513 15.77034,-18.219666 10.89358,-9.960709 20.14767,-12.888756 45.72705,-14.468297 8.65602,-0.534515 12.32214,-1.407928 27.27804,-6.4987 20.02656,-6.816749 41.2443,-12.3470872 53.87267,-14.0417444 13.57515,-1.82171 37.38627,-0.6041878 49.84929,2.5489193 23.22967,5.8770371 48.00638,22.9176841 55.62575,38.2576561 2.1919,4.41292 2.36948,5.932076 2.31218,19.780039 -0.0565,13.657077 -0.30788,15.716226 -2.80767,23 -17.75443,51.73214 -79.20028,127.39644 -199.77293,246 C 211.14935,426.66128 153.47495,474.06896 107.5,496.54738 c -19.935607,9.74707 -26.460463,11.62535 -42,12.09033 -9.351616,0.27983 -14.025987,0.006 -16.655817,-0.97414 z M 510.37407,63.5 c 0.002,-6.05 0.16696,-8.396069 0.36601,-5.213487 0.19905,3.182582 0.1972,8.132582 -0.004,11 C 510.53467,72.153931 510.37181,69.55 510.37407,63.5 Z"
         id="path4140"
         inkscape:connector-curvature="0" />
    </g>
  </g>
</svg>
