<?xml version="1.0" encoding="UTF-8" standalone="no"?>
<svg
   xmlns:dc="http://purl.org/dc/elements/1.1/"
   xmlns:cc="http://creativecommons.org/ns#"
   xmlns:rdf="http://www.w3.org/1999/02/22-rdf-syntax-ns#"
   xmlns:svg="http://www.w3.org/2000/svg"
   xmlns="http://www.w3.org/2000/svg"
   xmlns:sodipodi="http://sodipodi.sourceforge.net/DTD/sodipodi-0.dtd"
   xmlns:inkscape="http://www.inkscape.org/namespaces/inkscape"
   id="Layer_1"
   version="1.1"
   viewBox="0 0 419.85596 248"
   xml:space="preserve"
   inkscape:version="0.91 r13725"
   sodipodi:docname="car_grey.svg"
   width="419.85596"
   height="248"><metadata
     id="metadata19"><rdf:RDF><cc:Work
         rdf:about=""><dc:format>image/svg+xml</dc:format><dc:type
           rdf:resource="http://purl.org/dc/dcmitype/StillImage" /><dc:title></dc:title></cc:Work></rdf:RDF></metadata><defs
     id="defs17" /><sodipodi:namedview
     pagecolor="#ffffff"
     bordercolor="#666666"
     borderopacity="1"
     objecttolerance="10"
     gridtolerance="10"
     guidetolerance="10"
     inkscape:pageopacity="0"
     inkscape:pageshadow="2"
     inkscape:window-width="686"
     inkscape:window-height="480"
     id="namedview15"
     showgrid="false"
     fit-margin-top="0"
     fit-margin-left="0"
     fit-margin-right="0"
     fit-margin-bottom="0"
     inkscape:zoom="0.4609375"
     inkscape:cx="205.8"
     inkscape:cy="147.00001"
     inkscape:window-x="0"
     inkscape:window-y="0"
     inkscape:window-maximized="0"
     inkscape:current-layer="Layer_1" /><style
     type="text/css"
     id="style3">
	.st0{fill:#603913;}
</style><g
     id="g5"
     style="fill:#cccccc;fill-opacity:1"
     transform="translate(-50.2,-155)"><circle
       class="st0"
       cx="136"
       cy="358.60001"
       r="44.400002"
       id="circle7"
       style="fill:#cccccc;fill-opacity:1" /><circle
       class="st0"
       cx="366.39999"
       cy="358.60001"
       r="44.400002"
       id="circle9"
       style="fill:#cccccc;fill-opacity:1" /><path
       class="st0"
       d="M 469,331.4 450.3,275.3 C 444.7,258.4 428.9,247 411.1,247 l -329.9,0 c -17.1,0 -31,13.9 -31,31 l 0,49.6 c 0,17.1 13.9,31 31,31 0,-30.2 24.5,-54.8 54.8,-54.8 30.3,0 54.8,24.5 54.8,54.8 l 120.9,0 c 0,-30.2 24.5,-54.8 54.8,-54.8 30.2,0 54.8,24.5 54.8,54.8 l 28.2,0 c 14,0 23.9,-13.9 19.5,-27.2 z m -30.4,-38.7 c -8.8,4.2 -19.2,0.4 -23.4,-8.3 -4.2,-8.8 -0.4,-19.2 8.3,-23.4 8.8,-4.2 23.8,27.5 15.1,31.7 z"
       id="path11"
       style="fill:#cccccc;fill-opacity:1"
       inkscape:connector-curvature="0" /><path
       class="st0"
       d="M 305.5,173.6 C 295.7,161.8 281.1,155 265.8,155 L 146,155 c -10.4,0 -19.2,7.8 -20.5,18.1 l -9.1,73.8 250.1,0 -61,-73.3 z m -97.2,63 -68.2,0 6.2,-55.8 62,0 0,55.8 z m 19.7,-55.8 50.6,0 43.4,55.8 -94,0 0,-55.8 z"
       id="path13"
       style="fill:#cccccc;fill-opacity:1"
       inkscape:connector-curvature="0" /></g></svg>