<?xml version="1.0" encoding="UTF-8" standalone="no"?>
<!-- Created with Inkscape (http://www.inkscape.org/) -->

<svg
   xmlns:dc="http://purl.org/dc/elements/1.1/"
   xmlns:cc="http://creativecommons.org/ns#"
   xmlns:rdf="http://www.w3.org/1999/02/22-rdf-syntax-ns#"
   xmlns:svg="http://www.w3.org/2000/svg"
   xmlns="http://www.w3.org/2000/svg"
   xmlns:sodipodi="http://sodipodi.sourceforge.net/DTD/sodipodi-0.dtd"
   xmlns:inkscape="http://www.inkscape.org/namespaces/inkscape"
   width="128.16411mm"
   height="144.03154mm"
   viewBox="0 0 454.12479 510.34797"
   id="svg4170"
   version="1.1"
   inkscape:version="0.91 r13725"
   sodipodi:docname="chicken_grey.svg">
  <defs
     id="defs4172" />
  <sodipodi:namedview
     id="base"
     pagecolor="#ffffff"
     bordercolor="#666666"
     borderopacity="1.0"
     inkscape:pageopacity="0.0"
     inkscape:pageshadow="2"
     inkscape:zoom="0.35"
     inkscape:cx="-147.9376"
     inkscape:cy="152.31685"
     inkscape:document-units="px"
     inkscape:current-layer="layer1"
     showgrid="false"
     fit-margin-top="0"
     fit-margin-left="0"
     fit-margin-right="0"
     fit-margin-bottom="0"
     inkscape:window-width="1920"
     inkscape:window-height="1017"
     inkscape:window-x="-8"
     inkscape:window-y="-8"
     inkscape:window-maximized="1" />
  <metadata
     id="metadata4175">
    <rdf:RDF>
      <cc:Work
         rdf:about="">
        <dc:format>image/svg+xml</dc:format>
        <dc:type
           rdf:resource="http://purl.org/dc/dcmitype/StillImage" />
        <dc:title></dc:title>
      </cc:Work>
    </rdf:RDF>
  </metadata>
  <g
     inkscape:label="Layer 1"
     inkscape:groupmode="layer"
     id="layer1"
     transform="translate(-101.50903,-174.33107)">
    <g
       transform="translate(72.243787,173.65162)"
       id="g4138"
       style="fill:#cccccc;fill-opacity:1">
      <path
         style="fill:#cccccc;fill-opacity:1"
         d="m 218,510.34123 c -1.375,-0.2812 -3.77871,-1.71052 -5.34158,-3.17625 -7.2973,-6.84377 -8.7623,-16.96424 -3.72659,-25.74377 4.49383,-7.83478 16.52732,-18.44721 26.54368,-23.40908 L 244,453.7893 l 0,-10.32269 0,-10.3227 -5.75,-0.67467 c -10.93238,-1.28274 -26.80716,-4.58842 -41.55166,-8.65249 -14.59603,-4.02315 -19.68263,-6.41511 -18.32237,-8.61607 0.80039,-1.29505 2.95743,-1.66661 18.39538,-3.16868 58.1462,-5.65746 99.90535,-42.15609 115.70444,-101.12881 3.42145,-12.77111 3.14225,-13.99245 -0.93559,-4.09266 -11.18904,27.16368 -29.62604,50.52684 -51.41759,65.15579 C 239.81754,385.59737 210.28807,394 182.68938,394 c -25.2416,0 -44.73994,-5.29987 -62.2819,-16.92893 C 102.3105,365.07408 89.08427,350.04549 73.464754,323.73139 64.390959,308.44482 58.448143,301.68957 48.879305,295.78491 45.122648,293.46678 41.814604,290.95925 41.528096,290.21262 40.09827,286.48655 50.396836,277.11379 59.513215,273.8443 63.080947,272.56477 66,271.20902 66,270.83152 c 0,-1.38299 -5.606284,-5.03291 -13.948027,-9.08074 -13.366285,-6.48598 -14.374603,-8.03586 -9.120825,-14.01958 3.921703,-4.46657 11.399203,-8.4034 19.956471,-10.50687 l 7.029043,-1.72782 -6.689599,-4.99825 C 51.270784,221.5649 39.665237,203.622 33.524734,184.57658 30.39678,174.8749 28.623875,159.95032 29.480336,150.53024 c 1.450088,-15.94928 4.13915,-16.49447 17.040513,-3.45489 36.23697,36.62521 83.833371,57.86222 149.300041,66.61611 18.43408,2.46491 55.4213,2.43119 63.62683,-0.058 8.72123,-2.64564 17.17716,-7.16719 24.68235,-13.19813 C 299.1808,188.34101 309.46474,169.3787 324.499,126 335.05858,95.532201 341.64878,80.482394 349.95517,67.866578 l 4.71319,-7.158418 -3.24707,-4.825129 c -4.4816,-6.659627 -5.77734,-11.144276 -5.10423,-17.666097 1.4571,-14.117979 15.06169,-24.54074 29.56258,-22.648512 4.52688,0.590715 4.6601,0.528236 6.58464,-3.08825 1.08036,-2.03014 3.71841,-5.1926254 5.86233,-7.027746 4.5588,-3.902156 10.86994,-5.09273463 21.1566,-3.9911271 5.81897,0.6231584 6.97448,1.1446804 11.44825,5.1669892 2.73682,2.4606296 5.5215,5.9823559 6.18819,7.8260579 l 1.21217,3.352186 8.08409,-0.107435 c 6.44179,-0.08561 8.8967,0.321742 12.08409,2.005152 C 456.95379,24.169088 461,31.062453 461,41 c 0,7.071117 -1.5213,11.246256 -5.92553,16.262402 l -3.17572,3.616948 2.56862,4.06896 c 3.75705,5.951549 6.12349,12.57034 7.5267,21.05169 1.47597,8.92119 1.79342,9.583345 8.4819,17.69211 2.85688,3.46352 6.44251,8.84644 7.96807,11.96204 3.37707,6.89688 6.01898,20.61218 4.51259,23.42688 -1.29294,2.41588 -2.27376,2.39996 -9.55008,-0.15508 -8.16949,-2.86867 -20.06595,-3.67056 -24.03156,-1.61986 -8.09509,4.18613 -16.43986,18.6048 -19.00846,32.84413 -2.17947,12.0821 -0.90894,26.07938 5.11547,56.35652 5.44349,27.35757 6.87366,39.99141 6.90453,60.99326 0.023,15.63201 -0.36679,21.84491 -1.78468,28.44742 -6.22843,29.0033 -19.95581,52.92526 -40.60185,70.7547 -25.82795,22.30442 -60.44512,37.88421 -98.26362,44.22451 -6.46999,1.08469 -12.20749,2.2465 -12.75,2.58179 C 288.44387,433.84371 288,438.54152 288,443.94799 l 0,9.82996 7.53108,3.5765 c 12.54585,5.95799 23.91589,15.85463 28.55622,24.85571 2.75728,5.34844 2.5873,15.05258 -0.35375,20.19582 -3.34163,5.84377 -6.50834,7.72598 -14.01185,8.32829 -11.67103,0.93684 -15.32131,-0.15559 -21.57129,-6.45571 -7.35001,-7.40896 -12.52583,-9.62986 -22.21766,-9.53342 -9.84406,0.098 -13.97459,1.90059 -21.58044,9.41805 l -6.1477,6.07624 -8.8523,0.30654 C 224.48354,510.71456 219.375,510.62243 218,510.34123 Z M 438.8,94.8 c 0.66,-0.66 1.2,-2.595 1.2,-4.3 0,-1.705 -0.54,-3.64 -1.2,-4.3 -2.80098,-2.800976 -9.8,-0.13529 -9.8,3.732481 0,4.733348 6.63745,8.030072 9.8,4.867519 z"
         id="path4152"
         inkscape:connector-curvature="0" />
      <path
         style="fill:#cccccc;fill-opacity:1"
         d="m 218.3682,509.91185 c -7.39365,-2.14311 -13.60982,-14.09578 -11.37793,-21.87791 2.9332,-10.22749 15.49671,-22.85695 29.21297,-29.36633 L 244.98505,454.5 244.74252,443.50447 244.5,432.50894 l -6,-0.75258 c -14.74316,-1.84924 -36.70646,-6.77688 -50.80404,-11.39831 -5.96058,-1.95397 -7.729,-2.94802 -7.48634,-4.20817 0.25917,-1.34586 2.61855,-1.87761 12.80405,-2.88575 15.33948,-1.51826 25.43527,-3.52864 36.49636,-7.26752 38.66175,-13.0685 65.52205,-41.20989 80.33364,-84.16511 7.10937,-20.61796 9.91142,-38.85744 3.26887,-21.27817 -16.10085,42.61031 -44.88232,72.25249 -82.29657,84.75766 -17.47143,5.83957 -26.66115,7.19018 -48.81597,7.17448 -17.87541,-0.0127 -21.62755,-0.30007 -29.30698,-2.24478 -19.50209,-4.93865 -35.54818,-14.188 -50.52185,-29.12203 C 92.481803,351.45495 84.591048,340.74462 72.982425,321.5 64.488602,307.41906 60.248445,302.67318 49.566584,295.29139 c -3.813378,-2.63526 -7.102956,-5.32262 -7.310172,-5.97191 -0.545197,-1.7083 6.389813,-9.03375 11.159945,-11.78824 2.246003,-1.29694 6.001487,-2.91987 8.345518,-3.60651 6.831152,-2.00104 7.014423,-3.21536 1.064836,-7.05544 C 59.955614,265.01618 53.982565,261.7 49.553268,259.5 c -9.403449,-4.67063 -10.275672,-6.4687 -5.678014,-11.70514 3.767229,-4.29064 12.080681,-8.39714 20.625965,-10.18838 7.817285,-1.63864 8.424965,-2.05453 5.334427,-3.65082 -14.498157,-7.4884 -29.242455,-28.71268 -36.44042,-52.45566 -2.429359,-8.01341 -2.737597,-10.66015 -2.811841,-24.14438 -0.07465,-13.5586 0.116087,-15.36485 1.821603,-17.25 C 33.452731,138.94753 34.746845,138 35.280796,138 c 0.533952,0 6.426708,5.31318 13.095013,11.80707 18.382312,17.9015 31.346763,27.10832 53.124191,37.72659 33.14464,16.16071 69.39755,25.32856 113.04602,28.58772 20.94771,1.56413 41.51958,0.14338 50.51105,-3.48844 9.99587,-4.03751 17.03616,-8.75437 24.92752,-16.70095 C 302.68397,183.14373 310.76821,167.21665 324.97299,127 337.23551,92.282293 343.33797,78.494697 351.64098,66.747685 353.48844,64.133912 355,61.476388 355,60.842076 c 0,-0.634312 -1.14804,-2.658447 -2.55119,-4.498078 -6.18133,-8.104139 -7.20131,-17.434509 -2.85858,-26.149226 4.85207,-9.736843 14.54118,-15.003923 25.35087,-13.780946 l 5.72191,0.647361 3.08334,-4.960051 c 1.69584,-2.7280283 5.00129,-6.2292955 7.34546,-7.7805937 C 394.93498,1.7772573 396.19666,1.5 403.92697,1.5 c 7.19432,0 9.16486,0.3680094 12.2531,2.2883418 4.55892,2.8348252 8.99179,7.7981332 10.74499,12.0307432 l 1.32983,3.210499 6.12256,-0.624062 c 7.63356,-0.778077 13.00515,0.622175 17.90157,4.666527 5.52396,4.562692 8.00622,10.08939 8.05086,17.925112 0.0404,7.097255 -1.35043,10.678776 -6.36502,16.390077 l -2.99773,3.414234 3.50019,5.875801 C 457.81716,72.30067 462,85.654577 462,90.725704 c 0,3.230187 1.39535,5.688446 7.17933,12.648176 6.95159,8.36471 9.54025,13.20975 11.81968,22.12225 2.35556,9.21013 2.53146,13.36308 0.59745,14.10523 -0.77195,0.29622 -4.48445,-0.41682 -8.25,-1.58455 -8.88432,-2.75509 -18.03327,-3.60531 -22.59508,-2.09977 -4.81212,1.58814 -12.23787,9.75586 -15.78266,17.35963 -4.671,10.01955 -6.28313,17.90172 -6.18155,30.22333 0.0879,10.66725 0.86622,16.03814 7.67998,53 9.87758,53.58179 6.72378,86.93837 -11.15667,118 -22.21253,38.58726 -69.3484,67.06334 -125.81048,76.00559 -6.6688,1.05617 -10.4164,2.13222 -11.25,3.23021 -0.7915,1.04254 -1.25,5.04347 -1.25,10.90761 l 0,9.26115 8.43191,4.11943 c 14.48347,7.07592 26.98215,19.37257 29.6099,29.13127 1.71502,6.36912 -0.34621,14.14914 -4.97503,18.77796 C 316.17106,509.82894 312.80432,511 305.5,511 c -7.77453,0 -10.14371,-1.03314 -16.57237,-7.2268 -8.10566,-7.80936 -12.38656,-9.72321 -21.81161,-9.75124 -10.75861,-0.032 -14.51181,1.44342 -22.25627,8.74915 -3.68688,3.47802 -8.19812,6.75234 -10.02498,7.27628 -4.05094,1.16179 -12.22286,1.09453 -16.46657,-0.13554 z M 438.77749,95.443296 C 440.26523,94.401243 441,92.856912 441,90.772037 c 0,-6.569045 -6.94594,-9.198813 -10.92742,-4.137178 -2.68527,3.413763 -2.61274,4.915894 0.38197,7.910596 2.8378,2.837807 5.19085,3.091643 8.32294,0.897841 z"
         id="path4150"
         inkscape:connector-curvature="0" />
      <path
         style="fill:#cccccc;fill-opacity:1"
         d="m 219.27722,509.88827 c -4.23723,-1.22451 -10.0089,-7.26252 -11.26515,-11.78498 -1.68412,-6.0628 -1.16504,-10.30387 1.91926,-15.6812 5.51379,-9.61304 14.64503,-17.56793 27.47811,-23.9382 l 8.09056,-4.01611 0.28679,-10.39711 c 0.15773,-5.7184 -0.0777,-10.76157 -0.52316,-11.20704 -0.44547,-0.44547 -5.97452,-1.52898 -12.28679,-2.40781 -11.90796,-1.65788 -42.67783,-9.05057 -49.45314,-11.88147 -5.74402,-2.40001 -3.37156,-3.69803 8.66258,-4.73948 42.54914,-3.68224 73.7283,-19.77933 96.47319,-49.8069 13.95202,-18.41932 26.86458,-50.73696 29.77776,-74.52797 0.78996,-6.45143 -0.56194,-4.38349 -4.05238,6.1987 -3.84436,11.6552 -11.66456,27.52918 -18.96285,38.49206 -20.63944,31.00286 -49.48895,49.55053 -87.922,56.52605 -11.36929,2.0635 -37.12807,2.28607 -47.5,0.41043 -22.10417,-3.99729 -39.09346,-12.67263 -55.68907,-28.43683 C 95.037125,353.8812 85.849624,341.67538 74.909135,323.62941 64.656102,306.71737 60.069154,301.43173 50.434493,295.42671 45.667784,292.45575 43,290.14846 43,288.99684 43,285.86557 53.219763,277.52994 60.160601,274.99999 63.64727,273.72909 66.95,272.27217 67.5,271.76239 69.060639,270.31586 62.640961,265.50703 52.294184,260.37206 41.8213,255.1745 40.413336,253.95402 41.84455,251.31392 43.396117,248.45181 48.140626,244.36318 52.5,242.13148 56.589194,240.0381 67.039526,237 70.151082,237 c 3.361281,0 2.871862,-1.94765 -0.98369,-3.9146 -14.14112,-7.21426 -29.641506,-30.49 -35.614823,-53.48005 C 31.459161,171.54826 31,167.47398 31,156.95562 31,143.2209 31.8809,139 34.747327,139 c 0.988256,0 5.611894,3.86177 10.274751,8.58171 C 82.896451,185.91976 132.91823,207.57797 202,215.5493 c 10.8079,1.24712 19.46524,1.54575 34,1.17283 21.55859,-0.55314 25.47257,-1.33645 37.5,-7.50487 9.58056,-4.91351 24.30984,-19.71559 30.42426,-30.57463 C 309.51093,168.72087 318.04471,148.27058 325.47442,127 336.7439,94.736507 344.09553,78.247403 352.44679,66.503197 354.40106,63.754956 356,61.17135 356,60.761851 c 0,-0.4095 -1.5216,-2.737955 -3.38134,-5.174345 -8.00148,-10.482502 -6.75687,-23.990905 2.9997,-32.557282 C 360.96559,18.335289 364.91528,17 373.45534,17 l 7.51957,0 2.44288,-3.869773 c 5.51312,-8.7333445 13.74612,-12.85311708 23.41834,-11.7184835 8.68488,1.0188103 14.53268,5.2267325 19.46361,14.0054915 l 2.20026,3.917235 7.53005,-0.226108 c 8.74593,-0.262617 11.36007,0.539245 16.51584,5.066073 4.85279,4.260808 7.40452,9.962833 7.43215,16.607684 0.0261,6.278894 -1.61008,10.590264 -5.85294,15.422624 -1.71881,1.957608 -3.1251,4.05562 -3.1251,4.662249 0,0.60663 1.30533,3.247223 2.90073,5.867985 3.61635,5.940583 5.74266,12.21929 7.10303,20.974273 0.71821,4.622192 1.92394,7.972009 3.7757,10.489813 1.4963,2.034487 4.88682,6.631957 7.53449,10.216607 5.61885,7.60729 8.71172,15.58009 9.43995,24.33433 0.50485,6.06883 0.45073,6.24963 -1.86699,6.2371 -1.3128,-0.007 -5.2395,-0.9071 -8.726,-2 -7.55813,-2.36923 -18.99162,-2.64312 -23.03572,-0.55184 -7.46288,3.85921 -15.82416,17.95995 -18.73773,31.59992 -1.19738,5.60561 -1.44417,10.32905 -0.99086,18.96482 0.58328,11.11177 1.42619,16.68759 6.99704,46.28472 6.30795,33.51325 7.80838,62.62646 4.17977,81.10082 -6.11002,31.10802 -21.19348,56.17244 -45.43962,75.50777 -24.5212,19.55467 -57.48564,33.81815 -91.50448,39.59332 -7.62888,1.29511 -14.28235,2.76641 -14.7855,3.26956 -0.50315,0.50315 -0.78634,5.76763 -0.62931,11.69885 l 0.2855,10.78404 4.97092,1.95053 c 11.38753,4.46834 25.84846,16.63561 30.41865,25.59393 5.03325,9.86599 0.40831,23.50759 -9.20467,27.14985 -3.53035,1.33761 -12.71779,1.3848 -16.14203,0.0829 -1.42303,-0.54104 -5.68214,-3.89033 -9.46469,-7.44288 -8.32003,-7.81411 -14.6479,-10.18295 -24.69532,-9.24471 -8.6612,0.80879 -12.53712,2.69294 -19.71142,9.58206 -3.41564,3.27986 -7.46831,6.4417 -9.00594,7.02631 -3.338,1.2691 -10.91099,1.24508 -15.38828,-0.0488 z M 439.87162,95.654692 C 443.90968,90.78912 441.01531,83.666667 435,83.666667 c -6.06145,0 -9.2059,7.127429 -5,11.333333 2.31182,2.311824 8.17368,2.700586 9.87162,0.654692 z"
         id="path4148"
         inkscape:connector-curvature="0" />
      <path
         style="fill:#cccccc;fill-opacity:1"
         d="m 218.38391,509.08688 c -5.23625,-2.37787 -9.01276,-7.32641 -10.49641,-13.7539 -1.07799,-4.6701 -0.9667,-5.48024 1.48999,-10.84634 4.13119,-9.02372 14.78805,-18.891 26.88847,-24.89629 L 246,454.75947 l 0,-10.75729 c 0,-7.42858 -0.3868,-11.05353 -1.25,-11.71463 -0.6875,-0.52654 -5.525,-1.49986 -10.75,-2.16295 -16.41209,-2.0828 -51.89868,-11.34721 -52.32299,-13.65986 -0.0974,-0.53061 3.19799,-1.30659 7.32299,-1.72442 24.24828,-2.4561 40.971,-6.70726 56.35996,-14.32751 20.95269,-10.37527 36.52309,-24.34313 49.34464,-44.26596 5.62899,-8.74663 13.71077,-26.50048 17.66096,-38.79715 3.60568,-11.22424 8.06564,-33.02343 7.3983,-36.16108 -0.19754,-0.92874 -2.08214,3.48638 -4.18802,9.81138 -15.95864,47.93173 -45.30174,80.18008 -85.11858,93.54615 -17.04284,5.72109 -25.23687,6.88161 -48.45726,6.86301 -19.94983,-0.016 -22.18579,-0.20309 -31.01148,-2.59509 -18.76458,-5.08569 -31.84277,-12.7158 -46.99254,-27.41649 C 93.088417,350.81335 86.251988,341.71482 74.543863,322.2001 65.711278,307.47823 59.692988,300.71588 49.75,294.3409 46.0375,291.96062 43,289.53095 43,288.94163 43,286.70278 53.07912,278.13722 57.719966,276.43212 67.155902,272.96527 69,272.08657 69,271.0573 c 0,-1.73561 -7.95068,-6.97149 -17.75,-11.68916 -10.567495,-5.08749 -11.204456,-6.34702 -5.894909,-11.65656 4.453545,-4.45355 11.441101,-7.62929 20.894909,-9.49643 4.2625,-0.84185 7.75,-1.8667 7.75,-2.27744 0,-0.41073 -2.388608,-2.09484 -5.308018,-3.74245 -7.035857,-3.97079 -18.125202,-16.02001 -23.631266,-25.67673 -5.656291,-9.9202 -10.817609,-23.65034 -12.765066,-33.95765 -2.010033,-10.63849 -1.434818,-29.85028 0.96561,-32.25071 1.507035,-1.50704 1.900515,-1.42416 5.205083,1.09636 1.966144,1.49965 4.299809,3.83313 5.185923,5.18551 2.700839,4.122 20.256678,19.11381 30.847734,26.34241 29.60311,20.20471 66.25047,33.85653 108.7472,40.51034 30.83562,4.828 57.73762,5.55466 75.05268,2.02727 9.13142,-1.86024 21.11964,-8.41406 29.67664,-16.22387 C 301.10572,187.26542 310.66329,169.66739 323.41313,134 338.34649,92.224228 343.27383,80.71321 351.42774,68.5536 353.94248,64.803461 356,61.265186 356,60.690767 c 0,-0.574419 -1.66784,-3.466029 -3.70631,-6.4258 -3.12434,-4.536399 -3.77074,-6.393154 -4.1166,-11.824731 -0.97139,-15.25535 10.97951,-26.508703 26.54461,-24.995281 l 6.22171,0.604946 2.49694,-3.955405 C 390.32607,3.1868025 399.36422,-0.78028263 410.1715,2.3614783 416.6375,4.2411964 422.13488,8.824066 425.33202,15 l 2.32956,4.5 9.08152,0 c 8.50263,0 9.35749,0.193886 13.41073,3.041591 5.15576,3.622314 8.47597,9.131324 9.35492,15.521998 0.88,6.398416 -0.82248,11.888615 -5.53552,17.851057 l -3.98319,5.03912 3.01836,4.905467 c 3.82025,6.208695 6.62678,14.329657 7.53672,21.808182 0.86713,7.126765 1.89442,9.179601 8.42341,16.832585 6.55081,7.67855 9.69564,14.1627 11.79645,24.32243 2.16952,10.49204 1.70436,11.02063 -7.26121,8.25145 -3.70725,-1.14505 -9.79478,-2.36578 -13.52785,-2.71274 -11.66171,-1.08384 -18.43279,3.73106 -25.50826,18.13886 -8.80448,17.92861 -8.87936,31.68134 -0.41108,75.5 10.22606,52.91419 9.23751,85.07062 -3.50726,114.08707 -11.55589,26.30967 -33.20278,48.70439 -62.57988,64.74179 -18.62164,10.16583 -43.49903,18.57839 -65.79796,22.2503 -16.26532,2.67837 -16.34308,2.75549 -15.95584,15.82406 L 286.5,454.5 l 8.15281,4.10729 c 21.52275,10.84292 32.7962,25.58408 29.35084,38.37917 C 321.65928,505.69277 314.746,511 305.74938,511 c -6.65697,0 -9.27611,-1.31129 -16.8047,-8.41338 -8.68191,-8.19007 -13.11962,-9.92203 -24.11609,-9.41207 -10.1689,0.47158 -14.19232,2.2629 -21.39892,9.5273 -2.91827,2.94168 -6.89433,6.01218 -8.83569,6.82333 -4.77678,1.99587 -11.23436,1.82126 -16.21007,-0.4383 z M 439.36514,95.92742 c 5.17162,-4.067998 2.33084,-12.970163 -4.11514,-12.895617 -3.18565,0.03684 -5.42109,1.525445 -7.14206,4.75597 -1.54591,2.901917 -0.69088,5.608526 2.58603,8.186142 3.26504,2.568279 5.36131,2.557039 8.67117,-0.0465 z"
         id="path4146"
         inkscape:connector-curvature="0" />
      <path
         style="fill:#cccccc;fill-opacity:1"
         d="m 219.5,509.34115 c -7.47978,-3.93628 -11.5,-10.02182 -11.5,-17.4079 0,-6.22687 2.56996,-10.61733 11.44035,-19.54441 6.59906,-6.64123 9.69066,-8.89354 17.05965,-12.42838 4.95,-2.37448 9.33061,-4.79946 9.73469,-5.38885 1.28339,-1.87195 0.87992,-20.03939 -0.48469,-21.82484 -0.83278,-1.08959 -4.08712,-2.00998 -9.75,-2.75748 -10.37993,-1.37015 -27.86191,-5.07652 -39.87199,-8.4533 -17.45518,-4.90773 -17.94604,-5.90349 -3.41168,-6.92096 19.06395,-1.33456 37.24377,-6.13183 53.36812,-14.08269 11.95499,-5.89497 20.00627,-11.58888 29.97388,-21.19768 22.36891,-21.56369 37.27217,-52.59218 43.39524,-90.3486 C 321.26387,277.82334 321.30405,277 320.03854,277 c -0.5288,0 -1.46397,1.9125 -2.07815,4.25 -11.39162,43.35497 -37.82056,79.2978 -70.30486,95.61321 -34.94451,17.55106 -82.46977,19.90983 -113.38226,5.62739 C 115.78434,373.94818 98.306454,358.04214 84.836675,337.5 80.148318,330.35 74.12135,320.9 71.443413,316.5 65.244154,306.31427 59.410859,300.07032 51.321249,294.96127 c -3.530878,-2.22995 -6.682135,-4.73815 -7.002795,-5.57378 -1.314335,-3.4251 9.408781,-11.62275 19.431546,-14.85509 7.41544,-2.39149 7.031728,-4.287 -2,-9.87984 -3.9875,-2.46924 -9.926825,-5.76371 -13.198499,-7.32104 -3.271675,-1.55734 -6.132085,-3.42525 -6.356468,-4.15092 -0.224383,-0.72567 1.646248,-3.28769 4.156957,-5.69337 3.574223,-3.42471 6.321342,-4.92882 12.658089,-6.9306 C 63.46132,239.15048 68.16821,238 69.469834,238 72.465723,238 75,237.04376 75,235.91334 c 0,-0.47998 -1.9125,-1.8378 -4.25,-3.01738 C 64.129208,229.55489 56.332566,222.39588 50.837896,214.61233 36.846758,194.79298 30.153201,172.14827 31.886911,150.5 32.54288,142.30913 33.277483,140 35.227278,140 c 0.610084,0 6.321026,5.09718 12.690983,11.32707 16.252863,15.89548 31.95016,27.13851 51.581739,36.9449 38.66211,19.31255 91.61928,30.6906 137,29.43497 24.61977,-0.6812 32.39982,-3.01518 47.24234,-14.1725 16.54478,-12.43694 26.45595,-30.44235 43.71765,-79.42092 9.7487,-27.661076 15.41942,-40.928251 21.80871,-51.02348 2.87721,-4.546069 5.87669,-9.294169 6.6655,-10.551334 1.32201,-2.106943 1.18413,-2.601492 -1.76249,-6.321904 -6.41039,-8.093773 -7.68934,-16.415761 -3.80484,-24.757667 4.37638,-9.398224 11.39515,-13.449259 23.35101,-13.477549 l 7.78212,-0.01841 3,-4.731586 c 3.40329,-5.3676538 10.89543,-10.83994 16.20468,-11.8359615 8.35979,-1.56830727 20.60241,5.5691889 24.46095,14.2608375 l 1.84521,4.156462 9.90445,0.343538 c 9.29768,0.322492 10.1397,0.530874 13.74458,3.401504 C 455.92648,27.751867 459,34.0853 459,40.744012 c 0,6.327781 -1.63581,10.632674 -5.8749,15.460735 C 451.40629,58.162355 450,60.27607 450,60.901891 c 0,0.625821 1.1331,2.9328 2.518,5.12662 3.82844,6.064644 6.40174,13.350169 7.62836,21.597408 0.68631,4.614363 1.91826,8.550454 3.2314,10.324304 1.16723,1.576743 4.31621,5.720467 6.99772,9.208287 6.00222,7.80702 8.46973,13.27311 10.08542,22.34149 1.64107,9.21078 1.03284,9.9223 -6.27138,7.33643 -7.81869,-2.768 -21.80562,-3.60343 -25.79453,-1.54069 -8.48078,4.38558 -16.89343,18.5942 -19.95485,33.70292 -2.28351,11.26957 -1.51498,23.11159 3.12178,48.10273 5.85053,31.53302 7.29396,41.11014 8.56158,56.80578 4.5208,55.97601 -17.1153,99.05239 -64.1235,127.66666 -22.48404,13.68621 -46.83729,22.52604 -75.60904,27.44481 -6.44106,1.10116 -12.31401,2.50253 -13.05099,3.11418 C 286.372,432.93615 286,436.23073 286,444 c 0,11.34804 0.28596,12.11864 5,13.47402 4.55664,1.31013 15.73535,8.43141 21.48692,13.68802 7.84157,7.16676 11.49167,13.78354 11.5037,20.85356 0.0122,7.1638 -2.37155,11.60889 -8.43778,15.7344 -3.86281,2.62701 -5.76358,3.24928 -9.91585,3.24626 -6.16777,-0.004 -10.06907,-2.11426 -17.13699,-9.26747 -7.03906,-7.12401 -12.07136,-9.22188 -22,-9.17139 -10.10045,0.0514 -15.90117,2.49053 -23.5,9.88162 -3.025,2.9423 -6.94015,6.07219 -8.70034,6.95531 -4.03684,2.02536 -10.89684,2.00071 -14.79966,-0.0532 z M 440.08922,96.128841 c 2.90571,-2.352901 3.14256,-8.110253 0.45579,-11.079103 -2.80852,-3.103387 -8.8119,-2.797201 -11.47243,0.585121 -2.74937,3.495256 -2.61773,6.910904 0.38197,9.910596 2.96421,2.964212 7.39435,3.207236 10.63467,0.583386 z"
         id="path4144"
         inkscape:connector-curvature="0" />
      <path
         style="fill:#cccccc;fill-opacity:1"
         d="m 218.86332,508.45786 c -5.42331,-2.72626 -8.32237,-6.40662 -10.00644,-12.70316 -1.04094,-3.89195 -0.96176,-5.19154 0.55885,-9.17322 3.86267,-10.11426 14.15037,-19.72939 28.99349,-27.09801 l 8.09078,-4.01654 0.28184,-11.74611 c 0.32569,-13.57334 0.82343,-12.91875 -10.78184,-14.1795 -12.36399,-1.34317 -46.61013,-9.54487 -51.66399,-12.37316 -1.33851,-0.74906 -0.36655,-1.11136 4.21198,-1.57003 29.07412,-2.91262 45.8983,-7.6407 64.55842,-18.14277 30.8146,-17.34273 53.21621,-49.99621 63.77114,-92.95536 2.73909,-11.14825 4.35992,-22.27151 3.93431,-27 -0.34912,-3.87872 -0.39516,-3.9242 -1.51838,-1.5 -0.63708,1.375 -2.80965,7.9 -4.82793,14.5 -9.37979,30.67294 -28.13492,58.77888 -50.45216,75.60625 -36.199,27.29433 -98.21761,33.39674 -134.94775,13.27839 C 108.21865,367.96603 93.17861,351.77488 74.899099,321.07238 66.565732,307.07555 59.479381,299.18379 50.25,293.62173 46.8125,291.55014 44,289.48293 44,289.02794 44,286.70983 55.294805,278.13847 61.160601,276.00518 64.64727,274.73713 68.175,273.05726 69,272.27213 c 1.322499,-1.25858 1.040319,-1.82921 -2.384616,-4.82216 -2.136538,-1.86706 -8.142136,-5.50761 -13.345773,-8.09011 -5.203637,-2.5825 -9.702587,-5.3246 -9.997666,-6.09357 -0.760389,-1.98154 5.222006,-7.8069 10.642322,-10.36297 2.522153,-1.18938 8.315231,-2.92023 12.873506,-3.84634 4.558275,-0.92611 8.270775,-1.99279 8.25,-2.37041 C 75.016998,236.30896 75,235.61834 75,235.15187 c 0,-0.46646 -1.902237,-1.70396 -4.227192,-2.75 C 64.9858,229.79822 54.909492,220.14555 49.618289,212.13676 43.466769,202.82579 39.764133,195.08206 35.925722,183.5 c -3.170936,-9.56802 -3.316511,-10.67811 -3.369911,-25.69764 -0.03932,-11.06012 0.303637,-16.05778 1.160895,-16.9167 0.956335,-0.9582 3.632195,1.12091 12.504238,9.71561 12.329371,11.94395 22.858635,20.32299 35.393378,28.16553 39.068938,24.44405 95.534098,39.41055 148.885678,39.46322 23.78305,0.0235 30.70998,-1.17278 42.73981,-7.381 6.47162,-3.33979 10.31956,-6.32917 17.77104,-13.80592 14.02959,-14.07715 21.0116,-27.74895 36.28078,-71.0431 11.81485,-33.499785 18.14294,-47.687363 26.37554,-59.133977 4.02554,-5.59712 4.11948,-7.144452 0.68129,-11.221667 -3.80985,-4.517951 -5.49132,-9.167071 -5.49132,-15.183017 0,-6.469786 2.54798,-11.787734 8.01377,-16.725748 4.94993,-4.47197 10.74518,-6.150495 18.28854,-5.297061 5.36063,0.606486 5.78992,0.491658 7.51303,-2.009602 4.78864,-6.9512121 9.64275,-11.3245839 14.96869,-13.4862261 l 5.5763,-2.26325277 6.08515,2.18946887 c 8.01533,2.8839592 11.79681,5.9042898 14.75932,11.788535 1.34093,2.663401 2.83876,5.133163 3.3285,5.48836 0.48974,0.355198 4.31474,0.426293 8.5,0.157989 6.68948,-0.428841 8.15366,-0.195262 12.10956,1.931826 8.19592,4.406947 12.58448,15.166359 10.04013,24.615354 -0.68661,2.549878 -2.85469,6.162265 -5.27315,8.785992 l -4.10713,4.455704 2.23184,3.703661 c 4.5426,7.538292 7.14692,14.485882 8.61474,22.981628 1.57069,9.091185 1.37505,8.719879 11.66159,22.132633 2.65696,3.46445 5.57707,8.8184 6.7781,12.42748 2.38827,7.17676 3.78113,16.66843 2.44317,16.64902 -0.48911,-0.007 -3.70153,-0.89454 -7.13871,-1.97209 -9.7258,-3.04903 -18.36888,-3.62345 -23.72761,-1.57693 -8.26152,3.1551 -16.51233,15.21077 -20.59507,30.09249 -1.94502,7.08965 -2.12102,9.54684 -1.60906,22.46489 0.37222,9.39207 1.48043,19.0867 3.1441,27.50454 7.29634,36.91803 9.53979,54.26805 9.53116,73.71059 -0.0127,28.73332 -6.33244,51.0489 -20.4771,72.30701 -22.5109,33.8318 -68.2315,59.89683 -119.29226,68.00779 -6.20139,0.98508 -12.05139,2.35797 -13,3.05085 -1.38813,1.01392 -1.79119,3.20728 -2.06522,11.23845 -0.19237,5.63803 0.1072,10.81517 0.68869,11.9017 0.56605,1.05766 2.96314,2.56129 5.32687,3.34139 14.35837,4.73869 32.7335,23.19497 32.79738,32.94222 0.0498,7.59242 -4.40216,14.71149 -11.27699,18.03304 -7.93672,3.83461 -13.71308,2.00822 -23.72453,-7.50131 -8.54412,-8.11577 -10.79544,-9.02011 -22.47094,-9.02637 -11.9234,-0.006 -16.59948,1.87478 -24.09096,9.69172 -5.31224,5.54304 -11.34259,8.85268 -15.84687,8.69726 -1.68419,-0.0581 -5.14868,-1.15453 -7.69885,-2.43648 z M 438.92848,97.536985 c 4.85697,-2.511638 5.66338,-9.036034 1.61697,-13.08244 -4.16969,-4.169698 -10.21081,-2.936132 -13.11388,2.677791 -1.97843,3.825863 -0.51744,8.208235 3.45648,10.368022 3.34979,1.820577 4.57981,1.82618 8.04043,0.03663 z"
         id="path4142"
         inkscape:connector-curvature="0" />
      <path
         style="fill:#cccccc;fill-opacity:1"
         d="m 225.75,510.33772 c 0.6875,-0.27741 1.8125,-0.27741 2.5,0 0.6875,0.27741 0.125,0.50439 -1.25,0.50439 -1.375,0 -1.9375,-0.22698 -1.25,-0.50439 z m 77.51375,-0.0553 c 1.52006,-0.22986 3.77006,-0.22371 5,0.0136 1.22994,0.23736 -0.0138,0.42542 -2.76375,0.41792 -2.75,-0.008 -3.75631,-0.20172 -2.23625,-0.43157 z m -85.68873,-3.54887 c -5.48794,-3.12297 -8.87666,-9.6637 -8.29798,-16.01633 0.89527,-9.82817 13.57509,-22.97962 29.28276,-30.37196 4.36711,-2.05525 8.27081,-4.21122 8.67489,-4.79104 1.37854,-1.9781 0.88783,-23.20765 -0.5643,-24.4128 -0.73128,-0.60692 -6.338,-1.80203 -12.45938,-2.65581 -8.9411,-1.24707 -32.39696,-6.50515 -44.96101,-10.07888 -3.68503,-1.04817 -2.55918,-2.4063 2,-2.41263 8.06255,-0.0112 24.2834,-3.00461 35.71455,-6.59083 21.22451,-6.65863 37.02549,-16.15571 52.07849,-31.30144 17.73078,-17.84002 30.68657,-42.06913 38.3694,-71.75607 2.08225,-8.04592 5.52282,-31.3509 4.87691,-33.03411 -1.15781,-3.0172 -3.30695,-1.05023 -4.84939,4.43835 -4.78187,17.0156 -5.95209,20.53653 -9.72157,29.25 -8.86946,20.50252 -19.35397,35.7539 -34.16698,49.70128 -20.78285,19.56835 -46.02329,30.20483 -79.37984,33.45116 -21.455,2.08805 -45.57369,-1.80719 -61.84471,-9.9881 C 110.43597,369.15782 93.746647,351.58649 74.985957,319.79306 67.002183,306.26309 61.816238,300.34375 52.725221,294.38422 48.75135,291.77918 45.30424,289.49377 45.064977,289.30554 44.209582,288.63256 52.566466,280.79676 56,279.05235 c 1.925,-0.978 5.823227,-2.53799 8.662727,-3.46664 2.8395,-0.92866 5.440994,-2.41362 5.781097,-3.29991 1.036134,-2.70013 -4.172883,-6.97612 -15.649989,-12.8468 C 48.857226,256.40235 44,253.29637 44,252.53683 c 0,-2.49412 8.155791,-8.42561 14.478091,-10.52954 3.410431,-1.13492 8.476477,-2.33301 11.257879,-2.66243 8.903654,-1.0545 9.616599,-3.5435 2.062473,-7.20039 C 57.829228,225.38209 43.668689,205.41914 36.228915,182 c -2.453088,-7.7219 -2.701585,-9.93387 -2.714594,-24.16367 -0.0079,-8.61501 0.312499,-15.99183 0.711945,-16.39293 0.399447,-0.4011 6.280839,4.62255 13.069761,11.16367 23.801256,22.93246 48.467614,37.71765 82.508413,49.45612 34.2468,11.80951 70.70832,17.52625 106.49282,16.69683 16.67101,-0.3864 21.28208,-0.82094 26.37695,-2.48569 10.80356,-3.53008 19.18835,-8.94993 28.90116,-18.68147 C 304.75523,184.38759 312.31503,170.17973 324.88012,135 339.96426,92.767463 345.23552,80.494844 353.33958,68.740284 355.90281,65.02244 358,61.313834 358,60.498937 c 0,-0.814897 -1.56254,-3.528672 -3.47231,-6.030611 -7.10293,-9.305343 -6.90629,-19.348456 0.54458,-27.81309 5.27805,-5.996182 10.815,-8.098647 19.49358,-7.402013 5.74935,0.461502 6.80092,0.269467 8.49772,-1.551834 C 384.12861,16.558207 385,15.273388 385,14.846235 c 0,-1.68589 6.52118,-8.0714731 10.11548,-9.9051493 9.28565,-4.73718568 21.80188,-0.6549308 27.60117,9.0023123 1.76916,2.946084 3.38188,5.851536 3.58382,6.45656 0.23952,0.717591 3.29322,0.992295 8.78335,0.79013 11.17293,-0.411426 16.08678,1.965335 20.15213,9.747303 4.67473,8.948443 3.09869,18.726995 -4.10985,25.4997 C 449.40674,58.052491 448,59.69009 448,60.0762 c 0,0.38611 1.76004,3.713889 3.91119,7.395064 3.87997,6.639625 6.47096,14.71868 7.6,23.697829 0.35779,2.845477 1.64197,6.037286 3.28795,8.172144 1.48547,1.926683 4.61862,5.948443 6.96254,8.937253 2.34393,2.9888 5.37442,8.17265 6.73443,11.51965 2.59196,6.37885 4.41419,17.21109 2.89157,17.18896 -0.48822,-0.007 -3.74027,-0.9071 -7.22677,-2 -7.75116,-2.42973 -20.87767,-2.70205 -25.09607,-0.52063 -7.52928,3.89354 -16.46081,18.68069 -19.46769,32.23094 -3.04105,13.70422 -1.9838,26.44946 5.41701,65.30259 8.2617,43.37265 8.24782,74.3514 -0.0444,99.2115 -7.30071,21.88741 -20.57234,41.1664 -38.31863,55.66345 -25.01387,20.43398 -56.68519,34.26647 -93.11314,40.6673 -7.67914,1.34932 -14.60248,3.09372 -15.38521,3.87645 -0.94717,0.94716 -1.5781,4.54335 -1.88643,10.75222 -0.495,9.96803 0.5245,14.50618 3.46869,15.44036 6.88597,2.18489 17.33285,8.57519 23.62475,14.45112 9.08881,8.48795 12.04298,14.06773 11.42073,21.57124 C 321.98329,503.24659 315.62043,509 305.78638,509 c -7.24538,0 -8.54071,-0.65559 -17.02067,-8.6145 -8.22298,-7.71771 -14.1788,-9.8843 -25.18633,-9.16221 -8.68926,0.57002 -15.21626,3.67715 -21.57938,10.27273 -2.475,2.56541 -5.71515,5.3033 -7.20034,6.08419 -4.17237,2.19376 -12.61063,1.77899 -17.22464,-0.84666 z M 440.95221,97.23978 c 1.32532,-1.073178 2.38628,-3.344555 2.71822,-5.819333 0.44994,-3.354533 0.11027,-4.563875 -1.95686,-6.967053 C 436.2718,78.126959 426,82.14573 426,90.601218 c 0,7.117473 9.2752,11.235522 14.95221,6.638562 z"
         id="path4140"
         inkscape:connector-curvature="0" />
    </g>
  </g>
</svg>
