<?xml version="1.0" encoding="UTF-8" standalone="no"?>
<!-- Created with Inkscape (http://www.inkscape.org/) -->

<svg
   xmlns:dc="http://purl.org/dc/elements/1.1/"
   xmlns:cc="http://creativecommons.org/ns#"
   xmlns:rdf="http://www.w3.org/1999/02/22-rdf-syntax-ns#"
   xmlns:svg="http://www.w3.org/2000/svg"
   xmlns="http://www.w3.org/2000/svg"
   xmlns:sodipodi="http://sodipodi.sourceforge.net/DTD/sodipodi-0.dtd"
   xmlns:inkscape="http://www.inkscape.org/namespaces/inkscape"
   width="143.8354mm"
   height="111.28191mm"
   viewBox="0 0 509.653 394.30596"
   id="svg4178"
   version="1.1"
   inkscape:version="0.91 r13725"
   sodipodi:docname="cow_grey.svg">
  <defs
     id="defs4180" />
  <sodipodi:namedview
     id="base"
     pagecolor="#ffffff"
     bordercolor="#666666"
     borderopacity="1.0"
     inkscape:pageopacity="0.0"
     inkscape:pageshadow="2"
     inkscape:zoom="0.35"
     inkscape:cx="-157.31636"
     inkscape:cy="202.86726"
     inkscape:document-units="px"
     inkscape:current-layer="layer1"
     showgrid="false"
     fit-margin-top="0"
     fit-margin-left="0"
     fit-margin-right="0"
     fit-margin-bottom="0"
     inkscape:window-width="1920"
     inkscape:window-height="1017"
     inkscape:window-x="-8"
     inkscape:window-y="-8"
     inkscape:window-maximized="1" />
  <metadata
     id="metadata4183">
    <rdf:RDF>
      <cc:Work
         rdf:about="">
        <dc:format>image/svg+xml</dc:format>
        <dc:type
           rdf:resource="http://purl.org/dc/dcmitype/StillImage" />
        <dc:title></dc:title>
      </cc:Work>
    </rdf:RDF>
  </metadata>
  <g
     inkscape:label="Layer 1"
     inkscape:groupmode="layer"
     id="layer1"
     transform="translate(-110.88779,-340.92351)">
    <g
       transform="translate(109.33456,280.92351)"
       id="g4146"
       style="fill:#cccccc;fill-opacity:1">
      <path
         style="fill:#cccccc;fill-opacity:1"
         d="m 54.255202,453.78972 c -3.700805,-0.96285 -5.943439,-3.85392 -6.858813,-8.84199 -0.347986,-1.89625 -1.757423,-5.12324 -3.132084,-7.17109 -2.140132,-3.18818 -2.403046,-4.40993 -1.829149,-8.5 0.368629,-2.62715 1.36956,-6.94989 2.224291,-9.60608 3.231174,-10.0413 1.269053,-61.83782 -2.742158,-72.38811 -1.092218,-2.87275 1.014543,-10.10904 4.076384,-14.00154 1.058855,-1.34611 3.344665,-6.1225 5.079578,-10.6142 C 54.060852,314.93181 54.203339,313.94482 53.76809,304 53.418755,296.01821 52.543458,290.98179 50.118432,283 48.363871,277.225 46.26945,271.30557 45.464161,269.84571 44.658872,268.38585 44,266.35058 44,265.3229 c 0,-1.02769 -1.35,-5.37442 -3,-9.6594 -1.65,-4.28499 -3,-9.33076 -3,-11.21284 C 38,240.43841 35.894433,232 34.893288,232 c -0.896201,0 -2.320342,24.5 -1.501185,25.82542 0.342213,0.55371 0.109963,2.28201 -0.516111,3.84066 -0.73948,1.84099 -1.179954,12.11884 -1.257154,29.33392 -0.0858,19.13344 -0.465221,27.10514 -1.364896,28.67689 -0.879292,1.53615 -1.013011,3.89087 -0.454299,8 0.435468,3.20271 0.404118,7.39811 -0.06967,9.32311 -0.473784,1.925 -1.007346,7.775 -1.185695,13 -0.178349,5.225 -0.93741,11.3 -1.686803,13.5 C 23.98249,371.94013 9.4123026,377.42804 4.4466926,371.9411 1.9482285,369.18032 0.76630156,356.74968 2.1227953,347.5 c 0.564614,-3.85 1.0324216,-13.3 1.0395724,-21 0.012442,-13.39712 1.0085744,-20.0634 4.1092873,-27.5 0.5733105,-1.375 1.389471,-4.525 1.81369,-7 0.424219,-2.475 1.471531,-7.2 2.32736,-10.5 0.855829,-3.3 1.563083,-7.89562 1.571674,-10.21249 0.0086,-2.31687 0.9138,-6.61308 2.011575,-9.54715 1.828296,-4.88656 3.670471,-19.47685 5.522672,-43.74036 2.91908,-38.23943 6.630288,-51.85293 18.718473,-68.66332 7.891615,-10.97445 14.165558,-16.61471 23.309014,-20.95474 l 7.641446,-3.62709 11.15622,0.65816 c 16.897648,0.99686 25.400961,2.27383 54.156221,8.13278 16.06143,3.27255 33.71881,5.45421 44.14395,5.45421 4.69783,0 13.95619,0.51406 20.57414,1.14236 13.57089,1.28841 17.85034,0.85993 46.28191,-4.63403 9.35,-1.80674 20.03986,-3.5963 23.75524,-3.97681 6.22702,-0.63773 12.8527,-2.24258 37.24476,-9.02127 7.39219,-2.05433 12.67455,-2.66911 29.56901,-3.44138 13.88884,-0.63487 21.84567,-1.4296 24.5,-2.44705 9.5972,-3.67878 32.33339,-4.92511 35.6181,-1.95248 1.72854,1.5643 2.11789,1.53285 6.18828,-0.5 2.38902,-1.19314 4.85688,-2.16934 5.48414,-2.16934 3.33983,0 0.0454,-8.65129 -5.8031,-15.239129 -5.1327,-5.781553 -5.06255,-8.135064 0.25556,-8.574436 4.63723,-0.383119 11.35881,3.254548 15.42111,8.345786 1.5218,1.907246 3.15706,3.467733 3.63392,3.46775 0.47686,1.6e-5 2.51583,-1.698956 4.53104,-3.775494 C 432.31535,90.64233 440.42497,87 447.43629,87 c 5.63127,0 5.83516,-0.100585 11.0678,-5.460182 4.1335,-4.233786 5.70387,-6.760618 6.99163,-11.25 C 467.57588,63.038029 469.49546,60 471.99737,60 c 7.01604,0 6.38199,22.636644 -0.92134,32.893221 l -2.00507,2.815871 2.39532,-0.457896 c 3.35166,-0.64071 11.80788,2.356909 13.27474,4.705722 2.20586,3.532132 2.51175,9.275392 0.76654,14.391812 -1.4112,4.13719 -1.48609,5.89814 -0.5103,12 0.62898,3.9332 1.3438,8.5418 1.58848,10.24134 0.24468,1.69954 1.58404,4.16025 2.97634,5.46825 1.39231,1.30801 4.39495,4.86748 6.67255,7.90993 2.27759,3.04246 6.41905,7.91087 9.20323,10.81868 l 5.06214,5.28693 0,10.08077 0,10.08077 -4.5,3.97903 C 496.84171,198.31245 493.33087,200 485.64177,200 c -6.09681,0 -7.57462,0.39011 -11.83563,3.1244 -8.11523,5.20753 -15.61949,7.8255 -22.50692,7.85186 -7.9965,0.0306 -15.60281,1.66995 -21.47845,4.6291 -6.0498,3.04687 -6.53584,4.00259 -3.47717,6.83728 2.97131,2.75371 4.06946,7.5628 3.4454,15.08821 -0.58819,7.09276 -2.38569,8.90981 -10.87099,10.98924 -6.40258,1.56904 -7.12362,1.57521 -9.40478,0.0805 -2.4031,-1.57458 -2.4874,-1.54344 -3.08683,1.14029 -0.94488,4.23033 -3.64734,11.5436 -5.03575,13.6275 -3.36775,5.05475 -18.03296,19.91861 -21.29365,21.5821 -2.21001,1.12746 -5.81112,4.72443 -8.93301,8.92274 -2.87672,3.8686 -6.45295,7.98161 -7.94719,9.14002 -1.49424,1.15842 -4.79461,4.52082 -7.33416,7.472 -4.17407,4.85064 -4.7261,6.09689 -5.75,12.9811 -0.62295,4.18842 -1.13361,11.98443 -1.13478,17.32447 -0.002,8.9878 -0.23872,10.15493 -3.18635,15.70915 -2.947,5.55303 -3.16825,6.64316 -2.97001,14.63347 0.11781,4.74841 0.86885,11.72341 1.66898,15.5 0.80014,3.77659 1.46261,8.06671 1.47216,9.53359 0.0122,1.87903 1.20111,3.65186 4.02367,6 3.11581,2.59212 4.37227,4.62151 5.65278,9.13016 1.02499,3.60899 1.29244,6.15125 0.70855,6.73514 -1.40485,1.40485 -10.81719,2.96764 -17.8735,2.96764 -5.80534,0 -6.59043,-0.28468 -11.44539,-4.15026 -6.05104,-4.81791 -6.88687,-6.58255 -7.6858,-16.22659 -0.43656,-5.2699 -0.13326,-8.68298 1.16577,-13.11853 1.474,-5.03294 1.64989,-8.21543 1.09569,-19.82492 -0.42653,-8.93494 -1.21191,-15.13024 -2.21909,-17.50462 -0.85739,-2.02129 -1.75862,-6.15008 -2.00272,-9.17508 -1.82359,-22.59899 -2.66215,-28.55862 -4.18601,-29.75 -2.65671,-2.07705 -3.03083,-1.52308 -3.71429,5.5 -0.92241,9.47853 -2.10914,12.78678 -7.38164,20.57785 -7.22996,10.68357 -7.26202,10.78713 -8.24754,26.64205 -0.84439,13.58458 -0.76296,15.12128 1.02193,19.28526 1.06669,2.48848 2.42667,4.82564 3.02219,5.19369 0.59552,0.36805 1.08276,1.75179 1.08276,3.07498 0,3.91986 -2.8913,4.6842 -14.72148,3.89175 -9.45003,-0.63302 -11.09196,-1.03223 -14.94735,-3.63421 -4.84654,-3.27088 -5.32422,-5.2492 -2.22027,-9.19523 1.95009,-2.47913 1.98818,-2.81918 0.5,-4.4636 -2.41945,-2.67346 -2.03313,-6.79978 0.81111,-8.6634 1.67101,-1.09488 3.10822,-3.81518 4.63504,-8.77305 3.96067,-12.86096 4.94054,-20.46798 4.94177,-38.36413 l 10e-4,-17.17805 -5.57825,-0.69695 c -8.49146,-1.06094 -10.33762,-0.87012 -12.72424,1.31519 -1.20863,1.10668 -3.99751,2.96764 -6.19751,4.13547 -2.2,1.16783 -4.675,2.51193 -5.5,2.98689 -0.825,0.47496 -4.65,2.26515 -8.5,3.9782 l -7,3.11464 -19.5,-0.38938 c -10.725,-0.21417 -25.35,-0.77593 -32.5,-1.24837 -12.89098,-0.85178 -13.07314,-0.89811 -21.72128,-5.52396 -4.79671,-2.56574 -9.94125,-4.81138 -11.43232,-4.99031 -2.32932,-0.27952 -2.83118,0.13611 -3.56438,2.95195 -0.59405,2.28146 -2.36921,4.36633 -5.84208,6.86134 -6.29443,4.5221 -6.93994,5.78667 -6.93994,13.59564 0,6.8724 -1.02619,8.76574 -4.75103,8.76574 -1.75262,0 -2.73258,-0.91319 -3.85009,-3.58777 -1.05356,-2.52152 -1.95427,-3.41309 -3.03076,-3 -0.84243,0.32327 -1.88738,0.58777 -2.3221,0.58777 -0.43472,0 -1.08725,1.85636 -1.45006,4.12524 -0.92046,5.75629 -2.27891,7.87476 -5.04958,7.87476 -1.65176,0 -3.05717,-1.09041 -4.57889,-3.5526 -1.20759,-1.95393 -2.3241,-3.41643 -2.48112,-3.25 -0.15702,0.16643 0.29354,7.5365 1.00124,16.37792 1.35436,16.92013 1.22031,16.42919 9.80952,35.92468 1.21158,2.75 4.7573,7.7656 7.87937,11.14577 6.14766,6.65588 10.12951,13.39321 9.25793,15.6645 -0.73836,1.92414 -9.02777,7.13856 -13.78335,8.67036 -2.16512,0.6974 -6.70126,1.05814 -10.36899,0.8246 -6.25292,-0.39816 -6.69957,-0.60515 -10.90108,-5.05199 -2.409555,-2.55025 -4.423975,-5.67552 -4.476487,-6.94503 C 91.85201,414.53869 91.711519,410.35 91.592321,406.5 91.366359,399.20163 88.620841,391.04473 81.688329,377.07535 78.061442,369.76698 76,368.24872 76,372.88587 c 0,1.6789 -0.853506,4.7539 -1.89668,6.83334 -2.537856,5.05889 -3.531931,23.42392 -2.08124,38.44984 0.896207,9.28271 1.802882,13.08814 5.015753,21.05177 2.156988,5.34644 3.666087,10.38718 3.353553,11.20163 -0.312533,0.81445 -1.99095,1.91775 -3.729814,2.45178 -4.412586,1.35516 -18.503532,1.9309 -22.40637,0.91549 z"
         id="path4160"
         inkscape:connector-curvature="0" />
      <path
         style="fill:#cccccc;fill-opacity:1"
         d="M 52.871212,452.47914 C 50.334267,451.11262 47,444.76068 47,441.29421 47,440.37829 46.138993,438.6999 45.086651,437.56445 44.034308,436.429 43.050601,434.825 42.900634,434 c -0.339025,-1.86504 0.848457,-8.90182 2.615679,-15.5 1.986241,-7.41592 2.809681,-23.18247 1.569817,-30.05757 C 46.496714,385.17409 45.79662,376.65 45.530367,369.5 45.264113,362.35 44.355517,353.87004 43.511265,350.65564 41.756957,343.9763 42.692653,338.79485 46.609324,333.5 c 1.220527,-1.65 3.495236,-6.15 5.054908,-10 2.580706,-6.37039 2.822673,-8.01612 2.690182,-18.29719 -0.123591,-9.59047 -0.621839,-12.83858 -3.298022,-21.5 -1.733839,-5.61155 -3.805826,-11.68058 -4.604414,-13.48674 C 45.65339,268.40991 45,266.23488 45,265.38266 c 0,-0.85222 -1.292804,-4.77811 -2.872897,-8.72421 -1.580093,-3.94609 -3.171652,-9.64606 -3.536796,-12.66658 -0.77971,-6.44987 -2.588466,-14.15421 -3.590806,-15.29494 -1.079509,-1.22856 -3.209841,22.71762 -2.46369,27.69331 0.421609,2.81148 0.204677,5.22615 -0.605517,6.74001 -0.902498,1.68633 -1.344521,9.91688 -1.550163,28.86437 -0.392044,36.12207 -0.773402,46.26234 -1.801438,47.89998 -0.481507,0.76704 -0.963187,5.71704 -1.070401,11 -0.124347,6.12722 -0.766324,10.9393 -1.772891,13.28912 -2.129587,4.97148 -8.21406,8.91013 -14.117439,9.1386 -5.7528618,0.22264 -8.3259876,-2.10151 -9.2208537,-8.32867 -0.9979007,-6.94414 -0.657253,-18.63905 0.611996,-21.01066 0.7134781,-1.33315 1.1280065,-7.64489 1.1039341,-16.80887 C 4.0740093,312.31634 5.6586297,302.01888 8.6751982,297.52749 9.4038392,296.44262 10,294.10941 10,292.34259 c 0,-1.76681 0.483577,-4.47919 1.074616,-6.02749 0.591039,-1.54831 1.52723,-6.85367 2.080424,-11.7897 0.553193,-4.93603 1.706089,-10.56103 2.561991,-12.5 0.855901,-1.93897 1.905384,-7.1254 2.332185,-11.5254 0.4268,-4.4 1.705729,-17.9 2.842064,-30 1.136335,-12.1 2.315622,-23.8 2.620638,-26 0.305015,-2.2 0.737131,-6.025 0.960256,-8.5 0.223125,-2.475 1.280478,-6.975 2.349673,-10 1.88213,-5.32498 2.783589,-7.59356 5.960505,-15 2.471426,-5.76171 12.900811,-19.55764 18.677123,-24.70598 3.131674,-2.79121 8.476958,-6.13253 12.720899,-7.95178 L 71.5,125.20453 l 16,1.34682 c 14.93594,1.25724 24.72714,2.82648 47,7.53267 15.72291,3.32221 29.19423,4.92886 49.87874,5.94875 11.06669,0.54567 21.48434,1.24295 23.15033,1.54952 3.26119,0.60011 21.44889,-1.68133 32.3024,-4.05198 6.94079,-1.51602 19.12538,-3.59915 32.45385,-5.54845 7.0112,-1.0254 14.12011,-2.8095 36.21468,-9.0887 5.15269,-1.46437 12.40998,-2.24509 27.5,-2.95835 15.22497,-0.71964 22.17257,-1.47198 27,-2.92377 7.34231,-2.2081 27.03264,-4.43807 30.32959,-3.43489 1.19373,0.36323 2.91509,1.31318 3.82525,2.111 1.45624,1.2765 2.14154,1.2023 5.71016,-0.61828 2.23043,-1.13788 4.76237,-2.06887 5.62655,-2.06887 4.35308,0 1.82342,-9.08847 -4.54267,-16.320733 C 401.777,94.211875 400,91.504977 400,90.663938 c 0,-4.969623 12.61209,-0.518095 18.18711,6.419272 1.73119,2.154234 3.65458,3.91679 4.2742,3.91679 0.61962,0 2.8239,-1.791184 4.8984,-3.980408 5.82645,-6.148659 12.91293,-9.390093 19.93178,-9.117016 l 5.7915,0.225326 5.78644,-5.913589 c 4.34228,-4.437683 6.11782,-7.136615 7.11417,-10.813951 C 467.90359,64.314057 469.79023,61 471.90436,61 c 2.92475,0 4.35515,4.966303 3.95061,13.716418 -0.4424,9.568996 -3.95523,17.538538 -9.32804,21.162484 C 463.03058,98.237179 461.98914,100 464.09227,100 c 0.60075,0 2.23644,-0.9 3.63486,-2 4.3844,-3.448773 13.19984,-1.797752 16.64218,3.11687 2.11165,3.0148 2.08444,9.86375 -0.057,14.35444 -1.42378,2.98571 -1.51006,4.28114 -0.5517,8.28392 0.62481,2.60963 1.43554,7.17293 1.80162,10.14069 0.53116,4.30605 1.41462,6.22486 4.37396,9.5 2.0396,2.25724 5.00628,5.90408 6.59262,8.10408 1.58635,2.2 5.49133,6.77355 8.67774,10.16345 l 5.79347,6.16344 0,7.13622 c 0,9.08812 -1.27666,11.49338 -9.62735,18.13823 -6.6639,5.30262 -6.72669,5.32688 -15.28202,5.90482 -7.89454,0.5333 -9.11732,0.91672 -15.09063,4.73187 -7.23928,4.62373 -11.1492,5.74064 -25,7.14155 -9.81719,0.99294 -19.19899,4.24541 -22.00759,7.62956 -1.25779,1.51555 -1.1813,1.91948 0.6432,3.39688 3.44215,2.78729 4.36439,5.61318 4.36439,13.37325 0,8.83035 -0.91929,10.02776 -9.39323,12.23493 -7.16909,1.86732 -9.04734,1.8648 -10.60677,-0.0142 -1.56219,-1.88233 -3,-1.93281 -3,-0.10534 0,0.76707 -0.90742,4.33255 -2.01649,7.9233 -1.7082,5.5305 -3.34078,8.01605 -10.67853,16.25762 -4.76412,5.35094 -10.80965,11.06402 -13.43452,12.69572 -2.81571,1.75035 -6.88308,5.80508 -9.92017,9.88934 -2.83123,3.80743 -6.13354,7.56855 -7.33847,8.35805 -1.20493,0.7895 -4.31814,3.89957 -6.91825,6.91126 -5.6408,6.53371 -6.55441,10.14619 -7.28449,28.80329 -0.45642,11.66361 -0.74654,13.20519 -3.45368,18.35154 -2.55493,4.857 -2.9554,6.69563 -2.9554,13.56862 0,4.37267 0.9348,12.76447 2.07733,18.64845 1.88184,9.69144 2.39853,10.98967 5.49071,13.7961 3.24352,2.94378 6.43196,9.59671 6.43196,13.42079 0,2.29023 -1.31247,2.73519 -11.84524,4.01585 -10.10135,1.22821 -11.63971,0.81885 -18.01396,-4.79353 -4.04905,-3.56509 -4.45435,-4.38531 -5.69645,-11.52813 -1.15896,-6.66469 -1.13377,-8.39146 0.18895,-12.95145 0.8394,-2.89381 1.75984,-8.18843 2.04541,-11.76582 0.63479,-7.95214 -1.1988,-27.25944 -2.87627,-30.2864 -1.24477,-2.24618 -2.33107,-10.5473 -3.33987,-25.52231 C 315.75423,312.67214 314.7816,310 311.66268,310 c -2.24784,0 -2.42728,0.4465 -3.08171,7.66846 -0.83064,9.16639 -1.99406,12.1759 -8.0642,20.86039 -2.53977,3.63362 -5.09458,7.81361 -5.67735,9.28886 -0.58277,1.47526 -1.40449,9.1728 -1.82604,17.10565 -0.79605,14.98031 -0.17488,18.91823 3.66656,23.24417 0.81443,0.91715 1.33211,2.71715 1.15042,4 -0.32581,2.30032 -0.48922,2.33023 -11.85746,2.16965 -10.76651,-0.15207 -11.80574,-0.34525 -15.75,-2.92763 -4.72434,-3.09312 -5.26045,-5.27506 -2.23965,-9.11539 1.97767,-2.51419 1.97767,-2.52839 0,-5.04258 -2.5934,-3.29698 -2.52042,-3.86396 0.90851,-7.05795 2.06388,-1.92248 3.60757,-5.12708 5.39208,-11.19363 3.66918,-12.4736 4.0392,-15.67409 4.1319,-35.7389 0.0639,-13.82853 -0.22104,-18.35607 -1.17831,-18.72344 -0.69441,-0.2665 -4.18073,-0.78351 -7.74737,-1.14892 -5.83232,-0.59754 -6.86237,-0.41606 -10.23743,1.80375 -8.39077,5.5187 -11.89954,7.56009 -14.26575,8.29979 -1.36779,0.42758 -4.5909,1.87139 -7.16249,3.20847 -2.57158,1.33708 -6.17158,2.44513 -8,2.46232 -16.16972,0.15204 -32.05518,-0.26668 -45.32803,-1.19479 l -15.80558,-1.10522 -9.82722,-4.93153 C 147.52107,306.23961 143,305.5648 143,309.56377 c 0,2.52389 -1.55636,4.32668 -8.94165,10.35747 -3.27005,2.67031 -3.46948,3.20351 -4,10.69459 L 129.5,338.5 l -2.96257,0 c -2.49308,0 -3.1124,-0.5224 -3.90796,-3.29637 -0.64124,-2.23588 -1.40346,-3.1206 -2.36922,-2.75 -0.7831,0.3005 -2.28702,0.54637 -3.34204,0.54637 -1.51865,0 -1.91821,0.71548 -1.91821,3.4349 0,9.3083 -5.28009,11.85673 -9.09057,4.38757 -3.3277,-6.52283 -3.82123,-3.18307 -2.23157,15.10122 1.17362,13.49914 1.88134,17.41666 3.97437,22 1.40057,3.06697 4.10188,8.95131 6.00291,13.07631 1.91466,4.15456 5.38809,9.50726 7.78696,12 5.59108,5.80988 9.80382,12.65782 9.10951,14.80781 -0.30055,0.93071 -2.01012,2.58877 -3.79904,3.68459 -7.17223,4.39342 -10.28402,5.35959 -17.49969,5.43344 -6.94799,0.0711 -7.41004,-0.073 -11.194218,-3.49181 -4.626831,-4.18006 -6.529756,-9.0865 -5.652312,-14.57374 0.382761,-2.39365 -4.7e-5,-6.36772 -0.977463,-10.14742 C 89.656559,391.85922 78.533297,368 77.110428,368 75.968951,368 75,370.50438 75,373.45467 c 0,1.2601 -0.896211,4.31713 -1.99158,6.79339 -1.838403,4.15602 -1.962061,6.22319 -1.607786,26.87712 l 0.383794,22.37482 4.107786,9.2661 C 78.151496,443.86245 80,448.46458 80,448.99304 c 0,0.52847 -1.086018,1.67244 -2.413373,2.54216 -3.40188,2.22899 -21.076526,2.90404 -24.715415,0.94394 z"
         id="path4158"
         inkscape:connector-curvature="0" />
      <path
         style="fill:#cccccc;fill-opacity:1"
         d="M 52.749978,451.91989 C 50.469902,450.59187 48,445.75942 48,442.62639 c 0,-1.36012 -1.164629,-3.85702 -2.588064,-5.54868 -2.881643,-3.42464 -2.816018,-6.76078 0.326097,-16.57771 2.785045,-8.70134 1.506644,-59.20752 -1.793133,-70.84188 -1.4134,-4.98337 -0.399009,-10.70986 2.70823,-15.28863 1.365013,-2.01146 3.862883,-7.07997 5.550822,-11.26335 2.799705,-6.93877 3.056553,-8.52741 2.927368,-18.10614 -0.144148,-10.68819 -0.632008,-12.87108 -6.816505,-30.5 -1.35064,-3.85 -2.797729,-8.575 -3.215754,-10.5 -0.418024,-1.925 -1.76623,-5.75 -2.996012,-8.5 -1.229782,-2.75 -2.46066,-7.25 -2.735283,-10 -0.460322,-4.60953 -2.856583,-15.96671 -4.114324,-19.5 -1.02262,-2.87278 -2.148492,5.46633 -2.835232,21 -0.376888,8.525 -1.010616,15.95 -1.408284,16.5 -0.397669,0.55 -0.812631,12.896 -0.922138,27.43555 -0.109507,14.53955 -0.511557,26.91455 -0.893446,27.5 -0.381888,0.58545 -0.76812,5.33945 -0.858294,10.56445 -0.519553,30.10493 -1.518504,35.43892 -7.546679,40.29616 -5.069339,4.08465 -12.3959671,4.90065 -15.2908511,1.70302 -3.7098693,-4.09786 -5.0145191,-22.11919 -1.9592037,-27.06279 0.3516996,-0.56906 0.7495206,-8.10005 0.8840467,-16.73552 0.2382869,-15.29609 1.3652856,-22.89495 4.2073966,-28.36867 1.5754095,-3.03413 4.2037465,-15.95501 5.3564405,-26.3322 0.427656,-3.85 1.541976,-9.025 2.476267,-11.5 1.639743,-4.34379 2.100602,-7.9288 4.499304,-35 3.877214,-43.75733 4.823232,-48.65347 12.74344,-65.95402 2.243121,-4.89977 11.231447,-16.70634 16.944688,-22.2576 2.669423,-2.59375 8.213461,-6.34768 12.333743,-8.35133 7.459731,-3.62759 7.516306,-3.63751 17,-2.98061 19.400761,1.34383 29.99782,2.9218 54.52454,8.11908 15.08667,3.19691 32.87162,5.42477 43.29204,5.42304 4.78433,-7.9e-4 14.62459,0.52253 21.86724,1.16294 15.09139,1.33442 20.34296,0.82083 48.18647,-4.71254 C 257.40014,134.55203 266.53161,133 268.14708,133 c 4.10482,0 16.51642,-2.65562 26.19492,-5.60473 16.9191,-5.15538 23.79846,-6.2827 44.18813,-7.24114 13.67735,-0.64291 21.23027,-1.42717 23.96987,-2.48891 9.13063,-3.53861 31.17757,-4.96358 33.5,-2.16522 1.62562,1.95876 2.20253,1.91132 9.12125,-0.75 5.19512,-1.99833 5.85104,-2.56315 5.86407,-5.04966 0.0188,-3.59059 -2.25515,-7.99081 -7.19723,-13.926907 C 399.61119,90.75642 399.56467,89 403.60868,89 c 3.78255,0 8.3419,2.678423 14.10397,8.285481 l 5.21264,5.072419 4.28736,-4.560661 c 5.8408,-6.213134 13.86711,-10.184008 19.15206,-9.475146 4.99991,0.670628 7.75946,-0.731148 13.76775,-6.993638 3.40784,-3.552017 5.20715,-6.592861 6.80635,-11.502772 2.60842,-8.008458 4.38199,-9.934588 6.86138,-7.451601 1.34788,1.349836 1.69017,3.505974 1.65327,10.414097 -0.0599,11.210907 -3.12661,18.643605 -9.40718,22.799891 -5.55852,3.678457 -3.89135,5.68791 2.19652,2.647485 3.35328,-1.674711 5.02484,-1.954572 7.76517,-1.300083 5.27161,1.259051 6.95226,2.121704 8.01981,4.116438 1.40805,2.63097 1.1926,11.19434 -0.37548,14.9237 -1.12628,2.67863 -1.12884,4.13507 -0.0156,8.86481 0.73264,3.11277 1.33911,7.26497 1.3477,9.22711 0.0126,2.88754 1.34975,5.27009 7.01511,12.5 3.84972,4.91286 9.74612,12.02518 13.1031,15.80516 l 6.10362,6.87268 -0.37939,7.51307 -0.3794,7.51307 -4.97371,4.50355 c -10.06841,9.11666 -10.70445,9.43214 -20.39797,10.11761 -5.85536,0.41406 -9.51837,1.16362 -10.73251,2.19619 -6.37226,5.4193 -13.63349,7.91507 -25.84323,8.88261 -11.80318,0.93533 -23.04234,4.92997 -24.81459,8.81964 -0.9204,2.02005 -0.66893,2.64715 1.87585,4.67789 2.83257,2.26039 2.93557,2.63719 2.85109,10.42992 -0.10266,9.46914 -1.22576,11.31306 -7.91676,12.99787 -6.03168,1.5188 -10.02005,1.38113 -11.49559,-0.39679 -2.01464,-2.42749 -2.77392,-1.78143 -3.86043,3.2848 -0.56438,2.63164 -1.89251,6.79414 -2.95138,9.25 -2.34913,5.44834 -17.76758,22.04836 -23.71791,25.53549 -2.35817,1.38197 -5.56618,4.469 -7.12893,6.86007 -1.56274,2.39106 -6.75485,8.43708 -11.53802,13.43559 -5.81684,6.07873 -9.06362,10.33758 -9.80481,12.86113 -0.60949,2.07511 -1.46854,10.55213 -1.90901,18.83783 -0.5894,11.0873 -1.22496,15.71217 -2.40711,17.51637 -3.90946,5.9666 -4.7159,10.61447 -3.69086,21.27223 0.53672,5.58057 1.58729,13.48962 2.33461,17.57566 1.1958,6.53826 1.79378,7.79743 4.98641,10.5 3.67106,3.10755 7.07866,10.38775 6.08012,12.9899 -0.72759,1.89608 -3.39653,2.50398 -13.89268,3.16433 l -9,0.56623 -5.27358,-4.82482 c -4.73764,-4.33448 -5.3816,-5.42888 -6.33654,-10.76878 -1.15277,-6.44617 -0.93639,-9.5762 1.35572,-19.61118 1.269,-5.55576 1.31832,-8.68505 0.32349,-20.52567 -0.64557,-7.68379 -1.59553,-14.63398 -2.11101,-15.44486 -0.97399,-1.53215 -1.79603,-7.80853 -3.46744,-26.47432 -1.02113,-11.40371 -1.97809,-13.5 -6.16272,-13.5 -2.03027,0 -2.46821,1.52326 -3.22248,11.20849 -0.56661,7.27568 -2.05845,10.67712 -8.96685,20.44472 -4.96223,7.01597 -5.40139,8.93841 -6.15695,26.95269 -0.48644,11.5978 -0.34194,13.24597 1.43733,16.3941 4.72457,8.35935 4.65585,8.10651 2.60975,9.60266 -1.465,1.07123 -4.16499,1.23852 -11.96043,0.74107 -8.89289,-0.56748 -10.56444,-0.98088 -14.31829,-3.54115 -4.76727,-3.25146 -5.04812,-4.22539 -2.25,-7.80258 2.36433,-3.02262 2.4758,-4.36023 0.5,-6 -2.22042,-1.84279 -1.82448,-4.5996 0.97711,-6.80333 2.71614,-2.13652 6.55797,-13.00031 8.55681,-24.19667 0.86507,-4.8456 1.45028,-29.15204 0.99022,-41.12844 -0.0133,-0.34564 -3.4206,-1.1336 -7.57183,-1.75102 -8.36943,-1.24479 -7.52428,-1.50279 -19.30272,5.89234 C 248.65687,311.2058 245.38587,313 244.8807,313 c -0.50517,0 -3.31107,1.27675 -6.23533,2.83722 l -5.31683,2.83722 -19.41427,-0.2488 C 203.23642,318.2888 188.65,317.78746 181.5,317.31154 c -12.90836,-0.85919 -13.06523,-0.89931 -22.25322,-5.69132 -5.08927,-2.65431 -10.67551,-4.89222 -12.41387,-4.97312 -2.75701,-0.12831 -3.26889,0.25945 -4.00809,3.03621 -0.46609,1.75082 -2.24,4.22582 -3.94202,5.5 -7.9583,5.95781 -8.8828,7.49816 -8.8828,14.8 0,7.0947 -1.42797,9.83391 -4.50995,8.65125 -1.5911,-0.61057 -1.91074,-1.25398 -2.92786,-5.89364 -0.58897,-2.68666 -0.66991,-2.71645 -3.08352,-1.13499 -1.36327,0.89325 -2.47867,1.29224 -2.47867,0.88664 0,-0.4056 -0.675,-0.17726 -1.5,0.50743 -0.90328,0.74966 -1.5,2.93763 -1.5,5.5 0,7.71787 -4.39269,8.57091 -7.97514,1.54872 -3.31181,-6.49167 -4.38616,-5.22359 -3.55947,4.20128 0.398,4.5375 1.05523,12.75 1.46051,18.25 0.59714,8.10372 1.36225,11.42221 4.03477,17.5 5.98022,13.60012 9.0462,19.00494 13.20516,23.27853 4.97787,5.11507 8.83417,11.02259 8.83417,13.53318 0,2.1357 -7.50091,7.28518 -13.36206,9.17326 -2.12449,0.68437 -6.35683,1.03722 -9.4071,0.78427 -5.04584,-0.41844 -5.93775,-0.8755 -9.907406,-5.07694 l -4.362376,-4.6171 0.12895,-7.2876 C 93.249401,400.77958 91.00018,393.33812 83.784293,379 c -5.795806,-11.51639 -7.92552,-13.08235 -8.840024,-6.5 -0.305653,2.2 -1.064048,4.9 -1.685323,6 -2.49879,4.42424 -2.926242,8.85351 -2.750426,28.5 l 0.183453,20.5 4.195321,9.96553 c 4.641062,11.02433 4.837815,13.61371 1.112706,14.6438 -3.920962,1.08424 -21.306443,0.94259 -23.250022,-0.18944 z"
         id="path4156"
         inkscape:connector-curvature="0" />
      <path
         style="fill:#cccccc;fill-opacity:1"
         d="M 53.307745,451.80527 C 51.069064,450.72347 48,444.49803 48,441.03878 c 0,-1.05641 -0.4532,-2.20084 -1.007112,-2.54318 -0.553911,-0.34233 -1.647479,-1.86076 -2.430152,-3.37428 -1.269399,-2.45475 -1.176328,-3.77273 0.862032,-12.20726 2.800166,-11.58681 4.075189,-27.73262 2.680832,-33.94777 -0.55942,-2.49354 -1.245981,-10.4542 -1.52569,-17.69036 -0.27971,-7.23615 -1.203847,-16.15465 -2.053639,-19.81888 -1.607891,-6.9331 -0.877379,-12.85606 2.02974,-16.45705 1.936438,-2.39863 5.532605,-9.94446 7.592112,-15.93053 3.502228,-10.1794 0.439322,-32.46388 -6.714691,-48.8534 C 46.645044,268.40991 46,266.28413 46,265.4921 c 0,-0.79202 -1.308528,-4.73407 -2.90784,-8.7601 -1.599313,-4.02604 -3.191823,-9.55025 -3.538912,-12.27603 -0.974075,-7.64967 -3.968452,-20.45153 -4.784196,-20.45387 -0.402021,-0.001 -0.937633,1.0104 -1.190248,2.2479 -0.954789,4.67728 -2.387939,28.38195 -1.897501,31.38516 0.281592,1.72434 -0.04946,4.18423 -0.735669,5.46642 -0.884063,1.65189 -1.331017,10.0637 -1.533707,28.86484 -0.391395,36.30498 -0.810142,47.28403 -1.868038,48.97784 -0.496121,0.79434 -0.97367,5.74434 -1.06122,11 -0.184618,11.08263 -1.258609,13.93546 -6.65375,17.6743 -4.600498,3.18815 -11.8008463,3.83689 -14.3459252,1.29255 C 2.9618286,368.39067 0.80772183,350.73816 2.6563233,347.74706 3.9595509,345.6384 5.7025516,325.84909 4.9415644,321.80138 4.4967907,319.43562 4.3053717,316.6 4.5161889,315.5 5.9793033,307.86578 8.4275469,299.22768 9.6043356,297.54758 10.371951,296.45165 11,294.16179 11,292.45899 c 0,-1.70279 0.628094,-5.31516 1.395764,-8.02749 0.767671,-2.71232 1.647604,-7.93543 1.955408,-11.60689 0.307804,-3.67147 1.316183,-8.39647 2.240843,-10.5 0.92466,-2.10354 2.016323,-7.42461 2.425918,-11.82461 0.409596,-4.4 1.257356,-13.625 1.883912,-20.5 1.082055,-11.87304 2.315345,-24.30739 4.066549,-41 1.319529,-12.57785 7.413291,-27.52751 16.104364,-39.5084 7.356111,-10.1406 14.592308,-16.39447 23.486502,-20.29816 l 7.00121,-3.07285 16.469765,1.4407 c 15.660925,1.36995 21.550635,2.31302 49.469765,7.9212 6.6,1.32575 13.35,2.65632 15,2.95681 6.02906,1.09797 45.39496,3.05803 59.5,2.96254 12.13162,-0.0821 16.95005,-0.60962 29.5,-3.22948 8.25,-1.72223 20.175,-3.81395 26.5,-4.64826 6.325,-0.83432 16.45,-2.91676 22.5,-4.62766 6.05,-1.7109 14.15,-3.98749 18,-5.05909 4.73951,-1.31918 12.65123,-2.23958 24.5,-2.85016 21.38184,-1.10182 28.0346,-1.77101 29.4728,-2.96462 1.32853,-1.10258 10.97228,-2.65689 22.3485,-3.60197 7.4282,-0.6171 8.61543,-0.47383 11.06182,1.33486 l 2.74051,2.02615 6.43819,-2.75972 c 6.22927,-2.67018 6.42898,-2.86845 6.15462,-6.11022 -0.32893,-3.88648 -3.88881,-10.349233 -7.62128,-13.835984 C 402.16782,93.742313 401,92.04069 401,91.294301 c 0,-4.397141 9.39312,-0.84042 15.95016,6.039552 2.44591,2.566381 5.01459,4.666147 5.70817,4.666147 0.69358,0 2.9667,-1.8478 5.05136,-4.106226 2.08467,-2.258425 6.26531,-5.355378 9.29031,-6.882118 4.57587,-2.309474 6.37682,-2.690819 10.7184,-2.269581 l 5.2184,0.506311 6.5316,-6.531601 C 463.06078,79.124405 466,75.485399 466,74.630105 466,71.633615 470.15653,62 471.4494,62 c 2.79625,0 4.00325,3.210176 3.90087,10.374828 -0.14225,9.954184 -3.17265,17.541262 -8.92772,22.351902 C 463.99015,96.759967 462,98.792355 462,99.243147 c 0,1.883733 3.12783,1.801463 5.60546,-0.14744 C 469.0708,97.943068 471.57348,97 473.16698,97 c 4.04377,0 9.46588,2.445478 10.75253,4.8496 1.55698,2.90925 1.32888,9.48915 -0.48623,14.02554 -1.21409,3.03431 -1.3417,4.78318 -0.56699,7.77023 0.54984,2.12005 1.31154,6.4807 1.69265,9.69035 0.60895,5.12845 1.2979,6.52221 5.68457,11.5 2.74541,3.11535 6.13932,7.46428 7.54202,9.66428 1.4027,2.2 4.94979,6.38188 7.88242,9.29308 5.30669,5.26789 5.33205,5.32273 5.33205,11.52822 0,7.44735 -1.6947,10.30093 -10.14833,17.08808 -6.12668,4.91892 -11.55386,6.70851 -17.80267,5.87037 -3.34461,-0.44861 -4.91481,0.11289 -11.21895,4.01186 -8.69014,5.37466 -12.07327,6.38916 -25.36077,7.60499 -10.96382,1.00321 -20.55188,4.6291 -23.218,8.78027 -1.28017,1.99323 -1.13884,2.40789 1.6753,4.9153 2.95942,2.63685 3.07342,3.04303 3.07342,10.95068 0,9.31255 -0.26104,9.72258 -7.60895,11.95171 -6.90597,2.09506 -9.8654,1.90713 -11.72502,-0.74456 -1.92193,-2.74055 -3.13829,-1.45175 -4.05798,4.29964 -0.3319,2.07561 -1.46775,5.79014 -2.5241,8.25451 -2.51159,5.85932 -16.82238,21.74805 -23.02652,25.5655 -2.67782,1.64767 -6.21627,4.93855 -7.86324,7.31306 -1.64696,2.37451 -4.44417,5.66729 -6.21602,7.31729 -1.77184,1.65 -5.82041,5.99519 -8.99682,9.65597 -6.88193,7.93136 -7.77928,11.0772 -8.56037,30.01016 -0.48414,11.73513 -0.78252,13.31807 -3.4753,18.43713 -2.51402,4.77923 -2.94636,6.72064 -2.95032,13.24829 -0.004,6.79356 1.54178,17.28905 4.17693,28.3583 0.60039,2.52197 1.84151,4.27594 3.87616,5.47784 2.17529,1.28497 3.44818,3.21201 4.65906,7.05337 1.03294,3.27686 1.31007,5.63332 0.72928,6.20101 -1.32769,1.29774 -17.07372,3.29658 -20.33182,2.58099 -1.49423,-0.32819 -4.75908,-2.55371 -7.25524,-4.9456 -4.189,-4.01403 -4.62893,-4.91593 -5.71338,-11.71317 -1.05957,-6.64132 -0.96678,-8.10059 0.94524,-14.86429 1.84766,-6.53606 2.03504,-9.01255 1.45796,-19.26847 -0.36421,-6.47266 -1.35168,-14.12266 -2.19438,-17 -1.64302,-5.60995 -3.06162,-15.24953 -3.78676,-25.73153 -0.70029,-10.12291 -1.65113,-15.43408 -2.90645,-16.23469 -0.63358,-0.40408 -2.32276,-0.74158 -3.75374,-0.75 -2.53076,-0.0149 -2.61824,0.19804 -3.20444,7.79975 -0.74638,9.67891 -1.49165,11.65626 -8.16664,21.66773 -6.22077,9.33022 -7.33727,13.6823 -7.70709,30.04205 -0.25787,11.40717 0.60467,15.42921 4.36762,20.36653 1.45603,1.91043 1.57853,2.68542 0.60911,3.85349 -0.96688,1.16502 -3.35554,1.37858 -11.75512,1.051 -9.09338,-0.35465 -11.05105,-0.74668 -14.24933,-2.8535 -4.20446,-2.76961 -4.67265,-5.00775 -1.80908,-8.6482 1.97767,-2.51419 1.97767,-2.52839 0,-5.04258 -2.56978,-3.26694 -2.52327,-3.6258 0.9008,-6.95089 3.2111,-3.11829 6.42556,-12.60745 8.53347,-25.19099 1.73223,-10.34081 1.42527,-39.97079 -0.42593,-41.1149 -0.73556,-0.4546 -4.42915,-1.13704 -8.20798,-1.51653 -6.24828,-0.62749 -7.20632,-0.46788 -10.5771,1.76222 -8.40494,5.56067 -13.95802,8.75951 -15.2062,8.75951 -0.72853,0 -3.25971,1.13406 -5.62486,2.52012 -2.4335,1.42613 -5.94447,2.54785 -8.08786,2.58399 -26.19027,0.44164 -28.72705,0.39096 -46.22651,-0.9235 l -15.43892,-1.15968 -9.90278,-5.06699 c -12.10275,-6.19265 -15.75377,-6.40073 -16.85751,-0.96075 -0.4024,1.98328 -1.70417,4.14449 -3.01167,5 -7.43239,4.86304 -8.60552,6.67074 -9.01338,13.8889 -0.40017,7.08201 -1.93722,10.40035 -4.38273,9.46192 -0.76983,-0.29541 -1.69603,-2.18116 -2.05823,-4.19056 -0.90145,-5.00106 -1.33588,-5.5127 -3.24514,-3.82183 -0.90789,0.80405 -2.55072,1.62686 -3.65072,1.82847 -1.60074,0.29338 -2.13116,1.4386 -2.65704,5.73676 -1.02487,8.37666 -3.95878,8.71678 -7.93637,0.92005 -4.18366,-8.20065 -4.76882,-3.42991 -2.54632,20.7596 0.91482,9.9567 1.89616,15.37114 3.35305,18.5 1.13284,2.43293 3.57328,7.7968 5.4232,11.91972 2.04148,4.54985 5.52523,9.90285 8.86348,13.61924 3.025,3.36766 6.38694,7.80993 7.47098,9.87171 l 1.97098,3.74869 -2.97098,2.3807 c -5.63075,4.51203 -11.48901,6.60797 -18.35882,6.56834 -7.19338,-0.0415 -9.976814,-1.49264 -13.957692,-7.27685 -1.996764,-2.90129 -2.262861,-4.22587 -1.789546,-8.90805 0.401026,-3.96708 -0.02018,-7.45098 -1.511242,-12.5 -2.191571,-7.42105 -10.503963,-25.64139 -13.230229,-29 -1.605222,-1.97754 -1.640308,-1.97819 -3.124647,-0.0572 -0.825658,1.06852 -1.442152,3.09352 -1.369986,4.5 0.07217,1.40647 -0.823507,4.63856 -1.990384,7.18241 -2.003403,4.36751 -2.100213,5.87165 -1.7378,27 l 0.383794,22.37482 4.203085,9.48714 c 4.580133,10.33821 4.503559,12.03142 -0.594454,13.14455 -4.728587,1.03246 -18.721525,0.81584 -21.085314,-0.32642 z"
         id="path4154"
         inkscape:connector-curvature="0" />
      <path
         style="fill:#cccccc;fill-opacity:1"
         d="m 55.225366,452.21453 c -2.823469,-0.44697 -5.134517,-3.86368 -6.388089,-9.44429 -0.527572,-2.34863 -1.886643,-5.25764 -3.020158,-6.46446 -1.735809,-1.84806 -1.954513,-2.95236 -1.386333,-7 0.371032,-2.64318 1.378436,-6.9926 2.238676,-9.66537 1.74712,-5.42832 2.280039,-25.85115 1.07353,-41.14041 -0.390616,-4.95 -0.968668,-12.43197 -1.28456,-16.6266 -0.315893,-4.19462 -1.139082,-9.81962 -1.829311,-12.5 -1.46161,-5.67589 -0.657392,-9.32348 3.634482,-16.48447 1.519982,-2.53609 3.932962,-7.48609 5.362177,-11 C 56.037648,315.95904 56.190142,314.67374 55.748203,304 55.27259,292.51296 53.44755,284.67252 47.945831,270.48067 46.875624,267.72004 46,264.87001 46,264.14726 c 0,-0.72275 -1.35,-4.68555 -3,-8.80623 -1.65,-4.12068 -3,-9.12391 -3,-11.11829 0,-5.35804 -4.137167,-21.34309 -5.414721,-20.92121 -1.476686,0.48763 -2.335006,7.4902 -3.022174,24.6563 -0.318315,7.9518 -0.980814,14.85988 -1.472219,15.35128 -0.500668,0.50067 -0.679954,10.66058 -0.407809,23.10996 0.324179,14.82972 0.09671,24.18891 -0.68412,28.14872 -1.061602,5.38364 -1.456535,11.50104 -2.31975,35.93221 -0.380385,10.76586 -1.943551,14.95455 -6.928443,18.56559 -4.812815,3.48638 -11.4705732,4.0512 -13.9611031,1.18441 -3.0217589,-3.47828 -4.2616051,-20.63113 -1.8209061,-25.19162 0.7887819,-1.47385 1.2090653,-7.50112 1.2137565,-17.40645 0.00717,-15.14921 1.1395357,-22.50604 4.4348403,-28.81268 0.7646534,-1.46341 1.4583964,-3.93841 1.5416524,-5.5 0.08326,-1.56159 0.981538,-5.98021 1.996185,-9.81915 C 14.169835,279.68115 15,274.62045 15,272.27408 c 0,-2.34636 0.902761,-6.87472 2.006135,-10.06301 1.967918,-5.68646 2.804051,-12.13842 5.081508,-39.21107 2.402797,-28.56259 4.533125,-43.26497 7.317288,-50.5 4.486783,-11.65952 6.315999,-15.14257 11.935643,-22.72695 7.457947,-10.06539 14.254149,-16.10577 22.305624,-19.82496 L 70.5,126.78213 l 15,1.07841 c 14.95364,1.07508 27.24698,2.96804 50,7.69912 15.07774,3.13515 33.59147,5.44034 43.6931,5.44034 4.27302,0 13.48968,0.5095 20.48146,1.13223 14.22599,1.26705 19.2961,0.78644 44.71455,-4.23864 8.18902,-1.61892 19.88902,-3.6058 26,-4.4153 6.11099,-0.80949 15.83589,-2.84023 21.61089,-4.51274 21.93772,-6.35345 25.78266,-7.01823 45.99134,-7.95185 12.33485,-0.56986 21.01073,-1.43579 23.59343,-2.35484 10.52169,-3.74411 31.36144,-4.9225 34.63659,-1.95853 1.63714,1.48159 2.29049,1.53218 5.07874,0.3933 1.75994,-0.71886 4.7749,-1.88929 6.6999,-2.60095 5.93738,-2.19501 5.01477,-8.6084 -2.57951,-17.931176 C 402.98922,93.576868 401,90.879542 401,90.567446 c 0,-1.144285 5.29034,-0.523503 8.49393,0.9967 1.81291,0.86028 5.38116,3.766265 7.92946,6.457746 5.12105,5.408798 6.19991,5.471838 9.93087,0.580299 C 431.27254,93.465053 440.63552,89 447.48953,89 c 5.59667,0 5.82684,-0.11371 11.6389,-5.75 4.85771,-4.710808 6.42227,-7.090797 8.6569,-13.16882 1.50018,-4.080351 3.28441,-7.604428 3.96498,-7.831282 2.06908,-0.689694 3.44029,4.858014 3.02782,12.250102 -0.54105,9.696365 -3.75886,16.702644 -9.47845,20.637824 -2.42506,1.668486 -4.23681,3.557538 -4.02611,4.197893 0.6746,2.050243 4.64744,1.871573 7.45286,-0.335165 2.85302,-2.24419 6.60694,-2.17267 11.87185,0.226181 3.53191,1.609247 5.04785,7.404967 3.38907,12.957047 -1.5788,5.28435 -1.64812,10.16381 -0.27524,19.37251 0.97517,6.54103 1.55349,7.70421 7.91994,15.92957 3.77737,4.8803 9.68045,11.866 13.11795,15.52377 l 6.25,6.65049 0,6.29263 0,6.29263 -6.5933,6.30764 C 496.01233,196.5837 492.98798,198 484.23373,198 c -5.34104,0 -7.53004,0.44524 -9.39279,1.91047 -1.33582,1.05076 -5.27364,3.35613 -8.7507,5.12305 -5.41607,2.75225 -7.85989,3.32638 -17.05532,4.00686 -12.86204,0.9518 -23.52065,4.78389 -26.03492,9.36034 -1.43666,2.61498 -1.3742,2.83182 1.47906,5.13499 2.72932,2.20312 3.00996,3.01656 3.34762,9.70317 0.46248,9.15851 -0.9103,11.15459 -9.12547,13.26879 -7.21162,1.85592 -6.36617,1.95689 -9.19769,-1.09837 -2.95799,-3.19172 -4.05478,-2.61704 -4.88233,2.55819 -1.43437,8.97005 -4.40321,14.32031 -13.20367,23.79481 -4.73184,5.09426 -10.59362,10.42867 -13.02617,11.85424 -2.56789,1.50488 -5.86868,4.75009 -7.87023,7.73771 -1.89607,2.83016 -6.875,8.50023 -11.06428,12.60015 -4.18929,4.09993 -8.25404,8.68653 -9.03278,10.19245 -1.98373,3.83611 -3.38094,14.60379 -3.40425,26.23512 -0.0163,8.10507 -0.37851,10.46235 -2.01468,13.10973 -4.17174,6.75002 -4.87514,10.53821 -3.92026,21.11288 0.49145,5.44248 1.50828,13.47533 2.25961,17.85078 1.22609,7.14021 1.73858,8.27737 5.00151,11.09795 2.05265,1.77438 4.3026,5.03353 5.16782,7.48583 2.17138,6.15436 1.09345,6.89316 -11.08017,7.59419 l -9.93364,0.57203 -5.15666,-4.85268 c -4.99748,-4.70287 -5.17936,-5.06832 -5.89169,-11.83787 -0.56111,-5.33245 -0.30999,-8.69202 1.06135,-14.19902 1.5005,-6.02569 1.68398,-9.4534 1.11396,-20.81152 -0.4033,-8.03609 -1.33445,-15.51823 -2.27659,-18.29323 -0.87679,-2.58255 -1.7547,-6.94903 -1.9509,-9.70329 -0.92226,-12.94682 -3.04038,-28.54866 -4.00701,-29.51529 -0.58963,-0.58963 -2.37132,-1.16665 -3.95931,-1.28226 l -2.88724,-0.2102 -1.24405,9.24377 c -1.36235,10.12275 -2.42349,12.70633 -8.8416,21.52669 -5.14476,7.07041 -6.13433,11.04151 -6.93829,27.84295 -0.6272,13.10738 -0.24374,15.25935 3.77264,21.17208 3.54676,5.22137 2.04223,5.99809 -10.02514,5.17558 -9.02004,-0.61481 -11.31826,-1.12675 -14.4946,-3.22875 C 266.48189,387.39136 266.26293,386.49914 269,383 c 2.36433,-3.02262 2.4758,-4.36023 0.5,-6 -2.2079,-1.83239 -1.82719,-4.73951 0.85044,-6.49396 1.69053,-1.10768 3.07989,-3.9919 4.94862,-10.27305 4.02711,-13.53587 4.8073,-20.34907 4.49259,-39.23299 L 279.5,303.5 l -8,-1.13315 c -8.12898,-1.15142 -10.02154,-0.83088 -13.63058,2.30857 -0.89682,0.78013 -3.14682,2.20655 -5,3.16983 -1.85318,0.96328 -4.26942,2.26124 -5.36942,2.88434 -1.1,0.62311 -4.925,2.47803 -8.5,4.12206 l -6.5,2.98913 -19.5,-0.31221 c -10.725,-0.17172 -25.19774,-0.69979 -32.16164,-1.17348 -12.2889,-0.83592 -12.9071,-0.99007 -21,-5.2364 C 147.1952,304.48484 142,303.77191 142,308.67076 c 0,1.47191 -1.20872,3.53364 -3.01518,5.14301 -10.06665,8.96839 -9.87474,8.65841 -10.19152,16.46152 -0.26204,6.45466 -0.50599,7.22471 -2.28883,7.22471 -1.54037,0 -2.20001,-0.96936 -2.89208,-4.25 -0.8927,-4.23174 -2.87819,-5.60568 -3.97402,-2.75 -0.31658,0.825 -1.71472,1.5 -3.10699,1.5 -2.1688,0 -2.54566,0.46551 -2.63106,3.25 -0.30599,9.97649 -3.57836,11.30092 -7.71404,3.12211 -2.79352,-5.5245 -2.95931,-5.66473 -4.12419,-3.48812 -1.16066,2.1687 -0.92039,7.91734 1.38408,33.11601 0.22634,2.475 1.82683,7.65 3.55665,11.5 1.72981,3.85 4.34933,9.7 5.82115,13 1.47181,3.3 4.96061,8.475 7.75286,11.5 5.96305,6.46008 9.59662,12.16417 8.61846,13.52951 C 126.0669,421.89615 115.98077,426 108.37715,426 c -4.76214,0 -5.82317,-0.40816 -9.354451,-3.59846 -4.424111,-3.99692 -6.09662,-8.42055 -5.337081,-14.11608 0.277651,-2.082 -0.252773,-6.70379 -1.17872,-10.27065 C 90.827194,391.5444 81.586256,371.29125 78.583858,367.5 77.018337,365.52316 76.982634,365.52247 75.5,367.44113 c -0.825,1.06762 -1.5,3.33497 -1.5,5.03856 0,1.70358 -0.830112,4.72564 -1.844693,6.71568 -2.525233,4.9531 -3.526952,23.88782 -2.094316,39.58719 0.944299,10.34798 1.642124,13.3224 4.898197,20.87816 2.088359,4.84606 3.583423,9.36764 3.322363,10.04795 -0.261059,0.68031 -1.893705,1.45368 -3.628102,1.7186 -4.646069,0.70966 -16.805769,1.2024 -19.428083,0.78726 z"
         id="path4152"
         inkscape:connector-curvature="0" />
      <path
         style="fill:#cccccc;fill-opacity:1"
         d="m 52.477264,449.56817 c -1.394403,-1.3944 -2.715673,-4.20691 -3.097193,-6.5928 -0.365952,-2.28854 -1.760047,-5.46193 -3.097989,-7.05198 l -2.432623,-2.89101 2.113956,-8.26619 c 2.868058,-11.21495 4.352872,-28.4924 3.06489,-35.66337 -0.553479,-3.08155 -1.252019,-11.43323 -1.552311,-18.55928 -0.300292,-7.12605 -1.240829,-16.01145 -2.090082,-19.74533 -1.680353,-7.38795 -0.948872,-11.91312 2.680546,-16.58267 0.976581,-1.25646 3.258803,-5.75646 5.071603,-10 3.165334,-7.40966 3.285668,-8.16768 3.035375,-19.12062 -0.292604,-12.80443 -3.031757,-23.51512 -12.32784,-48.20457 -1.575855,-4.18531 -3.298207,-10.71031 -3.827449,-14.5 -1.170256,-8.37973 -3.562445,-19.26798 -4.422118,-20.12765 -1.764789,-1.76479 -2.904614,2.94319 -4.022305,16.61387 -0.67826,8.29592 -1.032822,16.44876 -0.787916,18.11741 0.244906,1.66864 -0.112074,4.37948 -0.793288,6.02408 -0.846245,2.04302 -1.337621,11.30374 -1.55127,29.23606 -0.425098,35.67988 -0.864393,45.54109 -2.240798,50.30103 -0.756006,2.61445 -0.859139,5.14814 -0.290289,7.13161 1.196106,4.17057 -1.12497,13.83475 -4.097619,17.06109 -4.333238,4.70305 -11.627388,6.57046 -15.2675462,3.90871 C 3.4382182,368.38483 2.0036285,354.82389 3.9366194,346 c 1.8010611,-8.22165 2.6073082,-19.59873 1.7063866,-24.07909 -1.0027511,-4.98677 1.1581628,-16.39505 4.457046,-23.53044 1.044971,-2.26024 1.905289,-5.18524 1.911817,-6.5 C 12.018397,290.57571 12.688056,287.025 13.5,284 c 0.811944,-3.025 1.481603,-7.37241 1.488131,-9.66091 0.0065,-2.28849 0.954847,-7.01349 2.107376,-10.5 2.079398,-6.29036 2.625965,-10.30205 4.814728,-35.33909 1.034458,-11.83306 1.55516,-16.98325 4.094696,-40.5 0.445452,-4.125 1.693664,-9.75 2.773804,-12.5 1.08014,-2.75 2.934999,-7.53636 4.121908,-10.63636 2.753715,-7.19221 12.187285,-20.27788 19.178152,-26.60274 2.981663,-2.69761 8.488678,-6.32526 12.237812,-8.06145 l 6.816607,-3.15671 13.183393,1.02476 c 7.250866,0.56361 17.233393,1.71059 22.183393,2.54884 16.43399,2.78297 23.93018,4.17792 31,5.76871 12.64902,2.84618 19.73987,3.69382 41,4.90112 32.43256,1.84175 44.7965,1.52616 59.5,-1.51874 6.875,-1.42372 15.875,-3.10666 20,-3.73987 19.3967,-2.97748 26.26009,-4.34725 36,-7.18475 20.18008,-5.87901 24.75245,-6.64367 44,-7.35839 11.71854,-0.43514 19.96626,-1.20573 22.5,-2.10219 4.78456,-1.69282 22.13856,-4.33822 28.62756,-4.36391 2.91227,-0.0115 5.08899,0.53768 5.87244,1.48168 0.68469,0.825 2.19359,1.5 3.35312,1.5 2.53973,0 12.843,-4.07132 13.89511,-5.49063 1.88309,-2.54033 -2.22023,-12.25672 -7.15665,-16.946461 C 401.71881,92.358677 401.0859,90 403.59887,90 c 3.08449,0 8.07027,3.095391 12.92544,8.024685 2.69528,2.736425 5.51285,4.975315 6.26127,4.975315 0.74842,0 3.01533,-1.84772 5.03759,-4.106041 5.18698,-5.792479 14.00511,-10.10496 19.0221,-9.30271 7.62893,1.219914 16.58991,-6.754542 20.99238,-18.681292 2.94,-7.96477 4.95712,-9.358438 6.38273,-4.409957 2.45688,8.528134 -2.39797,23.562778 -9.10824,28.206688 -2.21993,1.536321 -4.05332,3.550488 -4.07419,4.475924 -0.0627,2.780128 3.57131,3.166148 6.86712,0.72945 2.48322,-1.835919 3.77228,-2.094187 7.78544,-1.559836 3.11227,0.414396 5.42705,1.386559 6.55949,2.754864 2.24673,2.71467 2.32265,10.88484 0.14036,15.10493 -1.28573,2.48633 -1.39785,3.83466 -0.55714,6.70034 0.57887,1.9732 1.36656,6.44635 1.75042,9.94033 0.63295,5.7612 1.16047,6.87851 5.66567,12 2.73225,3.10602 6.42551,7.89731 8.20725,10.64731 1.78173,2.75 5.55789,7.15553 8.39147,9.79007 4.88045,4.53763 5.15197,5.05427 5.15197,9.80306 0,6.20262 -2.30794,9.86328 -10.3474,16.41218 -6.36041,5.18115 -11.76904,6.98871 -17.84182,5.96272 -3.28471,-0.55495 -4.70123,-0.0628 -11.0395,3.83545 -9.10177,5.5979 -11.74635,6.41101 -24.79903,7.62473 -11.66366,1.08456 -20.40825,4.26802 -23.89306,8.69825 -2.27728,2.89509 -1.89133,4.61138 1.54301,6.86165 2.33684,1.53116 2.44047,2.02442 2.16603,10.30999 L 426.5,243.5 l -5,1.66983 c -7.99288,2.66934 -11.02739,2.38535 -12.5,-1.16983 -1.69469,-4.09135 -2.72645,-3.76956 -4.0079,1.25 -2.44147,9.56346 -4.36806,14.86911 -6.3742,17.55399 -5.46472,7.31358 -14.55524,16.6237 -19.31905,19.78574 -2.89182,1.91948 -6.49351,5.15954 -8.00376,7.20012 -1.51025,2.04058 -6.4849,7.68702 -11.05477,12.54764 -4.56987,4.86061 -8.96375,9.83697 -9.76417,11.05857 -2.12703,3.24625 -3.34269,10.92243 -3.96191,25.01708 -0.48424,11.02234 -0.86439,13.07713 -3.28097,17.73461 -3.86907,7.45684 -4.12581,16.6343 -0.9136,32.65732 2.37065,11.82516 2.62353,12.44971 6.48394,16.01362 2.75187,2.54052 4.2406,4.90002 4.72677,7.49156 0.39033,2.08065 0.51592,3.97678 0.27908,4.21362 -0.611,0.611 -13.66504,2.43264 -17.6023,2.45632 -2.53866,0.0153 -4.39602,-1.01208 -8.10946,-4.48558 -4.47694,-4.18764 -4.90449,-5.01903 -6.06246,-11.78861 -1.13775,-6.65132 -1.06318,-7.89656 0.85946,-14.35243 1.15792,-3.88806 2.1053,-9.17592 2.1053,-11.7508 0,-7.21561 -1.94744,-23.75429 -3.19137,-27.10277 -1.17171,-3.15408 -2.55429,-12.90228 -3.26208,-23 -1.18993,-16.9763 -2.12572,-19.02949 -8.346,-18.31165 -2.64062,0.30473 -2.71678,0.50652 -3.43186,9.09248 -0.81646,9.80314 -0.90688,10.03367 -8.32215,21.21917 -6.17287,9.31142 -7.30949,13.99375 -7.52511,31 -0.14205,11.20343 0.64402,14.58836 4.69973,20.23771 1.46129,2.03549 1.46352,2.29257 0.0247,2.84471 -0.87,0.33385 -5.98371,0.45188 -11.36381,0.26229 -8.50511,-0.29971 -10.20625,-0.66296 -13.03201,-2.78277 -3.19595,-2.39751 -4.2112,-5.34985 -2.25538,-6.55862 2.62527,-1.6225 2.95391,-4.29904 0.85542,-6.96683 l -2.10593,-2.67726 2.93445,-3.17962 c 3.41058,-3.69551 6.66844,-13.37361 8.64912,-25.69381 1.27266,-7.9162 1.62786,-40.3636 0.4547,-41.53675 -0.26411,-0.26412 -4.11192,-1.00953 -8.55068,-1.65649 -8.05016,-1.17332 -8.0806,-1.16928 -12.08541,1.60606 -4.81859,3.33929 -9.74435,6.22326 -13.14629,7.69699 -1.375,0.59565 -4.64606,2.19859 -7.26903,3.56208 -4.55166,2.36608 -5.60001,2.48165 -23,2.5354 -10.02703,0.031 -24.72495,-0.39897 -32.66204,-0.95543 l -14.43108,-1.01174 -9.79768,-5.11296 C 146.36482,303.60264 141,303.45173 141,309.61111 c 0,1.2886 -1.35594,3.30802 -3.25,4.84025 -8.24555,6.67039 -8.75,7.46489 -8.75,13.78105 0,7.0484 -1.41413,10.49871 -3.56974,8.70971 C 124.64362,336.28927 124,334.72202 124,333.45934 c 0,-4.78852 -2.97979,-7.56034 -4.33395,-4.03146 -0.30136,0.78533 -1.81201,1.57283 -3.35699,1.75 -2.60882,0.29916 -2.83144,0.67672 -3.12302,5.29673 -0.58007,9.19083 -3.30344,9.32909 -7.16033,0.36351 -1.9963,-4.64052 -2.3351,-4.9573 -3.76867,-3.52373 -1.41393,1.41393 -1.44346,3.44894 -0.28845,19.88039 1.14486,16.28717 1.60804,19.07693 4.20137,25.30522 6.23003,14.96239 8.52066,19.12706 13.83004,25.14481 3.025,3.42859 6.38023,7.87673 7.45608,9.88475 l 1.95607,3.65095 -2.45607,1.9024 c -5.55461,4.30242 -11.33426,6.38959 -17.53467,6.33218 -5.1622,-0.0478 -6.62809,-0.49474 -9.723516,-2.96464 -4.689203,-3.7416 -6.129332,-7.28612 -5.329942,-13.1183 0.744554,-5.43212 -1.671424,-14.49856 -6.950226,-26.08213 -5.43275,-11.92139 -9.327668,-18.22181 -10.893304,-17.62102 -1.563869,0.60011 -3.77923,6.14969 -2.974625,7.45157 0.289214,0.46796 -0.502891,2.77877 -1.760235,5.13513 -2.191345,4.10676 -2.285931,5.23741 -2.282513,27.2843 l 0.0036,23 4.328587,9.81018 c 2.380723,5.39561 4.10499,10.39287 3.831705,11.10504 -0.629937,1.64159 -6.147143,2.55972 -15.466361,2.57377 -6.401979,0.01 -7.59328,-0.28682 -9.727281,-2.42082 z"
         id="path4150"
         inkscape:connector-curvature="0" />
      <path
         style="fill:#cccccc;fill-opacity:1"
         d="m 52.71163,449.23385 c -0.87909,-0.97139 -2.100912,-4.0087 -2.71516,-6.7496 -0.614247,-2.7409 -2.021691,-5.94664 -3.127651,-7.12389 -1.796779,-1.91258 -1.904861,-2.71102 -1.015311,-7.5004 0.54754,-2.94798 1.470877,-6.60409 2.051861,-8.1247 C 50.680727,412.47134 50.043993,377.57949 46.742277,356 45.064328,345.03319 45.343458,339.37929 47.721638,336.16263 50.861271,331.91605 53.595066,326.08547 55.76871,319 59.323864,307.41119 56.938367,290.09765 48.945831,269.48067 47.875624,266.72004 47,263.8986 47,263.2108 47,262.523 45.827411,259.1567 44.394246,255.73013 42.961081,252.30356 41.415105,246.575 40.958743,243 c -1.216414,-9.52901 -3.595829,-20.03709 -4.812671,-21.25393 -2.012788,-2.01279 -3.980051,1.18691 -4.651672,7.56582 -1.482601,14.08142 -2.585266,35.65125 -3.025739,59.18811 -0.257319,13.75 -0.799769,26.575 -1.205443,28.5 -0.405674,1.925 -0.804413,7.325 -0.886086,12 -0.450224,25.77103 -1.693832,34.1173 -5.615896,37.69017 -4.841643,4.41056 -11.208636,5.71957 -14.0413994,2.88681 -2.7977181,-2.79772 -3.9986363,-19.319 -1.7145135,-23.58693 0.6948832,-1.2984 1.267696,-8.58213 1.4409383,-18.32258 C 6.7360067,311.3767 7.945256,304.0075 11.39659,297.5 c 0.875099,-1.65 1.599202,-4.35 1.609118,-6 0.0099,-1.65 0.682348,-5.475 1.494292,-8.5 0.811944,-3.025 1.481603,-7.42374 1.488131,-9.77498 0.0065,-2.35124 0.929592,-6.85124 2.051254,-10 1.956572,-5.49254 2.462414,-9.31967 4.920141,-37.22502 3.601567,-40.89266 4.836193,-47.74924 11.122879,-61.77162 3.490653,-7.78586 11.810033,-19.24006 18.417595,-25.35751 2.75,-2.54602 8.091297,-6.06745 11.86955,-7.82539 l 6.869549,-3.19626 13.806186,1.08475 c 7.593403,0.59662 17.552105,1.77223 22.130455,2.61248 4.57834,0.84024 11.24926,1.97462 14.82426,2.52085 3.575,0.54623 10.325,1.85855 15,2.91628 13.31835,3.0133 22.15241,4.101 41,5.04817 9.625,0.48369 22.225,1.17065 28,1.52657 10.95093,0.67493 12.4547,0.48632 47,-5.8947 7.425,-1.3715 16.2,-2.80088 19.5,-3.17639 3.3,-0.37551 10.95,-2.02923 17,-3.67493 28.18189,-7.66593 28.10083,-7.65182 49.59244,-8.63308 12.42756,-0.56741 21.4911,-1.42115 22.85892,-2.15319 3.08949,-1.65344 18.18107,-4.01757 25.6762,-4.02222 4.23048,-0.003 6.51296,0.46058 7.37244,1.49619 1.55092,1.86874 5.91351,1.94154 8.52749,0.14229 1.08488,-0.74674 3.66001,-1.90664 5.72251,-2.57755 3.37425,-1.09762 3.75,-1.56599 3.75,-4.67441 0,-4.7643 -2.13007,-9.42165 -6.54307,-14.306322 -2.05557,-2.275275 -3.5024,-4.371872 -3.21517,-4.659104 1.45813,-1.458125 6.92037,1.542113 12.43692,6.831215 6.98735,6.699251 8.47763,6.849861 12.72164,1.285685 1.41783,-1.858878 5.17028,-4.796084 8.33878,-6.527125 4.61713,-2.522475 6.50597,-3.032473 9.51367,-2.568752 5.10842,0.787605 9.25201,-1.195304 15.10737,-7.229604 3.69917,-3.812217 5.38621,-6.63094 7.06244,-11.799972 1.21126,-3.73522 2.71089,-6.96084 3.3325,-7.168044 1.58004,-0.52668 2.61849,5.949705 1.91135,11.920362 -0.92444,7.805481 -4.80519,15.233012 -9.62572,18.423086 -7.54432,4.992596 -3.0403,10.024425 4.95211,5.532435 3.13825,-1.763795 4.2233,-1.905029 7.58467,-0.987248 2.15738,0.589046 4.48501,1.529308 5.17251,2.089468 1.67482,1.36461 1.60217,10.70639 -0.11501,14.79037 -0.95774,2.2778 -1.10518,4.326 -0.49414,6.86481 0.47897,1.99013 1.27602,6.65535 1.77122,10.36717 0.80859,6.06092 1.3757,7.27745 5.56419,11.93606 2.56511,2.85302 6.18126,7.46608 8.0359,10.25124 1.85464,2.78517 5.42312,7.07013 7.92995,9.52215 4.41816,4.32153 4.55769,4.64343 4.5513,10.5 -0.008,7.05661 -1.5244,9.89119 -7.89253,14.75042 -7.63943,5.82929 -10.09958,6.78815 -17.4207,6.78982 -5.97561,0.001 -7.37236,0.3817 -11.28334,3.07253 -8.00441,5.50718 -12.99763,7.12843 -24.59856,7.98691 -9.08092,0.672 -11.97361,1.32691 -17.87473,4.04691 -3.87226,1.78485 -7.46417,4.03685 -7.98202,5.00445 -1.59757,2.98509 -1.05001,5.77356 1.45618,7.41569 2.87935,1.88662 3.93078,6.51808 3.02678,13.33275 -0.75373,5.68192 -2.23977,6.75054 -10.78392,7.75473 l -5.28429,0.62107 -0.96557,-3.36675 c -1.52702,-5.32443 -3.69881,-4.22985 -5.22472,2.63326 -0.73371,3.3 -2.2143,8.2783 -3.29021,11.06289 -2.52621,6.53821 -14.78287,20.5272 -22.33784,25.49504 -3.15648,2.07557 -6.90003,5.49913 -8.319,7.60792 -1.41898,2.10878 -6.77726,8.29921 -11.90731,13.7565 -11.02336,11.72653 -11.24271,12.30775 -12.2949,32.57765 -0.69727,13.43262 -0.98665,14.98938 -3.93123,21.14802 l -3.17856,6.64801 1.04222,10.85199 c 0.57322,5.96859 1.65278,14.4239 2.39902,18.78958 1.2417,7.26426 1.68196,8.21059 5.1899,11.15569 4.33274,3.63756 7.30477,10.8693 4.85353,11.80993 -0.74916,0.28748 -5.30776,0.82055 -10.13021,1.1846 l -8.76809,0.6619 -5.14329,-4.87486 c -5.01121,-4.74968 -5.16007,-5.05461 -5.79707,-11.87486 -0.50403,-5.39664 -0.19603,-8.76527 1.34469,-14.70688 1.80532,-6.96199 1.90122,-8.94338 0.99218,-20.5 -0.55347,-7.03622 -1.47786,-14.14312 -2.05421,-15.79312 -1.16999,-3.34953 -2.32376,-11.69177 -3.85272,-27.85684 -0.56478,-5.97126 -1.47245,-11.6894 -2.01704,-12.70697 -1.21193,-2.26451 -7.62772,-3.67432 -9.26594,-2.0361 -0.63289,0.63289 -1.44206,4.85177 -1.79816,9.3753 -0.73279,9.30861 -2.01238,12.59754 -8.35985,21.48746 -5.59201,7.83186 -6.27934,10.47447 -7.13575,27.43539 -0.73292,14.51514 -0.13362,18.00459 3.86046,22.47773 3.23165,3.61927 1.51583,4.31691 -9.05741,3.6827 -7.92875,-0.47559 -10.4006,-1.02539 -13.47957,-2.9982 -3.19411,-2.04658 -3.6136,-2.70875 -2.74463,-4.33245 0.56417,-1.05415 1.47334,-2.19325 2.02038,-2.53134 1.55325,-0.95996 1.16925,-4.64624 -0.69906,-6.71069 -1.6038,-1.77218 -1.5543,-2.00073 0.93284,-4.30693 2.82522,-2.6197 6.71065,-13.87861 8.79277,-25.47906 1.34767,-7.50852 1.60988,-41.79106 0.32866,-42.97216 -0.47332,-0.43633 -4.58858,-1.32299 -9.14502,-1.97034 l -8.28443,-1.177 -5.89419,3.93599 c -5.62055,3.75326 -9.28318,5.65631 -20.53695,10.67071 -4.648,2.07103 -6.2672,2.2114 -23,1.99394 -9.9,-0.12866 -24.10342,-0.65326 -31.56316,-1.16578 l -13.56317,-0.93186 -8.86917,-4.79547 c -6.49272,-3.51055 -10.07637,-4.83467 -13.37457,-4.94175 -4.37719,-0.14212 -4.52629,-0.0471 -5.23926,3.3379 -0.42144,2.00088 -1.93799,4.45227 -3.56227,5.75814 -8.54765,6.87206 -9.22525,7.98122 -9.53667,15.61052 -0.3269,8.00873 -1.79123,9.35815 -3.0805,2.83876 -0.93497,-4.7278 -3.29961,-6.475 -5.21608,-3.85408 -0.6686,0.91436 -2.15197,1.66248 -3.29638,1.66248 -2.73619,0 -3.55666,1.47179 -4.18096,7.5 -0.28479,2.75 -0.96781,4.95241 -1.51781,4.89424 -1.11092,-0.1175 -5.47343,-8.17888 -5.48967,-10.14424 -0.0195,-2.35901 -3.05989,-1.24984 -4.11172,1.5 -0.75645,1.97761 -0.63622,7.94606 0.42807,21.25 1.35837,16.9801 1.74084,19.0751 4.65536,25.5 1.74647,3.85 4.15248,9.23213 5.34668,11.96029 1.19421,2.72816 4.36169,7.45316 7.03886,10.5 6.0626,6.89974 9.91624,12.85772 9.32052,14.41014 -0.65207,1.69924 -10.71131,6.5968 -14.96824,7.2876 -5.77149,0.93659 -9.98163,-0.37 -14.108565,-4.37848 -3.725397,-3.61847 -3.809801,-3.85848 -3.391339,-9.64365 0.277055,-3.83025 -0.187148,-8.0952 -1.309835,-12.03437 C 90.916838,388.09903 80.523384,366.05954 77.757829,364.35033 76.098091,363.32456 73,367.84666 73,371.29506 c 0,1.69042 -1.0125,5.12807 -2.25,7.63922 -2.138369,4.3392 -2.246842,5.68289 -2.186346,27.08307 0.05891,20.83738 0.222685,22.85179 2.195203,27 C 74.276798,440.41559 77,447.17572 77,448.51049 c 0,1.84241 -3.394188,2.46054 -13.595012,2.47586 -7.43514,0.0112 -9.386717,-0.30868 -10.693358,-1.7525 z M 510.30987,175.5 c 0.006,-3.3 0.1923,-4.52944 0.41486,-2.73209 0.22256,1.79735 0.21797,4.49735 -0.0102,6 -0.22818,1.50265 -0.41027,0.0321 -0.40466,-3.26791 z"
         id="path4148"
         inkscape:connector-curvature="0" />
    </g>
  </g>
</svg>
