<?xml version="1.0" encoding="UTF-8" standalone="no"?>
<svg
   xmlns:dc="http://purl.org/dc/elements/1.1/"
   xmlns:cc="http://creativecommons.org/ns#"
   xmlns:rdf="http://www.w3.org/1999/02/22-rdf-syntax-ns#"
   xmlns:svg="http://www.w3.org/2000/svg"
   xmlns="http://www.w3.org/2000/svg"
   xmlns:sodipodi="http://sodipodi.sourceforge.net/DTD/sodipodi-0.dtd"
   xmlns:inkscape="http://www.inkscape.org/namespaces/inkscape"
   enable-background="new 0 0 32 32"
   height="22.368319"
   id="Layer_1"
   version="1.1"
   viewBox="0 0 31.999712 22.368319"
   width="31.999712"
   xml:space="preserve"
   inkscape:version="0.91 r13725"
   sodipodi:docname="elephant_grey.svg"><metadata
     id="metadata9"><rdf:RDF><cc:Work
         rdf:about=""><dc:format>image/svg+xml</dc:format><dc:type
           rdf:resource="http://purl.org/dc/dcmitype/StillImage" /><dc:title></dc:title></cc:Work></rdf:RDF></metadata><defs
     id="defs7" /><sodipodi:namedview
     pagecolor="#ffffff"
     bordercolor="#666666"
     borderopacity="1"
     objecttolerance="10"
     gridtolerance="10"
     guidetolerance="10"
     inkscape:pageopacity="0"
     inkscape:pageshadow="2"
     inkscape:window-width="686"
     inkscape:window-height="480"
     id="namedview5"
     showgrid="false"
     fit-margin-top="0"
     fit-margin-left="0"
     fit-margin-right="0"
     fit-margin-bottom="0"
     inkscape:zoom="7.375"
     inkscape:cx="15.984711"
     inkscape:cy="11.525574"
     inkscape:window-x="0"
     inkscape:window-y="0"
     inkscape:window-maximized="0"
     inkscape:current-layer="Layer_1" /><path
     d="m 31.999711,8.3667451 c -0.598,0.81 -1.528,1.085 -2.506,0.989 -1.287,-0.126 -1.057,-1.049 -1.726,-2.017 -0.479,-0.693 -1.342,-1.098 -1.88,-1.808 -0.459,-0.606 -2.045,-2.724 -2.805,-2.846 -1.144,-0.185 -1.919,0.53 -2.665,-0.472 -0.564,-0.757 -1.189,-0.465 -1.847,-0.802 -0.531,-0.272 -1.877,-1.798 -2.588,-1.318 -0.605,0.409 0.029,2.089 0.154,2.596 -2.059,-0.129 -3.915,1.263 -6.026,0.997 -6.1949999,-0.782 -9.23399992,3.128 -9.57299992,5.395 -0.188,1.2559999 -1.358,7.3449999 0.49100002,7.8829999 -0.87800002,-0.531 -0.52400002,-5.481 0.326,-5.865 0.306,2.075 1.089,4.022 1.463,6.065 0.298,1.632 -0.039,3.539 -0.071,5.196 1.041,0 2.082,0 3.122,0 0.114,-0.742 -1.485,-0.86 -1.285,-1.984 0.255,-1.433 0.447,-2.469 1.593,-3.443 0.306,1.907 1.057,3.353 0.759,5.427 0.983,0 1.967,0 2.95,0 -1.04,-0.929 -1.106,-2.176 -1.153,-3.473 -0.043,-1.188 -0.107,-2.375 -0.272,-3.553 0.957,-0.249 1.8989999,-0.558 2.8369999,-0.868 1.146,-0.379 1.758,-0.941 1.963,0.558 0.164,1.202 0.096,2.222 -0.067,3.414 -0.183,1.339 -0.48,2.596 -0.702,3.922 1.041,-0.006 2.083,0.022 3.125,0 0.124,-0.194 -0.687,-0.53 -0.658,-0.842 0.068,-0.73 1.033,-5.779 1.558,-7.703 1.667,2.269 1.748,2.085 2.014,3.81 0.26,1.684 0.178,2.981 0.22,4.583 1.016,0 3.395,0.225 2.881,-0.308 -0.504,-0.522 -2.757,-11.816 -2.098,-11.9379999 0.835,-0.154 2.081,2.0249999 2.922,1.3789999 0.63,-0.483 -0.456,-1.9219999 -0.076,-2.2159999 -0.136,0.105 3.571,0.248 3.702,0.269 1.169,0.185 0.949,1.9199999 0.867,2.8079999 -0.086,0.934 -0.455,1.857 -1.388,2.225 -0.679,0.268 -1.454,0.221 -2.158,0.1 -1.17,-0.201 -1.259,-1.177 -1.869,0.303 -0.063,0.152 2.028,0.615 2.152,0.631 1.254,0.164 2.682,0.022 3.588,-0.961 0.907,-0.984 1.43,-3.036 1.58,-4.353 1.237,0.209 2.921,-0.4349999 3.146,-1.7799999 z"
     id="path3"
     style="fill:#cccccc;fill-opacity:1"
     inkscape:connector-curvature="0" /></svg>