<?xml version="1.0" encoding="UTF-8" standalone="no"?>
<svg
   xmlns:dc="http://purl.org/dc/elements/1.1/"
   xmlns:cc="http://creativecommons.org/ns#"
   xmlns:rdf="http://www.w3.org/1999/02/22-rdf-syntax-ns#"
   xmlns:svg="http://www.w3.org/2000/svg"
   xmlns="http://www.w3.org/2000/svg"
   xmlns:sodipodi="http://sodipodi.sourceforge.net/DTD/sodipodi-0.dtd"
   xmlns:inkscape="http://www.inkscape.org/namespaces/inkscape"
   version="1.1"
   x="0px"
   y="0px"
   viewBox="0 0 123.2851 221.625"
   xml:space="preserve"
   id="svg2"
   inkscape:version="0.91 r13725"
   sodipodi:docname="sickperson_grey.svg"
   width="123.2851"
   height="221.625"><metadata
     id="metadata22"><rdf:RDF><cc:Work
         rdf:about=""><dc:format>image/svg+xml</dc:format><dc:type
           rdf:resource="http://purl.org/dc/dcmitype/StillImage" /><dc:title></dc:title></cc:Work></rdf:RDF></metadata><defs
     id="defs20" /><sodipodi:namedview
     pagecolor="#ffffff"
     bordercolor="#666666"
     borderopacity="1"
     objecttolerance="10"
     gridtolerance="10"
     guidetolerance="10"
     inkscape:pageopacity="0"
     inkscape:pageshadow="2"
     inkscape:window-width="1102"
     inkscape:window-height="658"
     id="namedview18"
     showgrid="false"
     fit-margin-top="0"
     fit-margin-left="0"
     fit-margin-right="0"
     fit-margin-bottom="0"
     inkscape:zoom="0.85188945"
     inkscape:cx="61.642516"
     inkscape:cy="83.109375"
     inkscape:window-x="0"
     inkscape:window-y="0"
     inkscape:window-maximized="0"
     inkscape:current-layer="svg2" /><g
     id="g4"
     transform="translate(1.448956e-5,0)"
     style="fill:#cccccc;fill-opacity:1"><path
       d="M 74.799,44.294 C 71.445,46.02 67.65,47 63.627,47 55.248,47 47.842,42.77 43.422,36.336 18.65,37.705 -0.019,57.202 0,80.309 c 0,4.165 0.609,8.424 1.879,12.65 l 0,0 c 0,10e-4 0.002,0.003 0.002,0.004 l 0,-0.002 c 2.996,10.043 9.789,20.09 21.104,29.061 1.473,1.17 3.229,1.738 4.973,1.738 2.355,0 4.688,-1.035 6.268,-3.021 2.75,-3.459 2.176,-8.49 -1.283,-11.24 C 23.679,102.112 19.177,94.888 17.207,88.366 l 0,0 0.002,-0.001 c -0.828,-2.755 -1.205,-5.445 -1.205,-8.056 0.006,-4.543 1.168,-8.927 3.295,-12.827 -0.342,8.208 0.318,15.726 1.631,23.539 2.627,4.487 7.789,12.55 13.262,16.915 4.311,3.43 5.029,9.73 1.602,14.047 -1.91,2.4 -4.764,3.777 -7.834,3.777 -0.023,0 -0.045,-0.003 -0.068,-0.003 0.418,3.852 0.738,8.544 0.738,13.947 -0.006,16.369 -2.895,39.039 -14.65,64.107 -2.932,6.25 -0.242,13.694 6.006,16.627 1.717,0.805 3.524,1.187 5.303,1.187 4.697,0 9.199,-2.66 11.326,-7.193 13.574,-28.935 17.019,-55.431 17.016,-74.727 0,-2.048 -0.041,-4.011 -0.109,-5.893 1.773,3.282 3.828,7.425 5.859,12.298 5.229,12.505 10.234,29.664 10.221,48.928 0,4.117 -0.225,8.34 -0.723,12.652 -0.791,6.86 4.131,13.06 10.988,13.851 0.484,0.056 0.967,0.083 1.445,0.083 6.266,0.001 11.67,-4.699 12.404,-11.072 0.607,-5.296 0.887,-10.476 0.885,-15.514 -0.012,-24.343 -6.41,-45.155 -12.742,-59.964 -2.541,-5.927 -5.074,-10.885 -7.229,-14.759 -0.572,-1.429 -1.141,-2.816 -1.408,-3.936 -7.301,-20.563 -5.492,-32.402 0.635,-44.546 4.387,9.737 8.713,23.829 8.693,41.509 0,2.687 -0.098,5.461 -0.313,8.323 -0.326,4.406 2.979,8.244 7.387,8.573 0.201,0.015 0.402,0.023 0.602,0.023 4.148,0 7.656,-3.203 7.969,-7.408 0.242,-3.261 0.355,-6.431 0.355,-9.511 C 98.5,71.324 77.613,46.843 76.94,46.04 76.316,45.314 75.586,44.738 74.799,44.294 Z"
       id="path6"
       inkscape:connector-curvature="0"
       style="fill:#cccccc;fill-opacity:1" /><circle
       cx="63.629002"
       cy="22.5"
       r="22.5"
       id="circle8"
       style="fill:#cccccc;fill-opacity:1" /><path
       d="m 117.524,31.231 c -2.266,-0.017 -4.457,1.379 -6.6,0.455 -2.07,-0.894 -3.6,-2.702 -5.682,-3.585 -4.332,-1.836 -6.762,2.67 -7.795,6.013 -0.441,1.424 3.451,0.889 3.869,-0.459 0.588,-1.897 0.572,-4.01 2.586,-2.693 1.338,0.874 2.545,1.878 3.959,2.641 2.279,1.228 4.73,0.939 7.061,0.111 4.551,-1.616 4.566,8.15 4.348,10.227 -0.42,3.986 -3.545,4.001 -6.668,5.246 -2.465,0.982 -4.186,2.718 -5.078,5.194 -1.162,3.23 0.121,7.396 -5.012,6.565 -7.49,-1.213 -10.91,-8.844 -5.072,-14.212 1.674,-1.54 -2.148,-1.589 -3.115,-0.699 -7.287,6.699 -3.049,15.066 5.84,17.075 3.205,0.725 6.953,0.034 9.277,-2.383 1.527,-1.589 1.607,-3.722 1.748,-5.792 0.258,-3.833 4.082,-4.422 6.982,-5.415 4.313,-1.477 5.123,-4.584 5.113,-8.935 -0.008,-3.436 -1.287,-9.318 -5.761,-9.354 z"
       id="path10"
       inkscape:connector-curvature="0"
       style="fill:#cccccc;fill-opacity:1" /><path
       d="m 87.889,39.796 c 5.053,0.784 10.211,2.222 13.941,4.826 1.113,0.832 2.613,0.589 3.734,-0.661 1.094,-1.209 0.473,-3.237 -1.418,-3.939 -5.643,-1.871 -11.027,-1.661 -16.252,-1.074 -1.703,0.246 -1.663,0.628 -0.005,0.848 z"
       id="path12"
       inkscape:connector-curvature="0"
       style="fill:#cccccc;fill-opacity:1" /></g></svg>