<?xml version="1.0" encoding="UTF-8" standalone="no"?>
<svg
   xmlns:dc="http://purl.org/dc/elements/1.1/"
   xmlns:cc="http://creativecommons.org/ns#"
   xmlns:rdf="http://www.w3.org/1999/02/22-rdf-syntax-ns#"
   xmlns:svg="http://www.w3.org/2000/svg"
   xmlns="http://www.w3.org/2000/svg"
   xmlns:sodipodi="http://sodipodi.sourceforge.net/DTD/sodipodi-0.dtd"
   xmlns:inkscape="http://www.inkscape.org/namespaces/inkscape"
   enable-background="new 0 0 32 32"
   height="24.439175"
   id="Layer_1"
   version="1.1"
   viewBox="0 0 25.617516 24.439175"
   width="25.617516"
   xml:space="preserve"
   inkscape:version="0.91 r13725"
   sodipodi:docname="thumbsup_grey.svg"><metadata
     id="metadata12"><rdf:RDF><cc:Work
         rdf:about=""><dc:format>image/svg+xml</dc:format><dc:type
           rdf:resource="http://purl.org/dc/dcmitype/StillImage" /><dc:title></dc:title></cc:Work></rdf:RDF></metadata><defs
     id="defs10" /><sodipodi:namedview
     pagecolor="#ffffff"
     bordercolor="#666666"
     borderopacity="1"
     objecttolerance="10"
     gridtolerance="10"
     guidetolerance="10"
     inkscape:pageopacity="0"
     inkscape:pageshadow="2"
     inkscape:window-width="686"
     inkscape:window-height="480"
     id="namedview8"
     showgrid="false"
     fit-margin-top="0"
     fit-margin-left="0"
     fit-margin-right="0"
     fit-margin-bottom="0"
     inkscape:zoom="7.375"
     inkscape:cx="13.048984"
     inkscape:cy="12.2199"
     inkscape:window-x="0"
     inkscape:window-y="0"
     inkscape:window-maximized="0"
     inkscape:current-layer="Layer_1" /><g
     id="Thumbs_up"
     transform="translate(-2.9510162,-3.7807254)"
     style="fill:#cccccc;fill-opacity:1"><path
       d="m 19.899,24.995 c 0.36,-0.662 2.3,-4.416 2.248,-7.854 0,0 0.034,-1.158 -0.834,-1.532 -0.281,-0.122 -1.925,-0.821 -2.105,-1.002 0,0 -0.999,-2.155 -1.806,-3.129 C 15.533,9.22 14.042,8.065 13.61,7.747 13.337,7.545 12.709,7.3 11.427,5.96 10.419,4.907 10.344,3.793 9.59,3.781 9.515,3.779 9.5,3.787 9.339,3.836 8.936,3.959 7.121,5.399 8.617,7.807 c 0,0 0.751,1.183 2.046,2.288 0,0 1.768,1.55 -0.181,2.708 0,0 -1.263,0.646 -2.8,0.561 -0.625,-0.035 -1.594,-0.2 -1.894,-0.259 -0.301,-0.061 -1.305,-0.369 -2.106,0.12 -1.548,0.945 -0.663,9.409 2.9,12.313 1.343,1.096 5.945,1.467 8.473,0.745 0,0 1.435,-0.502 2.167,-0.422 1.022,0.115 1.647,-0.064 1.647,-0.064 0,0 0.669,-0.14 1.03,-0.802 z"
       id="path4"
       inkscape:connector-curvature="0"
       style="fill:#cccccc;fill-opacity:1" /><path
       d="m 25.603,15.559 c -1.226,-0.191 -2.353,-0.381 -2.592,-0.407 -0.208,-0.023 -0.227,0.253 -0.054,0.334 0.214,0.123 0.512,0.492 0.598,1.255 0.006,0.554 0.448,4.111 -2.502,9.001 -0.682,1.128 -1.203,1.09 -2.075,1.168 0.039,0.527 0.843,0.818 0.843,0.818 0,0 2.565,0.833 4.123,0.331 0,0 2.297,-0.487 3.718,-4.757 0.395,-1.186 0.677,-2.409 0.8,-3.449 0.06,-0.499 0.094,-0.952 0.105,-1.332 0.056,-1.921 -1.433,-2.69 -2.964,-2.962 z"
       id="path6"
       inkscape:connector-curvature="0"
       style="fill:#cccccc;fill-opacity:1" /></g></svg>